M48
; DRILL file {KiCad 5.1.2} date Tue Jun 11 16:09:16 2019
; FORMAT={-:-/ absolute / inch / decimal}
; #@! TF.CreationDate,2019-06-11T16:09:16+02:00
; #@! TF.GenerationSoftware,Kicad,Pcbnew,5.1.2
; #@! TF.FileFunction,Plated,1,2,PTH
FMAT,2
INCH
T1C0.0157
T2C0.0276
T3C0.0409
T4C0.0579
%
G90
G05
T1
X0.915Y-2.23
X1.975Y-2.265
X2.72Y-2.2014
X3.37Y-4.935
X3.535Y-3.06
X4.355Y-4.835
X4.55Y-1.175
X4.7189Y-1.0
X4.7189Y-1.0665
X4.75Y-0.965
X4.75Y-1.125
X4.905Y-1.175
X5.06Y-1.275
X5.06Y-1.42
X5.755Y-3.1
X6.52Y-3.735
X7.265Y-3.875
X8.045Y-3.7636
X8.345Y-2.23
X8.545Y-1.175
X8.545Y-1.575
X8.63Y-3.7636
X8.655Y-3.645
X8.75Y-1.285
X8.87Y-4.395
X8.87Y-4.63
X9.08Y-4.175
X9.11Y-2.25
X9.13Y-3.645
X9.13Y-4.315
X9.2193Y-2.2764
X9.22Y-2.1686
X9.3012Y-1.6362
X9.845Y-4.175
X9.855Y-2.225
X10.185Y-2.915
X10.185Y-4.315
X10.525Y-3.685
X10.73Y-3.335
X10.785Y-4.885
X10.825Y-2.745
X10.86Y-5.075
X10.91Y-2.88
X10.91Y-3.2
X11.0021Y-2.1479
X11.03Y-2.955
X11.03Y-3.17
X11.05Y-3.235
X11.245Y-4.18
X11.255Y-3.565
X11.2571Y-2.1479
X11.27Y-3.285
X11.38Y-4.66
X11.39Y-2.145
X11.42Y-3.43
X11.5Y-4.315
X11.75Y-3.06
X11.75Y-3.1714
X11.805Y-4.925
X11.905Y-4.575
X11.975Y-2.895
X11.975Y-3.195
X11.975Y-4.645
X11.975Y-5.09
X12.275Y-2.41
X12.295Y-3.8236
X12.755Y-3.38
X12.835Y-1.245
X12.835Y-4.315
X13.025Y-3.155
X13.035Y-3.795
X13.06Y-1.66
X13.14Y-1.42
X13.21Y-4.93
X13.225Y-5.06
X13.35Y-2.41
X13.39Y-4.495
X13.5Y-2.945
X13.59Y-4.18
X13.635Y-3.68
X13.635Y-4.315
X13.78Y-3.115
X13.835Y-4.61
X13.89Y-1.42
X13.905Y-2.24
X13.905Y-2.485
X14.055Y-2.185
X14.055Y-4.37
X14.205Y-2.895
X14.225Y-3.77
X14.2277Y-4.2686
X14.25Y-4.305
X14.25Y-4.885
X14.31Y-5.13
X14.3273Y-2.6827
X14.35Y-2.795
X14.35Y-3.365
X14.365Y-3.09
X14.39Y-1.595
X14.39Y-2.43
X14.59Y-3.735
X14.65Y-3.365
X14.655Y-3.855
X14.74Y-4.225
X14.86Y-2.115
X14.865Y-2.7677
X15.0731Y-2.0781
X15.075Y-1.325
X15.105Y-2.325
X15.105Y-2.47
X15.115Y-1.285
X15.1152Y-1.9298
X15.145Y-2.375
X15.175Y-2.15
X15.18Y-3.065
X15.18Y-3.325
X15.2114Y-2.715
X15.2148Y-3.1252
X15.24Y-2.43
X15.24Y-3.095
X15.45Y-1.81
X15.475Y-3.155
X15.4838Y-1.7814
X15.5Y-4.64
X15.5212Y-1.7353
X15.555Y-1.715
X15.585Y-1.87
X15.585Y-2.14
X15.625Y-2.02
X15.8452Y-1.5698
X15.86Y-1.85
X15.86Y-2.01
X15.8687Y-3.0664
X15.8708Y-2.0781
X15.8998Y-2.9548
X15.915Y-3.68
X15.926Y-3.1536
X15.955Y-3.82
X15.965Y-0.855
X15.965Y-1.48
X16.0011Y-3.125
X16.0064Y-3.895
X16.02Y-4.93
X16.025Y-2.68
X16.035Y-4.32
X16.0724Y-2.5924
X16.09Y-2.34
X16.1226Y-2.285
X16.1818Y-2.291
X16.1963Y-2.7963
X16.2105Y-2.2611
X16.2115Y-2.7559
X16.245Y-2.28
X16.435Y-2.23
X16.575Y-2.01
X16.58Y-1.77
X16.5839Y-1.9194
X16.6036Y-2.0378
X16.6064Y-1.9585
X16.6203Y-1.8914
X16.6547Y-1.8357
X16.6578Y-1.8793
X16.69Y-5.11
X16.69Y-5.205
X16.6941Y-1.8347
X16.695Y-4.375
X16.74Y-1.675
X16.755Y-3.86
X16.8211Y-1.6111
X16.83Y-4.555
X16.83Y-5.18
X16.8598Y-1.5932
X16.8625Y-3.3375
X16.895Y-1.565
X16.895Y-3.15
X16.9236Y-1.64
X17.17Y-5.19
X17.25Y-4.555
T3
X13.1375Y-1.2
X13.2375Y-1.2
X13.8875Y-1.2
X13.9875Y-1.2
T4
X9.85Y-1.8375
X10.1Y-1.7375
X15.475Y-4.0875
X15.725Y-3.9875
X1.8812Y-4.8375
X2.1313Y-4.7375
X8.725Y-2.5875
X8.975Y-2.4875
X2.9125Y-3.3375
X3.1625Y-3.2375
X12.6625Y-4.8375
X12.9125Y-4.7375
X12.2875Y-3.3375
X12.5375Y-3.2375
X9.6625Y-0.9
X9.9125Y-0.8
X3.2875Y-4.0875
X3.5375Y-3.9875
X7.6Y-1.8375
X7.85Y-1.7375
X4.0375Y-4.0875
X4.2875Y-3.9875
X13.7875Y-2.5875
X14.0375Y-2.4875
X4.4125Y-3.3375
X4.6625Y-3.2375
X6.85Y-1.8375
X7.1Y-1.7375
X0.85Y-1.8375
X1.1Y-1.7375
X1.7875Y-0.9
X2.0375Y-0.8
X16.975Y-4.0875
X17.225Y-3.9875
X3.1Y-1.8375
X3.35Y-1.7375
X4.975Y-2.5875
X5.225Y-2.4875
X8.9125Y-0.9
X9.1625Y-0.8
X15.475Y-4.8375
X15.725Y-4.7375
X5.725Y-0.9
X5.975Y-0.8
X5.9125Y-3.3375
X6.1625Y-3.2375
X6.475Y-2.5875
X6.725Y-2.4875
X7.975Y-2.5875
X8.225Y-2.4875
X5.5375Y-4.0875
X5.7875Y-3.9875
X12.2875Y-4.0875
X12.5375Y-3.9875
X9.475Y-2.5875
X9.725Y-2.4875
X2.5375Y-0.9
X2.7875Y-0.8
X11.35Y-0.9
X11.6Y-0.8
X7.4125Y-3.3375
X7.6625Y-3.2375
X5.35Y-1.8375
X5.6Y-1.7375
X13.7875Y-3.3375
X14.0375Y-3.2375
X6.2875Y-4.0875
X6.5375Y-3.9875
X3.85Y-1.8375
X4.1Y-1.7375
X0.9437Y-4.0875
X1.1937Y-3.9875
X11.2562Y-2.9625
X11.5062Y-2.8625
X13.7875Y-4.8375
X14.0375Y-4.7375
X10.6937Y-4.0875
X10.9437Y-3.9875
X2.35Y-1.8375
X2.6Y-1.7375
X15.475Y-3.3375
X15.725Y-3.2375
X2.8188Y-4.8375
X3.0688Y-4.7375
X4.0375Y-0.9
X4.2875Y-0.8
X8.4437Y-4.8375
X8.6937Y-4.7375
X4.975Y-0.9
X5.225Y-0.8
X3.475Y-2.5875
X3.725Y-2.4875
X10.4125Y-3.3375
X10.6625Y-3.2375
X7.0375Y-4.0875
X7.2875Y-3.9875
X16.225Y-4.0875
X16.475Y-3.9875
X10.975Y-1.8375
X11.225Y-1.7375
X8.9125Y-3.3375
X9.1625Y-3.2375
X12.2875Y-0.9
X12.5375Y-0.8
X13.7875Y-4.0875
X14.0375Y-3.9875
X12.2875Y-2.5875
X12.5375Y-2.4875
X1.6Y-1.8375
X1.85Y-1.7375
X2.5375Y-4.0875
X2.7875Y-3.9875
X16.975Y-3.3375
X17.225Y-3.2375
X13.0375Y-1.8375
X13.2875Y-1.7375
X16.225Y-3.3375
X16.475Y-3.2375
X5.6312Y-4.8375
X5.8812Y-4.7375
X14.4875Y-2.9625
X14.5875Y-3.2125
X5.1625Y-3.3375
X5.4125Y-3.2375
X16.975Y-4.8375
X17.225Y-4.7375
X12.2875Y-1.8375
X12.5375Y-1.7375
X8.1625Y-3.3375
X8.4125Y-3.2375
X6.475Y-0.9
X6.725Y-0.8
X9.2875Y-4.0875
X9.5375Y-3.9875
X4.6Y-1.8375
X4.85Y-1.7375
X14.5375Y-0.9
X14.7875Y-0.8
X0.9437Y-4.8375
X1.1937Y-4.7375
X1.0375Y-2.5875
X1.2875Y-2.4875
X5.725Y-2.5875
X5.975Y-2.4875
X13.0375Y-3.3375
X13.2875Y-3.2375
X9.1Y-1.8375
X9.35Y-1.7375
X7.225Y-0.9
X7.475Y-0.8
X8.35Y-1.8375
X8.6Y-1.7375
X13.0375Y-0.9
X13.2875Y-0.8
X1.7875Y-4.0875
X2.0375Y-3.9875
X13.7875Y-1.8375
X14.0375Y-1.7375
X2.725Y-2.5875
X2.975Y-2.4875
X10.225Y-2.5875
X10.475Y-2.4875
X9.6625Y-3.3375
X9.9125Y-3.2375
X10.4125Y-0.9
X10.6625Y-0.8
X3.6625Y-3.3375
X3.9125Y-3.2375
X6.6625Y-3.3375
X6.9125Y-3.2375
X8.1625Y-0.9
X8.4125Y-0.8
X14.4875Y-4.4625
X14.5875Y-4.7125
X11.2562Y-4.8375
X11.5062Y-4.7375
X8.5375Y-4.0875
X8.7875Y-3.9875
X4.225Y-2.5875
X4.475Y-2.4875
X1.975Y-2.5875
X2.225Y-2.4875
X13.0375Y-4.0875
X13.2875Y-3.9875
X0.85Y-0.9
X1.1Y-0.8
X16.225Y-4.8375
X16.475Y-4.7375
X14.5375Y-1.8375
X14.7875Y-1.7375
X13.0375Y-2.5875
X13.2875Y-2.4875
X13.7875Y-0.9
X14.0375Y-0.8
X3.2875Y-0.9
X3.5375Y-0.8
X7.225Y-2.5875
X7.475Y-2.4875
X10.3187Y-4.8375
X10.5687Y-4.7375
X4.7875Y-4.0875
X5.0375Y-3.9875
X7.7875Y-4.0875
X8.0375Y-3.9875
X6.1Y-1.8375
X6.35Y-1.7375
X1.1312Y-3.3375
X1.3812Y-3.2375
X2.1625Y-3.3375
X2.4125Y-3.2375
X9.3812Y-4.8375
X9.6312Y-4.7375
T2
G00X4.5438Y-0.6689
M15
G01X4.5438Y-0.7161
M16
G05
G00X4.5438Y-0.846
M15
G01X4.5438Y-0.8933
M16
G05
G00X4.8312Y-0.6689
M15
G01X4.8312Y-0.7161
M16
G05
G00X4.8312Y-0.846
M15
G01X4.8312Y-0.8933
M16
G05
T0
M30
