M48
; DRILL file {KiCad 5.1.2} date Tue Jun 11 14:53:20 2019
; FORMAT={-:-/ absolute / inch / decimal}
; #@! TF.CreationDate,2019-06-11T14:53:20+02:00
; #@! TF.GenerationSoftware,Kicad,Pcbnew,5.1.2
; #@! TF.FileFunction,NonPlated,1,2,NPTH
FMAT,2
INCH
T1C0.0689
T2C0.1200
T3C0.1570
%
G90
G05
T1
X16.175Y-4.1875
X16.575Y-4.1875
X3.9875Y-1.0
X4.3875Y-1.0
X16.925Y-3.4375
X17.325Y-3.4375
X1.925Y-2.6875
X2.325Y-2.6875
X5.675Y-2.6875
X6.075Y-2.6875
X7.925Y-2.6875
X8.325Y-2.6875
X10.175Y-2.6875
X10.575Y-2.6875
X2.675Y-2.6875
X3.075Y-2.6875
X0.8937Y-4.1875
X1.2937Y-4.1875
X6.8Y-1.9375
X7.2Y-1.9375
X2.4875Y-1.0
X2.8875Y-1.0
X14.4875Y-1.9375
X14.8875Y-1.9375
X12.9875Y-4.1875
X13.3875Y-4.1875
X1.7375Y-4.1875
X2.1375Y-4.1875
X2.7687Y-4.9375
X3.1687Y-4.9375
X15.425Y-4.9375
X15.825Y-4.9375
X12.9875Y-3.4375
X13.3875Y-3.4375
X5.5812Y-4.9375
X5.9813Y-4.9375
X4.55Y-1.9375
X4.95Y-1.9375
X10.2687Y-4.9375
X10.6687Y-4.9375
X3.8Y-1.9375
X4.2Y-1.9375
X3.2375Y-1.0
X3.6375Y-1.0
X6.2375Y-4.1875
X6.6375Y-4.1875
X2.1125Y-3.4375
X2.5125Y-3.4375
X1.55Y-1.9375
X1.95Y-1.9375
X14.6875Y-2.8625
X14.6875Y-3.2625
X11.2062Y-4.9375
X11.6062Y-4.9375
X9.3312Y-4.9375
X9.7312Y-4.9375
X8.675Y-2.6875
X9.075Y-2.6875
X8.1125Y-3.4375
X8.5125Y-3.4375
X10.3625Y-1.0
X10.7625Y-1.0
X8.1125Y-1.0
X8.5125Y-1.0
X0.8Y-1.9375
X1.2Y-1.9375
X8.4875Y-4.1875
X8.8875Y-4.1875
X11.2062Y-3.0625
X11.6062Y-3.0625
X3.6125Y-3.4375
X4.0125Y-3.4375
X0.9875Y-2.6875
X1.3875Y-2.6875
X6.425Y-1.0
X6.825Y-1.0
X6.9875Y-4.1875
X7.3875Y-4.1875
X3.9875Y-4.1875
X4.3875Y-4.1875
X12.2375Y-1.9375
X12.6375Y-1.9375
X2.8625Y-3.4375
X3.2625Y-3.4375
X12.9875Y-2.6875
X13.3875Y-2.6875
X7.3625Y-3.4375
X7.7625Y-3.4375
X12.6125Y-4.9375
X13.0125Y-4.9375
X2.3Y-1.9375
X2.7Y-1.9375
X16.925Y-4.9375
X17.325Y-4.9375
X16.175Y-3.4375
X16.575Y-3.4375
X12.2375Y-3.4375
X12.6375Y-3.4375
X13.7375Y-4.1875
X14.1375Y-4.1875
X8.3937Y-4.9375
X8.7937Y-4.9375
X16.925Y-4.1875
X17.325Y-4.1875
X3.05Y-1.9375
X3.45Y-1.9375
X9.8Y-1.9375
X10.2Y-1.9375
X12.2375Y-4.1875
X12.6375Y-4.1875
X10.6437Y-4.1875
X11.0437Y-4.1875
X9.2375Y-4.1875
X9.6375Y-4.1875
X13.7375Y-2.6875
X14.1375Y-2.6875
X4.175Y-2.6875
X4.575Y-2.6875
X0.8937Y-4.9375
X1.2937Y-4.9375
X13.7375Y-1.0
X14.1375Y-1.0
X10.3625Y-3.4375
X10.7625Y-3.4375
X6.05Y-1.9375
X6.45Y-1.9375
X4.925Y-1.0
X5.325Y-1.0
X12.9875Y-1.0
X13.3875Y-1.0
X14.4875Y-1.0
X14.8875Y-1.0
X13.7375Y-1.9375
X14.1375Y-1.9375
X7.175Y-2.6875
X7.575Y-2.6875
X7.175Y-1.0
X7.575Y-1.0
X1.0813Y-3.4375
X1.4812Y-3.4375
X4.7375Y-4.1875
X5.1375Y-4.1875
X9.6125Y-1.0
X10.0125Y-1.0
X4.925Y-2.6875
X5.325Y-2.6875
X3.2375Y-4.1875
X3.6375Y-4.1875
X15.425Y-4.1875
X15.825Y-4.1875
X9.05Y-1.9375
X9.45Y-1.9375
X11.3Y-1.0
X11.7Y-1.0
X6.6125Y-3.4375
X7.0125Y-3.4375
X5.4875Y-4.1875
X5.8875Y-4.1875
X9.425Y-2.6875
X9.825Y-2.6875
X9.6125Y-3.4375
X10.0125Y-3.4375
X10.925Y-1.9375
X11.325Y-1.9375
X1.8313Y-4.9375
X2.2312Y-4.9375
X4.3625Y-3.4375
X4.7625Y-3.4375
X14.6875Y-4.3625
X14.6875Y-4.7625
X13.7375Y-3.4375
X14.1375Y-3.4375
X12.2375Y-1.0
X12.6375Y-1.0
X5.3Y-1.9375
X5.7Y-1.9375
X7.7375Y-4.1875
X8.1375Y-4.1875
X2.4875Y-4.1875
X2.8875Y-4.1875
X1.7375Y-1.0
X2.1375Y-1.0
X5.675Y-1.0
X6.075Y-1.0
X6.425Y-2.6875
X6.825Y-2.6875
X5.1125Y-3.4375
X5.5125Y-3.4375
X7.55Y-1.9375
X7.95Y-1.9375
X12.2375Y-2.6875
X12.6375Y-2.6875
X16.175Y-4.9375
X16.575Y-4.9375
X13.7375Y-4.9375
X14.1375Y-4.9375
X8.8625Y-3.4375
X9.2625Y-3.4375
X8.8625Y-1.0
X9.2625Y-1.0
X3.425Y-2.6875
X3.825Y-2.6875
X8.3Y-1.9375
X8.7Y-1.9375
X0.8Y-1.0
X1.2Y-1.0
X12.9875Y-1.9375
X13.3875Y-1.9375
X15.425Y-3.4375
X15.825Y-3.4375
X5.8625Y-3.4375
X6.2625Y-3.4375
T2
X11.1312Y-2.5925
X11.1312Y-3.5325
X12.3438Y-4.6625
X13.2812Y-4.6625
X10.375Y-3.9125
X11.3125Y-3.9125
X10.6562Y-1.6625
X11.5938Y-1.6625
X14.4125Y-4.0938
X14.4125Y-5.0312
X3.8127Y-4.6625
X7.7497Y-4.6625
X14.4125Y-2.5938
X14.4125Y-3.5312
T3
X16.375Y-4.1875
X4.1875Y-1.0
X17.125Y-3.4375
X2.125Y-2.6875
X5.875Y-2.6875
X8.125Y-2.6875
X10.375Y-2.6875
X2.875Y-2.6875
X1.0938Y-4.1875
X7.0Y-1.9375
X2.6875Y-1.0
X14.6875Y-1.9375
X13.1875Y-4.1875
X1.9375Y-4.1875
X2.9688Y-4.9375
X15.625Y-4.9375
X13.1875Y-3.4375
X3.8127Y-5.2625
X5.7812Y-4.9375
X7.7497Y-5.2625
X4.75Y-1.9375
X10.4688Y-4.9375
X4.0Y-1.9375
X3.4375Y-1.0
X6.4375Y-4.1875
X2.3125Y-3.4375
X1.75Y-1.9375
X14.6875Y-3.0625
X15.0125Y-2.5938
X15.0125Y-3.5312
X11.4062Y-4.9375
X9.5312Y-4.9375
X8.875Y-2.6875
X8.3125Y-3.4375
X10.5625Y-1.0
X8.3125Y-1.0
X1.0Y-1.9375
X8.6875Y-4.1875
X11.4062Y-3.0625
X11.7312Y-2.5925
X11.7312Y-3.5325
X3.8125Y-3.4375
X1.1875Y-2.6875
X6.625Y-1.0
X7.1875Y-4.1875
X4.1875Y-4.1875
X12.4375Y-1.9375
X3.0625Y-3.4375
X13.1875Y-2.6875
X7.5625Y-3.4375
X12.3438Y-5.2625
X12.8125Y-4.9375
X13.2812Y-5.2625
X2.5Y-1.9375
X17.125Y-4.9375
X16.375Y-3.4375
X12.4375Y-3.4375
X13.9375Y-4.1875
X8.5938Y-4.9375
X17.125Y-4.1875
X3.25Y-1.9375
X10.0Y-1.9375
X12.4375Y-4.1875
X10.375Y-4.5125
X10.8438Y-4.1875
X11.3125Y-4.5125
X9.4375Y-4.1875
X13.9375Y-2.6875
X4.375Y-2.6875
X1.0938Y-4.9375
X13.9375Y-1.0
X10.5625Y-3.4375
X6.25Y-1.9375
X5.125Y-1.0
X13.1875Y-1.0
X14.6875Y-1.0
X13.9375Y-1.9375
X7.375Y-2.6875
X7.375Y-1.0
X1.2812Y-3.4375
X4.9375Y-4.1875
X9.8125Y-1.0
X5.125Y-2.6875
X3.4375Y-4.1875
X15.625Y-4.1875
X9.25Y-1.9375
X11.5Y-1.0
X6.8125Y-3.4375
X5.6875Y-4.1875
X9.625Y-2.6875
X9.8125Y-3.4375
X10.6562Y-2.2625
X11.125Y-1.9375
X11.5938Y-2.2625
X2.0312Y-4.9375
X4.5625Y-3.4375
X14.6875Y-4.5625
X15.0125Y-4.0938
X15.0125Y-5.0312
X13.9375Y-3.4375
X12.4375Y-1.0
X5.5Y-1.9375
X7.9375Y-4.1875
X2.6875Y-4.1875
X1.9375Y-1.0
X5.875Y-1.0
X6.625Y-2.6875
X5.3125Y-3.4375
X7.75Y-1.9375
X12.4375Y-2.6875
X16.375Y-4.9375
X13.9375Y-4.9375
X9.0625Y-3.4375
X9.0625Y-1.0
X3.625Y-2.6875
X8.5Y-1.9375
X1.0Y-1.0
X13.1875Y-1.9375
X15.625Y-3.4375
X6.0625Y-3.4375
T0
M30
