G04 #@! TF.GenerationSoftware,KiCad,Pcbnew,5.1.2*
G04 #@! TF.CreationDate,2019-06-11T16:01:49+02:00*
G04 #@! TF.ProjectId,keyboard_layout_jopr,6b657962-6f61-4726-945f-6c61796f7574,rev?*
G04 #@! TF.SameCoordinates,Original*
G04 #@! TF.FileFunction,Copper,L1,Top*
G04 #@! TF.FilePolarity,Positive*
%FSLAX46Y46*%
G04 Gerber Fmt 4.6, Leading zero omitted, Abs format (unit mm)*
G04 Created by KiCad (PCBNEW 5.1.2) date 2019-06-11 16:01:49*
%MOMM*%
%LPD*%
G04 APERTURE LIST*
%ADD10R,1.905000X1.905000*%
%ADD11C,1.905000*%
%ADD12C,2.250000*%
%ADD13O,1.700000X2.700000*%
%ADD14C,0.800000*%
%ADD15C,0.381000*%
%ADD16C,0.254000*%
G04 APERTURE END LIST*
D10*
X352742500Y-30480000D03*
D11*
X355282500Y-30480000D03*
D12*
X350202500Y-22860000D03*
X356552500Y-20320000D03*
D10*
X333692500Y-30480000D03*
D11*
X336232500Y-30480000D03*
D12*
X331152500Y-22860000D03*
X337502500Y-20320000D03*
D10*
X314642500Y-30480000D03*
D11*
X317182500Y-30480000D03*
D12*
X312102500Y-22860000D03*
X318452500Y-20320000D03*
X220821250Y-120332500D03*
X214471250Y-122872500D03*
X149383750Y-120332500D03*
X143033750Y-122872500D03*
X270827500Y-82232500D03*
X264477500Y-84772500D03*
X277971250Y-101282500D03*
X271621250Y-103822500D03*
X367982500Y-113347500D03*
X370522500Y-119697500D03*
X268446250Y-120332500D03*
X262096250Y-122872500D03*
X285908750Y-75247500D03*
X292258750Y-72707500D03*
X437515000Y-120332500D03*
X431165000Y-122872500D03*
X418465000Y-101282500D03*
X412115000Y-103822500D03*
X437515000Y-101282500D03*
X431165000Y-103822500D03*
X418465000Y-82232500D03*
X412115000Y-84772500D03*
X437515000Y-82232500D03*
X431165000Y-84772500D03*
X418465000Y-120332500D03*
X412115000Y-122872500D03*
X399415000Y-101282500D03*
X393065000Y-103822500D03*
X399415000Y-82232500D03*
X393065000Y-84772500D03*
X367982500Y-75247500D03*
X370522500Y-81597500D03*
X375602500Y-44132500D03*
X369252500Y-46672500D03*
X375602500Y-20320000D03*
X369252500Y-22860000D03*
X399415000Y-120332500D03*
X393065000Y-122872500D03*
X356552500Y-82232500D03*
X350202500Y-84772500D03*
X356552500Y-63182500D03*
X350202500Y-65722500D03*
X356552500Y-44132500D03*
X350202500Y-46672500D03*
X356552500Y-120332500D03*
X350202500Y-122872500D03*
X356552500Y-101282500D03*
X350202500Y-103822500D03*
X337502500Y-82232500D03*
X331152500Y-84772500D03*
X337502500Y-63182500D03*
X331152500Y-65722500D03*
X337502500Y-44132500D03*
X331152500Y-46672500D03*
X337502500Y-101282500D03*
X331152500Y-103822500D03*
X318452500Y-82232500D03*
X312102500Y-84772500D03*
X318452500Y-63182500D03*
X312102500Y-65722500D03*
X318452500Y-44132500D03*
X312102500Y-46672500D03*
X327977500Y-120332500D03*
X321627500Y-122872500D03*
X318452500Y-101282500D03*
X312102500Y-103822500D03*
X285115000Y-44132500D03*
X278765000Y-46672500D03*
X294640000Y-20320000D03*
X288290000Y-22860000D03*
X292258750Y-120332500D03*
X285908750Y-122872500D03*
X266065000Y-63182500D03*
X259715000Y-65722500D03*
X256540000Y-44132500D03*
X250190000Y-46672500D03*
X270827500Y-20320000D03*
X264477500Y-22860000D03*
X242252500Y-101282500D03*
X235902500Y-103822500D03*
X251777500Y-82232500D03*
X245427500Y-84772500D03*
X247015000Y-63182500D03*
X240665000Y-65722500D03*
X237490000Y-44132500D03*
X231140000Y-46672500D03*
X251777500Y-20320000D03*
X245427500Y-22860000D03*
X244633750Y-120332500D03*
X238283750Y-122872500D03*
X223202500Y-101282500D03*
X216852500Y-103822500D03*
X232727500Y-82232500D03*
X226377500Y-84772500D03*
X227965000Y-63182500D03*
X221615000Y-65722500D03*
X218440000Y-44132500D03*
X212090000Y-46672500D03*
X232727500Y-20320000D03*
X226377500Y-22860000D03*
X204152500Y-101282500D03*
X197802500Y-103822500D03*
X213677500Y-82232500D03*
X207327500Y-84772500D03*
X208915000Y-63182500D03*
X202565000Y-65722500D03*
X199390000Y-44132500D03*
X193040000Y-46672500D03*
X213677500Y-20320000D03*
X207327500Y-22860000D03*
X185102500Y-101282500D03*
X178752500Y-103822500D03*
X194627500Y-82232500D03*
X188277500Y-84772500D03*
X189865000Y-63182500D03*
X183515000Y-65722500D03*
X180340000Y-44132500D03*
X173990000Y-46672500D03*
X189865000Y-20320000D03*
X183515000Y-22860000D03*
X166052500Y-101282500D03*
X159702500Y-103822500D03*
X175577500Y-82232500D03*
X169227500Y-84772500D03*
X170815000Y-63182500D03*
X164465000Y-65722500D03*
X161290000Y-44132500D03*
X154940000Y-46672500D03*
X170815000Y-20320000D03*
X164465000Y-22860000D03*
X147002500Y-101282500D03*
X140652500Y-103822500D03*
X156527500Y-82232500D03*
X150177500Y-84772500D03*
X151765000Y-63182500D03*
X145415000Y-65722500D03*
X142240000Y-44132500D03*
X135890000Y-46672500D03*
X151765000Y-20320000D03*
X145415000Y-22860000D03*
X127952500Y-101282500D03*
X121602500Y-103822500D03*
X137477500Y-82232500D03*
X131127500Y-84772500D03*
X132715000Y-63182500D03*
X126365000Y-65722500D03*
X123190000Y-44132500D03*
X116840000Y-46672500D03*
X132715000Y-20320000D03*
X126365000Y-22860000D03*
X108902500Y-101282500D03*
X102552500Y-103822500D03*
X118427500Y-82232500D03*
X112077500Y-84772500D03*
X113665000Y-63182500D03*
X107315000Y-65722500D03*
X104140000Y-44132500D03*
X97790000Y-46672500D03*
X108902500Y-20320000D03*
X102552500Y-22860000D03*
X89852500Y-101282500D03*
X83502500Y-103822500D03*
X99377500Y-82232500D03*
X93027500Y-84772500D03*
X94615000Y-63182500D03*
X88265000Y-65722500D03*
X85090000Y-44132500D03*
X78740000Y-46672500D03*
X89852500Y-20320000D03*
X83502500Y-22860000D03*
X77946250Y-120332500D03*
X71596250Y-122872500D03*
X70802500Y-101282500D03*
X64452500Y-103822500D03*
X80327500Y-82232500D03*
X73977500Y-84772500D03*
X75565000Y-63182500D03*
X69215000Y-65722500D03*
X59690000Y-46672500D03*
X66040000Y-44132500D03*
X70802500Y-20320000D03*
X64452500Y-22860000D03*
X54133750Y-120332500D03*
X47783750Y-122872500D03*
X51752500Y-101282500D03*
X45402500Y-103822500D03*
X61277500Y-82232500D03*
X54927500Y-84772500D03*
X56515000Y-63182500D03*
X50165000Y-65722500D03*
X46990000Y-44132500D03*
X40640000Y-46672500D03*
X51752500Y-20320000D03*
X45402500Y-22860000D03*
X30321250Y-120332500D03*
X23971250Y-122872500D03*
X30321250Y-101282500D03*
X23971250Y-103822500D03*
X35083750Y-82232500D03*
X28733750Y-84772500D03*
X32702500Y-63182500D03*
X26352500Y-65722500D03*
X27940000Y-44132500D03*
X21590000Y-46672500D03*
X27940000Y-20320000D03*
X21590000Y-22860000D03*
D13*
X115412500Y-17589500D03*
X122712500Y-17589500D03*
X122712500Y-22089500D03*
X115412500Y-22089500D03*
D14*
X128524000Y-32385000D03*
X128524000Y-36068000D03*
X120650000Y-24511000D03*
X120650000Y-28575000D03*
X405511000Y-37592000D03*
X405511000Y-21717000D03*
X395859000Y-54356000D03*
X396875000Y-51308000D03*
X395859000Y-47498000D03*
X352806000Y-36068000D03*
X333756000Y-36068000D03*
X314706000Y-36068000D03*
X382905000Y-33655000D03*
X382856500Y-52783500D03*
X402469067Y-39871933D03*
X402844000Y-46990000D03*
X403118814Y-52783500D03*
X417449000Y-56642000D03*
X421132000Y-44958000D03*
X402844000Y-51054000D03*
X115570000Y-29845000D03*
X124587000Y-29845000D03*
X365506000Y-61722000D03*
X365506000Y-40513000D03*
X217043000Y-40005000D03*
X217043000Y-29845000D03*
X429133000Y-80010000D03*
X429133000Y-39751000D03*
X387096000Y-61722000D03*
X387096000Y-78613000D03*
X353187000Y-63119000D03*
X353187000Y-56896000D03*
X234170155Y-57820000D03*
X234188000Y-55083000D03*
X423028382Y-46626606D03*
X406427250Y-79375000D03*
X386369000Y-68961000D03*
X386455814Y-79381223D03*
X372237000Y-97917000D03*
X372110000Y-85471000D03*
X364490000Y-85471000D03*
X364871000Y-78486000D03*
X298450000Y-77724000D03*
X298450000Y-80553000D03*
X280162000Y-80518000D03*
X280162000Y-75057000D03*
X427257210Y-40920979D03*
X425577000Y-98044000D03*
X361384567Y-108423000D03*
X361315000Y-95758000D03*
X219202000Y-95596000D03*
X219837000Y-92583000D03*
X424030900Y-46600989D03*
X424053000Y-111125000D03*
X225298000Y-111633000D03*
X225298000Y-117602000D03*
X304165000Y-117983000D03*
X304165000Y-129286000D03*
X429860000Y-41656000D03*
X438150000Y-115697000D03*
X427482000Y-115697000D03*
X427482000Y-131572000D03*
X423926000Y-132207000D03*
X423926000Y-129794000D03*
X425196000Y-42545000D03*
X85598000Y-125349000D03*
X273939000Y-124079000D03*
X406908000Y-125222000D03*
X436118000Y-131826000D03*
X211963000Y-56642000D03*
X23241000Y-56642000D03*
X395097000Y-43561000D03*
X383921000Y-32639000D03*
X222250000Y-32639000D03*
X231394000Y-57150000D03*
X50165000Y-57531000D03*
X394239505Y-44075497D03*
X383927067Y-49015933D03*
X236251750Y-41560750D03*
X250317000Y-56515000D03*
X69088000Y-55915000D03*
X393287495Y-45247000D03*
X384683000Y-60325000D03*
X274955000Y-69723000D03*
X272542000Y-84709000D03*
X110617000Y-122809000D03*
X285930990Y-54556010D03*
X279453990Y-54556010D03*
X286258000Y-83439000D03*
X89789000Y-77724000D03*
X392430000Y-45974000D03*
X385445000Y-54610000D03*
X311785000Y-61214000D03*
X302387000Y-116205000D03*
X289052000Y-118364000D03*
X412623000Y-57912000D03*
X403065238Y-77886000D03*
X385572000Y-77851000D03*
X385572000Y-84455000D03*
X330835000Y-80137000D03*
X331724000Y-42164000D03*
X350012000Y-79121000D03*
X146177000Y-78740000D03*
X411745457Y-57432500D03*
X403853933Y-75050933D03*
X370586000Y-94869000D03*
X165608000Y-94869000D03*
X421230898Y-48752000D03*
X404519239Y-80102000D03*
X393065000Y-80137000D03*
X184531000Y-98425000D03*
X421005000Y-51054000D03*
X405257000Y-97028000D03*
X312293000Y-97120000D03*
X393700000Y-117856000D03*
X351409000Y-117094000D03*
X204343000Y-95596000D03*
X422155380Y-48040723D03*
X406562000Y-98933000D03*
X331089000Y-96393000D03*
X428238571Y-40466969D03*
X428307500Y-84772500D03*
X119859500Y-27089009D03*
X119859500Y-25400000D03*
X299847000Y-125095000D03*
X335534000Y-125222000D03*
X361950000Y-124079000D03*
X290068000Y-87122000D03*
X363912433Y-68141567D03*
X285623000Y-106172000D03*
X250063000Y-106045000D03*
X230632000Y-106045000D03*
X323977000Y-85852000D03*
X356997000Y-110998000D03*
X345186000Y-106172000D03*
X410337000Y-59309000D03*
X405949433Y-69846001D03*
X326009000Y-109601000D03*
X326009000Y-31623000D03*
X423106961Y-47733319D03*
X407289000Y-109728000D03*
X292100000Y-109601000D03*
X289306000Y-54483000D03*
X361950000Y-109347000D03*
X374396000Y-107315000D03*
X377444000Y-53721000D03*
X363474000Y-130302000D03*
X421732000Y-51761108D03*
X411773085Y-69998870D03*
X377571000Y-70300011D03*
X280670000Y-82169000D03*
X285877000Y-90551000D03*
X258699000Y-74041000D03*
X258699000Y-109601000D03*
X335915000Y-128524000D03*
X340106000Y-114173000D03*
X342900000Y-74803000D03*
X304165000Y-73533000D03*
X304165000Y-81153000D03*
X277114000Y-81280000D03*
X277114000Y-73152000D03*
X421801455Y-49747007D03*
X411387010Y-71027011D03*
X364490000Y-70993000D03*
X360807000Y-73533000D03*
X231902000Y-92583000D03*
X231902000Y-109601000D03*
X275844000Y-128905000D03*
X267335000Y-93599000D03*
X346329000Y-109601000D03*
X346329000Y-93472000D03*
X411018457Y-58192005D03*
X404241000Y-93472000D03*
X368681000Y-69688000D03*
X368554000Y-63373000D03*
X361442000Y-63373000D03*
X361442000Y-59598000D03*
X319786000Y-59563000D03*
X409514750Y-58039000D03*
X407035000Y-68072000D03*
X339090000Y-61214000D03*
X408686000Y-59436000D03*
X408238683Y-65846683D03*
X383667000Y-62738000D03*
X383667000Y-59055000D03*
X356997000Y-55499000D03*
D15*
X128524000Y-32385000D02*
X128524000Y-36068000D01*
X120650000Y-24511000D02*
X120650000Y-28575000D01*
X405511000Y-37592000D02*
X405511000Y-27432000D01*
X405511000Y-27432000D02*
X405511000Y-24892000D01*
X405511000Y-24892000D02*
X405511000Y-21717000D01*
X395859000Y-54356000D02*
X395859000Y-53790315D01*
X395859000Y-53790315D02*
X395859000Y-52578000D01*
X395859000Y-52324000D02*
X396875000Y-51308000D01*
X395859000Y-52324000D02*
X395859000Y-47498000D01*
X395859000Y-52578000D02*
X395859000Y-52324000D01*
X352742500Y-30480000D02*
X352742500Y-36004500D01*
X352742500Y-36004500D02*
X352806000Y-36068000D01*
X333692500Y-36004500D02*
X333756000Y-36068000D01*
X333692500Y-30480000D02*
X333692500Y-36004500D01*
X314642500Y-36004500D02*
X314706000Y-36068000D01*
X314642500Y-30480000D02*
X314642500Y-36004500D01*
X382905000Y-33655000D02*
X382905000Y-52735000D01*
X382905000Y-52735000D02*
X382856500Y-52783500D01*
X402844000Y-46228000D02*
X402844000Y-46990000D01*
X402469067Y-45853067D02*
X402844000Y-46228000D01*
X402469067Y-39871933D02*
X402469067Y-45853067D01*
X402844000Y-52508686D02*
X403118814Y-52783500D01*
X403118814Y-52783500D02*
X403118814Y-53995814D01*
X403118814Y-53995814D02*
X405765000Y-56642000D01*
X405765000Y-56642000D02*
X417449000Y-56642000D01*
X417449000Y-56642000D02*
X417449000Y-48641000D01*
X417449000Y-48641000D02*
X421132000Y-44958000D01*
X402844000Y-46990000D02*
X402844000Y-51054000D01*
X402844000Y-51054000D02*
X402844000Y-52508686D01*
D16*
X119634000Y-29845000D02*
X124587000Y-29845000D01*
X119634000Y-29845000D02*
X121793000Y-29845000D01*
X115570000Y-29845000D02*
X119634000Y-29845000D01*
X365506000Y-61722000D02*
X365506000Y-40513000D01*
X217043000Y-40005000D02*
X217043000Y-29845000D01*
X429133000Y-80010000D02*
X429133000Y-79444315D01*
X429133000Y-79444315D02*
X429133000Y-39751000D01*
X429133000Y-39751000D02*
X429006000Y-39751000D01*
X387096000Y-61722000D02*
X387096000Y-78613000D01*
X353187000Y-63119000D02*
X353187000Y-56896000D01*
X234170155Y-57820000D02*
X234170155Y-55100845D01*
X234170155Y-55100845D02*
X234188000Y-55083000D01*
X423729060Y-62073190D02*
X406427250Y-79375000D01*
X423729060Y-53408278D02*
X423729060Y-62073190D01*
X424275041Y-47873265D02*
X424275041Y-52862297D01*
X424275041Y-52862297D02*
X423729060Y-53408278D01*
X423028382Y-46626606D02*
X424275041Y-47873265D01*
X386368999Y-78961961D02*
X386369000Y-78648000D01*
X386369000Y-78648000D02*
X386369000Y-68961000D01*
X386455814Y-79381223D02*
X386455814Y-79048776D01*
X386455814Y-79048776D02*
X386368999Y-78961961D01*
X372237000Y-97917000D02*
X372237000Y-85598000D01*
X372237000Y-85598000D02*
X372110000Y-85471000D01*
X364490000Y-85471000D02*
X364490000Y-78867000D01*
X364490000Y-78867000D02*
X364871000Y-78486000D01*
X298450000Y-77724000D02*
X298450000Y-80553000D01*
X280162000Y-80518000D02*
X280162000Y-75057000D01*
X427257210Y-96363790D02*
X425577000Y-98044000D01*
X427257210Y-40920979D02*
X427257210Y-96363790D01*
X361384567Y-108423000D02*
X361384567Y-95827567D01*
X361384567Y-95827567D02*
X361315000Y-95758000D01*
X219202000Y-95596000D02*
X219837000Y-94961000D01*
X219837000Y-94961000D02*
X219837000Y-92583000D01*
X424729051Y-47299140D02*
X424729051Y-47685208D01*
X424030900Y-46600989D02*
X424729051Y-47299140D01*
X424729051Y-53050354D02*
X424183070Y-53596335D01*
X424729051Y-47685208D02*
X424729051Y-53050354D01*
X424183070Y-53596335D02*
X424183070Y-53848000D01*
X424183070Y-53848000D02*
X424183070Y-102485930D01*
X424183070Y-102485930D02*
X424183070Y-110994930D01*
X424183070Y-110994930D02*
X424053000Y-111125000D01*
X225298000Y-111633000D02*
X225298000Y-117602000D01*
X304165000Y-117983000D02*
X304165000Y-129286000D01*
X436499000Y-84709000D02*
X437769000Y-84709000D01*
X429860000Y-41656000D02*
X429860000Y-78070000D01*
X437769000Y-84709000D02*
X438023000Y-84963000D01*
X438023000Y-84963000D02*
X438023000Y-98933000D01*
X429860000Y-78070000D02*
X436499000Y-84709000D01*
X439420000Y-100330000D02*
X439420000Y-103759000D01*
X438023000Y-98933000D02*
X439420000Y-100330000D01*
X439420000Y-103759000D02*
X438150000Y-105029000D01*
X438150000Y-105029000D02*
X438150000Y-115697000D01*
X427482000Y-115697000D02*
X427482000Y-131572000D01*
X424757998Y-130683000D02*
X423926000Y-130683000D01*
X424849999Y-130590999D02*
X424757998Y-130683000D01*
X423926000Y-130683000D02*
X423926000Y-129794000D01*
X425196000Y-42545000D02*
X425831000Y-43180000D01*
X424849999Y-89119001D02*
X424849999Y-130590999D01*
X423926000Y-132207000D02*
X423926000Y-130683000D01*
X425831000Y-43180000D02*
X425831000Y-88138000D01*
X425831000Y-88138000D02*
X424849999Y-89119001D01*
X77906250Y-120912500D02*
X81161500Y-120912500D01*
X81161500Y-120912500D02*
X85598000Y-125349000D01*
X268446250Y-120332500D02*
X270192500Y-120332500D01*
X270192500Y-120332500D02*
X273939000Y-124079000D01*
X399415000Y-120332500D02*
X402018500Y-120332500D01*
X402018500Y-120332500D02*
X406908000Y-125222000D01*
X437515000Y-120332500D02*
X437515000Y-121412000D01*
X437515000Y-121412000D02*
X438150000Y-122047000D01*
X438150000Y-122047000D02*
X438150000Y-129794000D01*
X438150000Y-129794000D02*
X436118000Y-131826000D01*
X21590000Y-42672000D02*
X21590000Y-46672500D01*
X22225000Y-42037000D02*
X21590000Y-42672000D01*
X22225000Y-24257000D02*
X22225000Y-42037000D01*
X21590000Y-22860000D02*
X21590000Y-23622000D01*
X21590000Y-23622000D02*
X22225000Y-24257000D01*
X22479000Y-61849000D02*
X26352500Y-65722500D01*
X21590000Y-46672500D02*
X21590000Y-47498000D01*
X21590000Y-47498000D02*
X22479000Y-48387000D01*
X26352500Y-65722500D02*
X26352500Y-66738500D01*
X26352500Y-66738500D02*
X27051000Y-67437000D01*
X28733750Y-82073750D02*
X28733750Y-84772500D01*
X27051000Y-80391000D02*
X28733750Y-82073750D01*
X27051000Y-80264000D02*
X27051000Y-81788000D01*
X27051000Y-80264000D02*
X27051000Y-80391000D01*
X27051000Y-67437000D02*
X27051000Y-80264000D01*
X27051000Y-81788000D02*
X23622000Y-85217000D01*
X23622000Y-103473250D02*
X23971250Y-103822500D01*
X23622000Y-85217000D02*
X23622000Y-103473250D01*
X24765000Y-105283000D02*
X23971250Y-104489250D01*
X23971250Y-104489250D02*
X23971250Y-103822500D01*
X24765000Y-120487760D02*
X24765000Y-105283000D01*
X23971250Y-121281510D02*
X24765000Y-120487760D01*
X23971250Y-122872500D02*
X23971250Y-121281510D01*
X226377500Y-22860000D02*
X224282000Y-22860000D01*
X224282000Y-22860000D02*
X222250000Y-24892000D01*
X222250000Y-36512500D02*
X212090000Y-46672500D01*
X212090000Y-46672500D02*
X212090000Y-47371000D01*
X212090000Y-47371000D02*
X212598000Y-47879000D01*
X212598000Y-47879000D02*
X212598000Y-56705500D01*
X221615000Y-65722500D02*
X221615000Y-66675000D01*
X221615000Y-66675000D02*
X222123000Y-67183000D01*
X222123000Y-80518000D02*
X226377500Y-84772500D01*
X222123000Y-67183000D02*
X222123000Y-80518000D01*
X215296750Y-59404250D02*
X221615000Y-65722500D01*
X212598000Y-56705500D02*
X215296750Y-59404250D01*
X212598000Y-56705500D02*
X212026500Y-56705500D01*
X212026500Y-56705500D02*
X211963000Y-56642000D01*
X22548315Y-56769000D02*
X22479000Y-56769000D01*
X22675315Y-56642000D02*
X22548315Y-56769000D01*
X23241000Y-56642000D02*
X22675315Y-56642000D01*
X22479000Y-48387000D02*
X22479000Y-56769000D01*
X22479000Y-56769000D02*
X22479000Y-61849000D01*
X394697001Y-43161001D02*
X388892999Y-43161001D01*
X395097000Y-43561000D02*
X394697001Y-43161001D01*
X388892999Y-43161001D02*
X383939999Y-43161001D01*
X383939999Y-43161001D02*
X383921000Y-43142002D01*
X383921000Y-43142002D02*
X383921000Y-32639000D01*
X222250000Y-24892000D02*
X222250000Y-32639000D01*
X222250000Y-32639000D02*
X222250000Y-36512500D01*
X40640000Y-46672500D02*
X40640000Y-47625000D01*
X40640000Y-47625000D02*
X41275000Y-48260000D01*
X41275000Y-56832500D02*
X50165000Y-65722500D01*
X41275000Y-48260000D02*
X41275000Y-56832500D01*
X50927000Y-80772000D02*
X54927500Y-84772500D01*
X50927000Y-67310000D02*
X50927000Y-80772000D01*
X50165000Y-65722500D02*
X50165000Y-66548000D01*
X50165000Y-66548000D02*
X50927000Y-67310000D01*
X45402500Y-103822500D02*
X45402500Y-104584500D01*
X45402500Y-104584500D02*
X45974000Y-105156000D01*
X45974000Y-121062750D02*
X47783750Y-122872500D01*
X45974000Y-105156000D02*
X45974000Y-121062750D01*
X50927000Y-98298000D02*
X50927000Y-97504250D01*
X45402500Y-103822500D02*
X50927000Y-98298000D01*
X50927000Y-80772000D02*
X50927000Y-97504250D01*
X41624250Y-45688250D02*
X40640000Y-46672500D01*
X46228000Y-41084500D02*
X41624250Y-45688250D01*
X46228000Y-24384000D02*
X46228000Y-41084500D01*
X45402500Y-23558500D02*
X46228000Y-24384000D01*
X45402500Y-22860000D02*
X45402500Y-23558500D01*
X245427500Y-22860000D02*
X242824000Y-22860000D01*
X242824000Y-22860000D02*
X241300000Y-24384000D01*
X241300000Y-24384000D02*
X241300000Y-36512500D01*
X231140000Y-46672500D02*
X231140000Y-47498000D01*
X231140000Y-47498000D02*
X231775000Y-48133000D01*
X231775000Y-48133000D02*
X231775000Y-56832500D01*
X240665000Y-65722500D02*
X240665000Y-66675000D01*
X240665000Y-66675000D02*
X241173000Y-67183000D01*
X241173000Y-80518000D02*
X245427500Y-84772500D01*
X241173000Y-67183000D02*
X241173000Y-80518000D01*
X233902250Y-58959750D02*
X240665000Y-65722500D01*
X231775000Y-56832500D02*
X233902250Y-58959750D01*
X231775000Y-56832500D02*
X231711500Y-56832500D01*
X231711500Y-56832500D02*
X231394000Y-57150000D01*
X50165000Y-57531000D02*
X50165000Y-65722500D01*
X393673820Y-44075497D02*
X393667323Y-44069000D01*
X394239505Y-44075497D02*
X393673820Y-44075497D01*
X393667323Y-44069000D02*
X389001000Y-44069000D01*
X389001000Y-44069000D02*
X388874000Y-44069000D01*
X388874000Y-44069000D02*
X383927067Y-49015933D01*
X241300000Y-36512500D02*
X236251750Y-41560750D01*
X236251750Y-41560750D02*
X231140000Y-46672500D01*
X65151000Y-116427250D02*
X71596250Y-122872500D01*
X65151000Y-105791000D02*
X65151000Y-116427250D01*
X64452500Y-103822500D02*
X64452500Y-105092500D01*
X64452500Y-105092500D02*
X65151000Y-105791000D01*
X64452500Y-22860000D02*
X64452500Y-23939500D01*
X64452500Y-23939500D02*
X65151000Y-24638000D01*
X59690000Y-46522500D02*
X59690000Y-46672500D01*
X65151000Y-41061500D02*
X59690000Y-46522500D01*
X65151000Y-24638000D02*
X65151000Y-41061500D01*
X59690000Y-46672500D02*
X59690000Y-47752000D01*
X59690000Y-47752000D02*
X60198000Y-48260000D01*
X60198000Y-48260000D02*
X60198000Y-57785000D01*
X61277500Y-57785000D02*
X69215000Y-65722500D01*
X69977000Y-67564000D02*
X69977000Y-80772000D01*
X69215000Y-65722500D02*
X69215000Y-66802000D01*
X69215000Y-66802000D02*
X69977000Y-67564000D01*
X71628000Y-82423000D02*
X73977500Y-84772500D01*
X69977000Y-80772000D02*
X71628000Y-82423000D01*
X69723000Y-98552000D02*
X64452500Y-103822500D01*
X69723000Y-86487000D02*
X69723000Y-98552000D01*
X71628000Y-84582000D02*
X69723000Y-86487000D01*
X71628000Y-82423000D02*
X71628000Y-84582000D01*
X60198000Y-57785000D02*
X60960000Y-57785000D01*
X60960000Y-57785000D02*
X61277500Y-57785000D01*
X264477500Y-22860000D02*
X262509000Y-22860000D01*
X262509000Y-22860000D02*
X260350000Y-25019000D01*
X260350000Y-36512500D02*
X250190000Y-46672500D01*
X260350000Y-25019000D02*
X260350000Y-36512500D01*
X250190000Y-46672500D02*
X250190000Y-47371000D01*
X250190000Y-47371000D02*
X250825000Y-48006000D01*
X250825000Y-56832500D02*
X259715000Y-65722500D01*
X250825000Y-48006000D02*
X250825000Y-56832500D01*
X259715000Y-65722500D02*
X259715000Y-66675000D01*
X259715000Y-66675000D02*
X260223000Y-67183000D01*
X260223000Y-80518000D02*
X264477500Y-84772500D01*
X260223000Y-67183000D02*
X260223000Y-80518000D01*
X250825000Y-56832500D02*
X250634500Y-56832500D01*
X250634500Y-56832500D02*
X250317000Y-56515000D01*
X69088000Y-65595500D02*
X69215000Y-65722500D01*
X69088000Y-55915000D02*
X69088000Y-65595500D01*
X393287495Y-45247000D02*
X388909000Y-45247000D01*
X384717999Y-55317107D02*
X384737892Y-55337000D01*
X384717999Y-49360934D02*
X384717999Y-55317107D01*
X388909000Y-45247000D02*
X388831933Y-45247000D01*
X388831933Y-45247000D02*
X384717999Y-49360934D01*
X384717999Y-55317107D02*
X384717999Y-60290001D01*
X384717999Y-60290001D02*
X384683000Y-60325000D01*
X274955000Y-69723000D02*
X274955000Y-82296000D01*
X274955000Y-82296000D02*
X272542000Y-84709000D01*
X83502500Y-103672500D02*
X83502500Y-103822500D01*
X88265000Y-66802000D02*
X89154000Y-67691000D01*
X88265000Y-65722500D02*
X88265000Y-66802000D01*
X89154000Y-83947000D02*
X90360500Y-85153500D01*
X90360500Y-85153500D02*
X89027000Y-86487000D01*
X89027000Y-86487000D02*
X89027000Y-98148000D01*
X92646500Y-85153500D02*
X93027500Y-84772500D01*
X90360500Y-85153500D02*
X92646500Y-85153500D01*
X79502000Y-56959500D02*
X88265000Y-65722500D01*
X79502000Y-48514000D02*
X79502000Y-56959500D01*
X78740000Y-46672500D02*
X78740000Y-47752000D01*
X78740000Y-47752000D02*
X79502000Y-48514000D01*
X84201000Y-41211500D02*
X79851250Y-45561250D01*
X79851250Y-45561250D02*
X78740000Y-46672500D01*
X84201000Y-23558500D02*
X84201000Y-41211500D01*
X83502500Y-22860000D02*
X84201000Y-23558500D01*
X85205500Y-101969500D02*
X83502500Y-103672500D01*
X89027000Y-98148000D02*
X85205500Y-101969500D01*
X143221807Y-123326510D02*
X143354784Y-123193533D01*
X89027000Y-98148000D02*
X90909000Y-98148000D01*
X90909000Y-98148000D02*
X98171000Y-105410000D01*
X98171000Y-105410000D02*
X98171000Y-110363000D01*
X98171000Y-110363000D02*
X110617000Y-122809000D01*
X279908000Y-45529500D02*
X278765000Y-46672500D01*
X282194000Y-40259000D02*
X279908000Y-42545000D01*
X282194000Y-24765000D02*
X282194000Y-40259000D01*
X288290000Y-22860000D02*
X284099000Y-22860000D01*
X279908000Y-42545000D02*
X279908000Y-45529500D01*
X284099000Y-22860000D02*
X282194000Y-24765000D01*
X285930990Y-75225260D02*
X285908750Y-75247500D01*
X285930990Y-54556010D02*
X285930990Y-75225260D01*
X278765000Y-46672500D02*
X278765000Y-47498000D01*
X278765000Y-47498000D02*
X279400000Y-48133000D01*
X279400000Y-48133000D02*
X279400000Y-54502020D01*
X279400000Y-54502020D02*
X279453990Y-54556010D01*
X285908750Y-75247500D02*
X285908750Y-75977750D01*
X285908750Y-75977750D02*
X286258000Y-76327000D01*
X286258000Y-76327000D02*
X286258000Y-83439000D01*
X89789000Y-77724000D02*
X89281000Y-77724000D01*
X89281000Y-77724000D02*
X89154000Y-77597000D01*
X89154000Y-67691000D02*
X89154000Y-77597000D01*
X89154000Y-77597000D02*
X89154000Y-83947000D01*
X391033000Y-45974000D02*
X388747000Y-45974000D01*
X391033000Y-45974000D02*
X390476001Y-45974000D01*
X392430000Y-45974000D02*
X391033000Y-45974000D01*
X385445000Y-49276000D02*
X385445000Y-54610000D01*
X388747000Y-45974000D02*
X385445000Y-49276000D01*
X112077500Y-84772500D02*
X109283500Y-84772500D01*
X109283500Y-84772500D02*
X107442000Y-86614000D01*
X102552500Y-103672500D02*
X102552500Y-103822500D01*
X107442000Y-86614000D02*
X107442000Y-98783000D01*
X107315000Y-65722500D02*
X107315000Y-66675000D01*
X107315000Y-66675000D02*
X107950000Y-67310000D01*
X107950000Y-83439000D02*
X109283500Y-84772500D01*
X107950000Y-67310000D02*
X107950000Y-83439000D01*
X97790000Y-46672500D02*
X97790000Y-47625000D01*
X97790000Y-47625000D02*
X98552000Y-48387000D01*
X98552000Y-48387000D02*
X98552000Y-57150000D01*
X107124500Y-65722500D02*
X107315000Y-65722500D01*
X98552000Y-57150000D02*
X107124500Y-65722500D01*
X103251000Y-41211500D02*
X98901250Y-45561250D01*
X103251000Y-24511000D02*
X103251000Y-41211500D01*
X102552500Y-23812500D02*
X103251000Y-24511000D01*
X98901250Y-45561250D02*
X97790000Y-46672500D01*
X102552500Y-22860000D02*
X102552500Y-23812500D01*
X105081000Y-101144000D02*
X102552500Y-103672500D01*
X107442000Y-98783000D02*
X105081000Y-101144000D01*
X312547000Y-46228000D02*
X312102500Y-46672500D01*
X312102500Y-22860000D02*
X312102500Y-23812500D01*
X312547000Y-24257000D02*
X312547000Y-46228000D01*
X312102500Y-23812500D02*
X312547000Y-24257000D01*
X312547000Y-65278000D02*
X312102500Y-65722500D01*
X312102500Y-46672500D02*
X312102500Y-47561500D01*
X312102500Y-47561500D02*
X312547000Y-48006000D01*
X312547000Y-84328000D02*
X312102500Y-84772500D01*
X312102500Y-65722500D02*
X312102500Y-66611500D01*
X312547000Y-67056000D02*
X312547000Y-84328000D01*
X312102500Y-66611500D02*
X312547000Y-67056000D01*
X312547000Y-61087000D02*
X311912000Y-61087000D01*
X311912000Y-61087000D02*
X311785000Y-61214000D01*
X312547000Y-61087000D02*
X312547000Y-65278000D01*
X312547000Y-48006000D02*
X312547000Y-61087000D01*
X312102500Y-84772500D02*
X310451500Y-84772500D01*
X310451500Y-84772500D02*
X310261000Y-84963000D01*
X310261000Y-84963000D02*
X309626000Y-84963000D01*
X309626000Y-84963000D02*
X302387000Y-92202000D01*
X302387000Y-92202000D02*
X302387000Y-116205000D01*
X285908750Y-121507250D02*
X285908750Y-122872500D01*
X289052000Y-118364000D02*
X285908750Y-121507250D01*
X412623000Y-57912000D02*
X412623000Y-67310000D01*
X412623000Y-67310000D02*
X403225000Y-76708000D01*
X403225000Y-76708000D02*
X403225000Y-76828927D01*
X403225000Y-76708000D02*
X403225000Y-77726238D01*
X403225000Y-77726238D02*
X403065238Y-77886000D01*
X385572000Y-77851000D02*
X385572000Y-84455000D01*
X131127500Y-84772500D02*
X128587500Y-84772500D01*
X126365000Y-65722500D02*
X126365000Y-67056000D01*
X126365000Y-67056000D02*
X127127000Y-67818000D01*
X127127000Y-83312000D02*
X128587500Y-84772500D01*
X117729000Y-57086500D02*
X126365000Y-65722500D01*
X117729000Y-48387000D02*
X117729000Y-57086500D01*
X116840000Y-46672500D02*
X116840000Y-47498000D01*
X116840000Y-47498000D02*
X117729000Y-48387000D01*
X116840000Y-46522500D02*
X116840000Y-46672500D01*
X127000000Y-36362500D02*
X116840000Y-46522500D01*
X127000000Y-24130000D02*
X127000000Y-36362500D01*
X126365000Y-23495000D02*
X127000000Y-24130000D01*
X126365000Y-22860000D02*
X126365000Y-23495000D01*
X127000000Y-86360000D02*
X127000000Y-98425000D01*
X128587500Y-84772500D02*
X127000000Y-86360000D01*
X124523500Y-100901500D02*
X121602500Y-103822500D01*
X127000000Y-98425000D02*
X124523500Y-100901500D01*
X127127000Y-67818000D02*
X127127000Y-80137000D01*
X127127000Y-80137000D02*
X127127000Y-83312000D01*
X331724000Y-46101000D02*
X331152500Y-46672500D01*
X331152500Y-22860000D02*
X331152500Y-23685500D01*
X331152500Y-23685500D02*
X331724000Y-24257000D01*
X331597000Y-48133000D02*
X331597000Y-65278000D01*
X331152500Y-46672500D02*
X331152500Y-47688500D01*
X331597000Y-65278000D02*
X331152500Y-65722500D01*
X331152500Y-47688500D02*
X331597000Y-48133000D01*
X331597000Y-84328000D02*
X331152500Y-84772500D01*
X331152500Y-65722500D02*
X331152500Y-66865500D01*
X331152500Y-66865500D02*
X331597000Y-67310000D01*
X331597000Y-67310000D02*
X331597000Y-79756000D01*
X331597000Y-80010000D02*
X330962000Y-80010000D01*
X331597000Y-80010000D02*
X331597000Y-84328000D01*
X330962000Y-80010000D02*
X330835000Y-80137000D01*
X331597000Y-79756000D02*
X331597000Y-80010000D01*
X331724000Y-42164000D02*
X331724000Y-46101000D01*
X331724000Y-24257000D02*
X331724000Y-42164000D01*
X150177500Y-84772500D02*
X148018500Y-84772500D01*
X145415000Y-65722500D02*
X145415000Y-66802000D01*
X145415000Y-66802000D02*
X146177000Y-67564000D01*
X146177000Y-84074000D02*
X147447000Y-85344000D01*
X148018500Y-84772500D02*
X147447000Y-85344000D01*
X136525000Y-56832500D02*
X145415000Y-65722500D01*
X136525000Y-48006000D02*
X136525000Y-56832500D01*
X135890000Y-46672500D02*
X135890000Y-47371000D01*
X135890000Y-47371000D02*
X136525000Y-48006000D01*
X146431000Y-36131500D02*
X135890000Y-46672500D01*
X146431000Y-24638000D02*
X146431000Y-36131500D01*
X145415000Y-23622000D02*
X146431000Y-24638000D01*
X145415000Y-22860000D02*
X145415000Y-23622000D01*
X141732000Y-102743000D02*
X140652500Y-103822500D01*
X146050000Y-86741000D02*
X146050000Y-98425000D01*
X147447000Y-85344000D02*
X146050000Y-86741000D01*
X143192500Y-101282500D02*
X141732000Y-102743000D01*
X146050000Y-98425000D02*
X143192500Y-101282500D01*
X146177000Y-79248000D02*
X146177000Y-84074000D01*
X350901000Y-45974000D02*
X350202500Y-46672500D01*
X350901000Y-24638000D02*
X350901000Y-45974000D01*
X350202500Y-22860000D02*
X350202500Y-23939500D01*
X350202500Y-23939500D02*
X350901000Y-24638000D01*
X350774000Y-65151000D02*
X350202500Y-65722500D01*
X350774000Y-48260000D02*
X350774000Y-65151000D01*
X350202500Y-46672500D02*
X350202500Y-47688500D01*
X350202500Y-47688500D02*
X350774000Y-48260000D01*
X350774000Y-84201000D02*
X350202500Y-84772500D01*
X350202500Y-65722500D02*
X350202500Y-66738500D01*
X350202500Y-66738500D02*
X350774000Y-67310000D01*
X350774000Y-67310000D02*
X350774000Y-78740000D01*
X350774000Y-79121000D02*
X350012000Y-79121000D01*
X350774000Y-79121000D02*
X350774000Y-84201000D01*
X350774000Y-78740000D02*
X350774000Y-79121000D01*
X146177000Y-67564000D02*
X146177000Y-78486000D01*
X146177000Y-78486000D02*
X146177000Y-78740000D01*
X146177000Y-78740000D02*
X146177000Y-79248000D01*
X411745457Y-57432500D02*
X411745457Y-67545477D01*
X411745457Y-67545477D02*
X404240001Y-75050933D01*
X404240001Y-75050933D02*
X403853933Y-75050933D01*
X169227500Y-84772500D02*
X167068500Y-84772500D01*
X164465000Y-65722500D02*
X164465000Y-66675000D01*
X164465000Y-66675000D02*
X165227000Y-67437000D01*
X165227000Y-85217000D02*
X165925500Y-85915500D01*
X167068500Y-84772500D02*
X165925500Y-85915500D01*
X154940000Y-46672500D02*
X154940000Y-48006000D01*
X154940000Y-48006000D02*
X155702000Y-48768000D01*
X155702000Y-48768000D02*
X155702000Y-55753000D01*
X164465000Y-64516000D02*
X164465000Y-65722500D01*
X155702000Y-55753000D02*
X164465000Y-64516000D01*
X154940000Y-46522500D02*
X154940000Y-46672500D01*
X165100000Y-36362500D02*
X154940000Y-46522500D01*
X165100000Y-24130000D02*
X165100000Y-36362500D01*
X164465000Y-23495000D02*
X165100000Y-24130000D01*
X164465000Y-22860000D02*
X164465000Y-23495000D01*
X164719000Y-98806000D02*
X159702500Y-103822500D01*
X165925500Y-85915500D02*
X164719000Y-87122000D01*
X165227000Y-67437000D02*
X165227000Y-78740000D01*
X165227000Y-78740000D02*
X165227000Y-85217000D01*
X369951000Y-45974000D02*
X369252500Y-46672500D01*
X369951000Y-24384000D02*
X369951000Y-45974000D01*
X369252500Y-22860000D02*
X369252500Y-23685500D01*
X369252500Y-23685500D02*
X369951000Y-24384000D01*
X369252500Y-46672500D02*
X369252500Y-47688500D01*
X369252500Y-47688500D02*
X369951000Y-48387000D01*
X370522500Y-80006510D02*
X370522500Y-81597500D01*
X370017990Y-79502000D02*
X370522500Y-80006510D01*
X369951000Y-79502000D02*
X370017990Y-79502000D01*
X369951000Y-60833000D02*
X369951000Y-79502000D01*
X369951000Y-48387000D02*
X369951000Y-60833000D01*
X370522500Y-81597500D02*
X370522500Y-94805500D01*
X370522500Y-94805500D02*
X370586000Y-94869000D01*
X165608000Y-94869000D02*
X165042315Y-94869000D01*
X165042315Y-94869000D02*
X164719000Y-94869000D01*
X164719000Y-87122000D02*
X164719000Y-94869000D01*
X164719000Y-94869000D02*
X164719000Y-98806000D01*
X422913011Y-49660011D02*
X422913011Y-50216496D01*
X421230898Y-48752000D02*
X422005000Y-48752000D01*
X422005000Y-48752000D02*
X422913011Y-49660011D01*
X422913011Y-52298126D02*
X422367030Y-52844107D01*
X422913011Y-50216496D02*
X422913011Y-52298126D01*
X422367030Y-52844107D02*
X422367030Y-54229000D01*
X422367030Y-54229000D02*
X422367030Y-61075125D01*
X422367030Y-61075125D02*
X404519239Y-78922916D01*
X404519239Y-78922916D02*
X404519239Y-80102000D01*
X393065000Y-80137000D02*
X393065000Y-84772500D01*
X188277500Y-84772500D02*
X185864500Y-84772500D01*
X178752500Y-103672500D02*
X178752500Y-103822500D01*
X184023000Y-98402000D02*
X178752500Y-103672500D01*
X183515000Y-65722500D02*
X183515000Y-66421000D01*
X183515000Y-66421000D02*
X184277000Y-67183000D01*
X184277000Y-84836000D02*
X185039000Y-85598000D01*
X184277000Y-67183000D02*
X184277000Y-84836000D01*
X185864500Y-84772500D02*
X185039000Y-85598000D01*
X185039000Y-85598000D02*
X184023000Y-86614000D01*
X173990000Y-46672500D02*
X173990000Y-47498000D01*
X173990000Y-47498000D02*
X174879000Y-48387000D01*
X179165250Y-61436250D02*
X174879000Y-57150000D01*
X179228750Y-61436250D02*
X179165250Y-61436250D01*
X174879000Y-48387000D02*
X174879000Y-57150000D01*
X179228750Y-61436250D02*
X183515000Y-65722500D01*
X183515000Y-22860000D02*
X183515000Y-23495000D01*
X183515000Y-23495000D02*
X184023000Y-24003000D01*
X184023000Y-24003000D02*
X184023000Y-32258000D01*
X175300000Y-45362500D02*
X173990000Y-46672500D01*
X175300000Y-40981000D02*
X175300000Y-45362500D01*
X184023000Y-32258000D02*
X175300000Y-40981000D01*
X184277000Y-98425000D02*
X184023000Y-98171000D01*
X184531000Y-98425000D02*
X184277000Y-98425000D01*
X184023000Y-86614000D02*
X184023000Y-98171000D01*
X184023000Y-98171000D02*
X184023000Y-98402000D01*
X235902500Y-103822500D02*
X235902500Y-104584500D01*
X235902500Y-104584500D02*
X236601000Y-105283000D01*
X236601000Y-121189750D02*
X238283750Y-122872500D01*
X236601000Y-105283000D02*
X236601000Y-121189750D01*
X421005000Y-51054000D02*
X421005000Y-54610000D01*
X421005000Y-60124889D02*
X415343889Y-65786000D01*
X421005000Y-54610000D02*
X421005000Y-60124889D01*
X403792238Y-76903755D02*
X403792238Y-82736238D01*
X415343889Y-65786000D02*
X414909993Y-65786000D01*
X414909993Y-65786000D02*
X403792238Y-76903755D01*
X403792238Y-82736238D02*
X405257000Y-84201000D01*
X405257000Y-84201000D02*
X405257000Y-97028000D01*
X312293000Y-103632000D02*
X312102500Y-103822500D01*
X312293000Y-97120000D02*
X312293000Y-103632000D01*
X202438000Y-32766000D02*
X193040000Y-42164000D01*
X193040000Y-42164000D02*
X193040000Y-46672500D01*
X202438000Y-25019000D02*
X202438000Y-32766000D01*
X204597000Y-22860000D02*
X202438000Y-25019000D01*
X207327500Y-22860000D02*
X204597000Y-22860000D01*
X193040000Y-46672500D02*
X193040000Y-47625000D01*
X193040000Y-47625000D02*
X193548000Y-48133000D01*
X193548000Y-48133000D02*
X193548000Y-56705500D01*
X202565000Y-65722500D02*
X202565000Y-66548000D01*
X202565000Y-66548000D02*
X203073000Y-67056000D01*
X203073000Y-80518000D02*
X207327500Y-84772500D01*
X203073000Y-67056000D02*
X203073000Y-80518000D01*
X196056250Y-59213750D02*
X202565000Y-65722500D01*
X193548000Y-56705500D02*
X196056250Y-59213750D01*
X203073000Y-98552000D02*
X197802500Y-103822500D01*
X331851000Y-104521000D02*
X331152500Y-103822500D01*
X393065000Y-103822500D02*
X393065000Y-104775000D01*
X393065000Y-104775000D02*
X393700000Y-105410000D01*
X393700000Y-105410000D02*
X393700000Y-117856000D01*
X350202500Y-104457500D02*
X350202500Y-103822500D01*
X350901000Y-105156000D02*
X350202500Y-104457500D01*
X350901000Y-116020315D02*
X350901000Y-105156000D01*
X351409000Y-117094000D02*
X351409000Y-116528315D01*
X351409000Y-116528315D02*
X350901000Y-116020315D01*
X203146001Y-95196001D02*
X203073000Y-95123000D01*
X203943001Y-95196001D02*
X203146001Y-95196001D01*
X203073000Y-80518000D02*
X203073000Y-95123000D01*
X204343000Y-95596000D02*
X203943001Y-95196001D01*
X203073000Y-95123000D02*
X203073000Y-98552000D01*
X197802500Y-103822500D02*
X197802500Y-104838500D01*
X198501000Y-109220000D02*
X199517000Y-110236000D01*
X197802500Y-104838500D02*
X198501000Y-105537000D01*
X198501000Y-105537000D02*
X198501000Y-109220000D01*
X199517000Y-110236000D02*
X201834750Y-110236000D01*
X201834750Y-110236000D02*
X214471250Y-122872500D01*
X423367021Y-49252364D02*
X422155380Y-48040723D01*
X422821040Y-61302960D02*
X422821040Y-53032164D01*
X422692875Y-61431125D02*
X422821040Y-61302960D01*
X423367021Y-52486183D02*
X423367021Y-49252364D01*
X422821040Y-53032164D02*
X423367021Y-52486183D01*
X422653097Y-61431125D02*
X422692875Y-61431125D01*
X406562000Y-98367315D02*
X406834990Y-98094325D01*
X406562000Y-98933000D02*
X406562000Y-98367315D01*
X406834990Y-98094325D02*
X406834990Y-82230056D01*
X405246239Y-78837982D02*
X422653097Y-61431125D01*
X405246239Y-80641306D02*
X405246239Y-78837982D01*
X406834990Y-82230056D02*
X405246239Y-80641306D01*
X331089000Y-103759000D02*
X331152500Y-103822500D01*
X331089000Y-96393000D02*
X331089000Y-103759000D01*
X431800000Y-105537000D02*
X431800000Y-122237500D01*
X431800000Y-122237500D02*
X431165000Y-122872500D01*
X431165000Y-103822500D02*
X431165000Y-104902000D01*
X431165000Y-104902000D02*
X431800000Y-105537000D01*
X431673000Y-86233000D02*
X431673000Y-103314500D01*
X431673000Y-103314500D02*
X431165000Y-103822500D01*
X431165000Y-84772500D02*
X431165000Y-85725000D01*
X431165000Y-85725000D02*
X431673000Y-86233000D01*
X412623000Y-103314500D02*
X412115000Y-103822500D01*
X412623000Y-86360000D02*
X412623000Y-103314500D01*
X412115000Y-84772500D02*
X412115000Y-85852000D01*
X412115000Y-85852000D02*
X412623000Y-86360000D01*
X412623000Y-122364500D02*
X412115000Y-122872500D01*
X412623000Y-105410000D02*
X412623000Y-122364500D01*
X412115000Y-103822500D02*
X412115000Y-104902000D01*
X412115000Y-104902000D02*
X412623000Y-105410000D01*
X428238571Y-84703571D02*
X428307500Y-84772500D01*
X428238571Y-40466969D02*
X428238571Y-84703571D01*
X119859500Y-27089009D02*
X119859500Y-25400000D01*
X292258750Y-120332500D02*
X295084500Y-120332500D01*
X295084500Y-120332500D02*
X299847000Y-125095000D01*
X327977500Y-120332500D02*
X330644500Y-120332500D01*
X330644500Y-120332500D02*
X335534000Y-125222000D01*
X356552500Y-120332500D02*
X358203500Y-120332500D01*
X358203500Y-120332500D02*
X361950000Y-124079000D01*
X292258750Y-74298490D02*
X292636260Y-74676000D01*
X292258750Y-72707500D02*
X292258750Y-74298490D01*
X292636260Y-74676000D02*
X292636260Y-81181260D01*
X292636260Y-81181260D02*
X292608000Y-81209520D01*
X292608000Y-81209520D02*
X292608000Y-84582000D01*
X292608000Y-84582000D02*
X290068000Y-87122000D01*
X356512500Y-63762500D02*
X359533366Y-63762500D01*
X359533366Y-63762500D02*
X363912433Y-68141567D01*
X277931250Y-101862500D02*
X281313500Y-101862500D01*
X281313500Y-101862500D02*
X285623000Y-106172000D01*
X242252500Y-101282500D02*
X245300500Y-101282500D01*
X245300500Y-101282500D02*
X250063000Y-106045000D01*
X223202500Y-101282500D02*
X225869500Y-101282500D01*
X225869500Y-101282500D02*
X230632000Y-106045000D01*
X318452500Y-82232500D02*
X320357500Y-82232500D01*
X320357500Y-82232500D02*
X323977000Y-85852000D01*
X356512500Y-101862500D02*
X356512500Y-104163500D01*
X356512500Y-104163500D02*
X356997000Y-104648000D01*
X356997000Y-104648000D02*
X356997000Y-110998000D01*
X337502500Y-101282500D02*
X340296500Y-101282500D01*
X340296500Y-101282500D02*
X345186000Y-106172000D01*
X410337000Y-65905934D02*
X409793531Y-66449403D01*
X410337000Y-59309000D02*
X410337000Y-65905934D01*
X409793531Y-66449403D02*
X406396933Y-69846001D01*
X406396933Y-69846001D02*
X405949433Y-69846001D01*
X326009000Y-109601000D02*
X326009000Y-109035315D01*
X326009000Y-109035315D02*
X326009000Y-31623000D01*
X423106961Y-47733319D02*
X423821031Y-48447389D01*
X423821031Y-52674240D02*
X423555077Y-52940193D01*
X423821031Y-48447389D02*
X423821031Y-52674240D01*
X423555077Y-52940193D02*
X423275050Y-53220220D01*
X423275050Y-53220220D02*
X423275050Y-54102000D01*
X423275050Y-54102000D02*
X423275050Y-61885134D01*
X405700249Y-79026039D02*
X405700249Y-79818249D01*
X423275050Y-61885134D02*
X422841154Y-61885134D01*
X422841154Y-61885134D02*
X405700249Y-79026039D01*
X405700249Y-79818249D02*
X405700249Y-80453249D01*
X405700249Y-80453249D02*
X407416000Y-82169000D01*
X407416000Y-82169000D02*
X407289000Y-82296000D01*
X407289000Y-82296000D02*
X407289000Y-109728000D01*
X292100000Y-109601000D02*
X292100000Y-88646000D01*
X292100000Y-88646000D02*
X297307000Y-83439000D01*
X297307000Y-83439000D02*
X297307000Y-72136000D01*
X297307000Y-72136000D02*
X289306000Y-64135000D01*
X289306000Y-64135000D02*
X289306000Y-54483000D01*
X374396000Y-107315000D02*
X374396000Y-87249000D01*
X374396000Y-87249000D02*
X377444000Y-84201000D01*
X361950000Y-121158000D02*
X361950000Y-122047000D01*
X361950000Y-121158000D02*
X361950000Y-109347000D01*
X361950000Y-122047000D02*
X363474000Y-123571000D01*
X363474000Y-123571000D02*
X363474000Y-130302000D01*
X421567892Y-51761108D02*
X421459010Y-51869990D01*
X421732000Y-51761108D02*
X421567892Y-51761108D01*
X421459010Y-51869990D02*
X421459010Y-54483000D01*
X377444000Y-84201000D02*
X377444000Y-71120000D01*
X421459010Y-54483000D02*
X421459010Y-60699013D01*
X421459010Y-60699013D02*
X421072942Y-60699013D01*
X421072942Y-60699013D02*
X411773085Y-69998870D01*
X377444000Y-70173011D02*
X377444000Y-69850000D01*
X377571000Y-70300011D02*
X377444000Y-70173011D01*
X377444000Y-71120000D02*
X377444000Y-69850000D01*
X377444000Y-69850000D02*
X377444000Y-53721000D01*
X280670000Y-82169000D02*
X285877000Y-87376000D01*
X285877000Y-87376000D02*
X285877000Y-90551000D01*
X258699000Y-74041000D02*
X258699000Y-109601000D01*
X335915000Y-128524000D02*
X340106000Y-124333000D01*
X340106000Y-115189000D02*
X340106000Y-110744000D01*
X340106000Y-115189000D02*
X340106000Y-114173000D01*
X340106000Y-124333000D02*
X340106000Y-115189000D01*
X340106000Y-110744000D02*
X337947000Y-108585000D01*
X337947000Y-108585000D02*
X337947000Y-104902000D01*
X337947000Y-104902000D02*
X334772000Y-101727000D01*
X334772000Y-101727000D02*
X334772000Y-96139000D01*
X334772000Y-96139000D02*
X339598000Y-96139000D01*
X339598000Y-96139000D02*
X344932000Y-90805000D01*
X344932000Y-90805000D02*
X344932000Y-76835000D01*
X344932000Y-76835000D02*
X342900000Y-74803000D01*
X304165000Y-73533000D02*
X304165000Y-81153000D01*
X277114000Y-81280000D02*
X277114000Y-73152000D01*
X421913020Y-52558980D02*
X421913020Y-54356000D01*
X421801455Y-49747007D02*
X422459001Y-50404553D01*
X422080961Y-52488109D02*
X421983891Y-52488109D01*
X421983891Y-52488109D02*
X421913020Y-52558980D01*
X421913020Y-54356000D02*
X421913020Y-60887069D01*
X422459001Y-52110069D02*
X422080961Y-52488109D01*
X422459001Y-50404553D02*
X422459001Y-52110069D01*
X421913020Y-60887069D02*
X415009044Y-67791045D01*
X415009044Y-67791045D02*
X411773078Y-71027011D01*
X411773078Y-71027011D02*
X411387010Y-71027011D01*
X364490000Y-70993000D02*
X361950000Y-73533000D01*
X361950000Y-73533000D02*
X360807000Y-73533000D01*
X231902000Y-92583000D02*
X231902000Y-109601000D01*
X275844000Y-128905000D02*
X275844000Y-116078000D01*
X275844000Y-116078000D02*
X273812000Y-114046000D01*
X273812000Y-114046000D02*
X271780000Y-114046000D01*
X271780000Y-114046000D02*
X267335000Y-109601000D01*
X267335000Y-109601000D02*
X267335000Y-93599000D01*
X346329000Y-109601000D02*
X346329000Y-93472000D01*
X411018457Y-58757690D02*
X411018457Y-58192005D01*
X411291447Y-59030680D02*
X411018457Y-58757690D01*
X411291447Y-66228553D02*
X411291447Y-59030680D01*
X410837437Y-66783297D02*
X410837437Y-66682563D01*
X409981588Y-66903412D02*
X410717322Y-66903412D01*
X410837437Y-66682563D02*
X411291447Y-66228553D01*
X404241000Y-83827066D02*
X403157001Y-82743067D01*
X404241000Y-93472000D02*
X404241000Y-83827066D01*
X410717322Y-66903412D02*
X410837437Y-66783297D01*
X402338237Y-80012237D02*
X402338237Y-74546763D01*
X403157001Y-82743067D02*
X403157001Y-80831001D01*
X403157001Y-80831001D02*
X402338237Y-80012237D01*
X402338237Y-74546763D02*
X409981588Y-66903412D01*
X368681000Y-69688000D02*
X368681000Y-63500000D01*
X368681000Y-63500000D02*
X368554000Y-63373000D01*
X361442000Y-63373000D02*
X361442000Y-59598000D01*
X317182500Y-38417500D02*
X317182500Y-30480000D01*
X320675000Y-45466000D02*
X320675000Y-41910000D01*
X319151000Y-46990000D02*
X320675000Y-45466000D01*
X319786000Y-59563000D02*
X319151000Y-58928000D01*
X320675000Y-41910000D02*
X317182500Y-38417500D01*
X319151000Y-58928000D02*
X319151000Y-46990000D01*
X409514750Y-58039000D02*
X409514750Y-65598750D01*
X409514750Y-65598750D02*
X407041500Y-68072000D01*
X407041500Y-68072000D02*
X407035000Y-68072000D01*
X339090000Y-51689000D02*
X339090000Y-61214000D01*
X336232500Y-30480000D02*
X336232500Y-31827038D01*
X338074000Y-50673000D02*
X339090000Y-51689000D01*
X336232500Y-31827038D02*
X335280001Y-32779537D01*
X335280001Y-32779537D02*
X335280001Y-45212001D01*
X335280001Y-45212001D02*
X338074000Y-48006000D01*
X338074000Y-48006000D02*
X338074000Y-50673000D01*
X408686000Y-59436000D02*
X408686000Y-60001685D01*
X408686000Y-60001685D02*
X408686000Y-65399366D01*
X408686000Y-65399366D02*
X408238683Y-65846683D01*
X383667000Y-62738000D02*
X383667000Y-59055000D01*
X356235000Y-46990000D02*
X356997000Y-46990000D01*
X356997000Y-46990000D02*
X356997000Y-55499000D01*
X354076000Y-44831000D02*
X356235000Y-46990000D01*
X354076000Y-33274000D02*
X354076000Y-44831000D01*
X355282500Y-32067500D02*
X354076000Y-33274000D01*
X355282500Y-30480000D02*
X355282500Y-32067500D01*
M02*
