G04 #@! TF.GenerationSoftware,KiCad,Pcbnew,5.1.2*
G04 #@! TF.CreationDate,2019-06-11T14:53:15+02:00*
G04 #@! TF.ProjectId,keyboard_layout_jopr,6b657962-6f61-4726-945f-6c61796f7574,rev?*
G04 #@! TF.SameCoordinates,Original*
G04 #@! TF.FileFunction,Copper,L2,Bot*
G04 #@! TF.FilePolarity,Positive*
%FSLAX46Y46*%
G04 Gerber Fmt 4.6, Leading zero omitted, Abs format (unit mm)*
G04 Created by KiCad (PCBNEW 5.1.2) date 2019-06-11 14:53:15*
%MOMM*%
%LPD*%
G04 APERTURE LIST*
%ADD10R,0.410000X0.990000*%
%ADD11C,2.250000*%
%ADD12C,0.100000*%
%ADD13C,0.975000*%
%ADD14C,1.200000*%
%ADD15O,1.700000X2.700000*%
%ADD16R,0.500000X2.250000*%
%ADD17R,0.550000X1.500000*%
%ADD18R,1.500000X0.550000*%
%ADD19R,1.100000X1.800000*%
%ADD20C,1.250000*%
%ADD21R,0.900000X1.200000*%
%ADD22R,1.200000X0.900000*%
%ADD23C,0.800000*%
%ADD24C,0.381000*%
%ADD25C,0.254000*%
%ADD26C,0.025400*%
G04 APERTURE END LIST*
D10*
X121587500Y-29545000D03*
X122237500Y-29545000D03*
X122887500Y-29545000D03*
X122887500Y-27605000D03*
X122237500Y-27605000D03*
X121587500Y-27605000D03*
D11*
X220821250Y-120332500D03*
X214471250Y-122872500D03*
X149383750Y-120332500D03*
X143033750Y-122872500D03*
X270827500Y-82232500D03*
X264477500Y-84772500D03*
X277971250Y-101282500D03*
X271621250Y-103822500D03*
X367982500Y-113347500D03*
X370522500Y-119697500D03*
X268446250Y-120332500D03*
X262096250Y-122872500D03*
X356552500Y-20320000D03*
X350202500Y-22860000D03*
X337502500Y-20320000D03*
X331152500Y-22860000D03*
X318452500Y-20320000D03*
X312102500Y-22860000D03*
X285908750Y-75247500D03*
X292258750Y-72707500D03*
X437515000Y-120332500D03*
X431165000Y-122872500D03*
X418465000Y-101282500D03*
X412115000Y-103822500D03*
X437515000Y-101282500D03*
X431165000Y-103822500D03*
X418465000Y-82232500D03*
X412115000Y-84772500D03*
X437515000Y-82232500D03*
X431165000Y-84772500D03*
X418465000Y-120332500D03*
X412115000Y-122872500D03*
X399415000Y-101282500D03*
X393065000Y-103822500D03*
X399415000Y-82232500D03*
X393065000Y-84772500D03*
X367982500Y-75247500D03*
X370522500Y-81597500D03*
X375602500Y-44132500D03*
X369252500Y-46672500D03*
X375602500Y-20320000D03*
X369252500Y-22860000D03*
X399415000Y-120332500D03*
X393065000Y-122872500D03*
X356552500Y-82232500D03*
X350202500Y-84772500D03*
X356552500Y-63182500D03*
X350202500Y-65722500D03*
X356552500Y-44132500D03*
X350202500Y-46672500D03*
X356552500Y-120332500D03*
X350202500Y-122872500D03*
X356552500Y-101282500D03*
X350202500Y-103822500D03*
X337502500Y-82232500D03*
X331152500Y-84772500D03*
X337502500Y-63182500D03*
X331152500Y-65722500D03*
X337502500Y-44132500D03*
X331152500Y-46672500D03*
X337502500Y-101282500D03*
X331152500Y-103822500D03*
X318452500Y-82232500D03*
X312102500Y-84772500D03*
X318452500Y-63182500D03*
X312102500Y-65722500D03*
X318452500Y-44132500D03*
X312102500Y-46672500D03*
X327977500Y-120332500D03*
X321627500Y-122872500D03*
X318452500Y-101282500D03*
X312102500Y-103822500D03*
X285115000Y-44132500D03*
X278765000Y-46672500D03*
X294640000Y-20320000D03*
X288290000Y-22860000D03*
X292258750Y-120332500D03*
X285908750Y-122872500D03*
X266065000Y-63182500D03*
X259715000Y-65722500D03*
X256540000Y-44132500D03*
X250190000Y-46672500D03*
X270827500Y-20320000D03*
X264477500Y-22860000D03*
X242252500Y-101282500D03*
X235902500Y-103822500D03*
X251777500Y-82232500D03*
X245427500Y-84772500D03*
X247015000Y-63182500D03*
X240665000Y-65722500D03*
X237490000Y-44132500D03*
X231140000Y-46672500D03*
X251777500Y-20320000D03*
X245427500Y-22860000D03*
X244633750Y-120332500D03*
X238283750Y-122872500D03*
X223202500Y-101282500D03*
X216852500Y-103822500D03*
X232727500Y-82232500D03*
X226377500Y-84772500D03*
X227965000Y-63182500D03*
X221615000Y-65722500D03*
X218440000Y-44132500D03*
X212090000Y-46672500D03*
X232727500Y-20320000D03*
X226377500Y-22860000D03*
X204152500Y-101282500D03*
X197802500Y-103822500D03*
X213677500Y-82232500D03*
X207327500Y-84772500D03*
X208915000Y-63182500D03*
X202565000Y-65722500D03*
X199390000Y-44132500D03*
X193040000Y-46672500D03*
X213677500Y-20320000D03*
X207327500Y-22860000D03*
X185102500Y-101282500D03*
X178752500Y-103822500D03*
X194627500Y-82232500D03*
X188277500Y-84772500D03*
X189865000Y-63182500D03*
X183515000Y-65722500D03*
X180340000Y-44132500D03*
X173990000Y-46672500D03*
X189865000Y-20320000D03*
X183515000Y-22860000D03*
X166052500Y-101282500D03*
X159702500Y-103822500D03*
X175577500Y-82232500D03*
X169227500Y-84772500D03*
X170815000Y-63182500D03*
X164465000Y-65722500D03*
X161290000Y-44132500D03*
X154940000Y-46672500D03*
X170815000Y-20320000D03*
X164465000Y-22860000D03*
X147002500Y-101282500D03*
X140652500Y-103822500D03*
X156527500Y-82232500D03*
X150177500Y-84772500D03*
X151765000Y-63182500D03*
X145415000Y-65722500D03*
X142240000Y-44132500D03*
X135890000Y-46672500D03*
X151765000Y-20320000D03*
X145415000Y-22860000D03*
X127952500Y-101282500D03*
X121602500Y-103822500D03*
X137477500Y-82232500D03*
X131127500Y-84772500D03*
X132715000Y-63182500D03*
X126365000Y-65722500D03*
X123190000Y-44132500D03*
X116840000Y-46672500D03*
X132715000Y-20320000D03*
X126365000Y-22860000D03*
X108902500Y-101282500D03*
X102552500Y-103822500D03*
X118427500Y-82232500D03*
X112077500Y-84772500D03*
X113665000Y-63182500D03*
X107315000Y-65722500D03*
X104140000Y-44132500D03*
X97790000Y-46672500D03*
X108902500Y-20320000D03*
X102552500Y-22860000D03*
X89852500Y-101282500D03*
X83502500Y-103822500D03*
X99377500Y-82232500D03*
X93027500Y-84772500D03*
X94615000Y-63182500D03*
X88265000Y-65722500D03*
X85090000Y-44132500D03*
X78740000Y-46672500D03*
X89852500Y-20320000D03*
X83502500Y-22860000D03*
X77946250Y-120332500D03*
X71596250Y-122872500D03*
X70802500Y-101282500D03*
X64452500Y-103822500D03*
X80327500Y-82232500D03*
X73977500Y-84772500D03*
X75565000Y-63182500D03*
X69215000Y-65722500D03*
X59690000Y-46672500D03*
X66040000Y-44132500D03*
X70802500Y-20320000D03*
X64452500Y-22860000D03*
X54133750Y-120332500D03*
X47783750Y-122872500D03*
X51752500Y-101282500D03*
X45402500Y-103822500D03*
X61277500Y-82232500D03*
X54927500Y-84772500D03*
X56515000Y-63182500D03*
X50165000Y-65722500D03*
X46990000Y-44132500D03*
X40640000Y-46672500D03*
X51752500Y-20320000D03*
X45402500Y-22860000D03*
X30321250Y-120332500D03*
X23971250Y-122872500D03*
X30321250Y-101282500D03*
X23971250Y-103822500D03*
X35083750Y-82232500D03*
X28733750Y-84772500D03*
X32702500Y-63182500D03*
X26352500Y-65722500D03*
X27940000Y-44132500D03*
X21590000Y-46672500D03*
X27940000Y-20320000D03*
X21590000Y-22860000D03*
D12*
G36*
X401450892Y-54172174D02*
G01*
X401474553Y-54175684D01*
X401497757Y-54181496D01*
X401520279Y-54189554D01*
X401541903Y-54199782D01*
X401562420Y-54212079D01*
X401581633Y-54226329D01*
X401599357Y-54242393D01*
X401615421Y-54260117D01*
X401629671Y-54279330D01*
X401641968Y-54299847D01*
X401652196Y-54321471D01*
X401660254Y-54343993D01*
X401666066Y-54367197D01*
X401669576Y-54390858D01*
X401670750Y-54414750D01*
X401670750Y-54902250D01*
X401669576Y-54926142D01*
X401666066Y-54949803D01*
X401660254Y-54973007D01*
X401652196Y-54995529D01*
X401641968Y-55017153D01*
X401629671Y-55037670D01*
X401615421Y-55056883D01*
X401599357Y-55074607D01*
X401581633Y-55090671D01*
X401562420Y-55104921D01*
X401541903Y-55117218D01*
X401520279Y-55127446D01*
X401497757Y-55135504D01*
X401474553Y-55141316D01*
X401450892Y-55144826D01*
X401427000Y-55146000D01*
X400514500Y-55146000D01*
X400490608Y-55144826D01*
X400466947Y-55141316D01*
X400443743Y-55135504D01*
X400421221Y-55127446D01*
X400399597Y-55117218D01*
X400379080Y-55104921D01*
X400359867Y-55090671D01*
X400342143Y-55074607D01*
X400326079Y-55056883D01*
X400311829Y-55037670D01*
X400299532Y-55017153D01*
X400289304Y-54995529D01*
X400281246Y-54973007D01*
X400275434Y-54949803D01*
X400271924Y-54926142D01*
X400270750Y-54902250D01*
X400270750Y-54414750D01*
X400271924Y-54390858D01*
X400275434Y-54367197D01*
X400281246Y-54343993D01*
X400289304Y-54321471D01*
X400299532Y-54299847D01*
X400311829Y-54279330D01*
X400326079Y-54260117D01*
X400342143Y-54242393D01*
X400359867Y-54226329D01*
X400379080Y-54212079D01*
X400399597Y-54199782D01*
X400421221Y-54189554D01*
X400443743Y-54181496D01*
X400466947Y-54175684D01*
X400490608Y-54172174D01*
X400514500Y-54171000D01*
X401427000Y-54171000D01*
X401450892Y-54172174D01*
X401450892Y-54172174D01*
G37*
D13*
X400970750Y-54658500D03*
D12*
G36*
X401450892Y-52297174D02*
G01*
X401474553Y-52300684D01*
X401497757Y-52306496D01*
X401520279Y-52314554D01*
X401541903Y-52324782D01*
X401562420Y-52337079D01*
X401581633Y-52351329D01*
X401599357Y-52367393D01*
X401615421Y-52385117D01*
X401629671Y-52404330D01*
X401641968Y-52424847D01*
X401652196Y-52446471D01*
X401660254Y-52468993D01*
X401666066Y-52492197D01*
X401669576Y-52515858D01*
X401670750Y-52539750D01*
X401670750Y-53027250D01*
X401669576Y-53051142D01*
X401666066Y-53074803D01*
X401660254Y-53098007D01*
X401652196Y-53120529D01*
X401641968Y-53142153D01*
X401629671Y-53162670D01*
X401615421Y-53181883D01*
X401599357Y-53199607D01*
X401581633Y-53215671D01*
X401562420Y-53229921D01*
X401541903Y-53242218D01*
X401520279Y-53252446D01*
X401497757Y-53260504D01*
X401474553Y-53266316D01*
X401450892Y-53269826D01*
X401427000Y-53271000D01*
X400514500Y-53271000D01*
X400490608Y-53269826D01*
X400466947Y-53266316D01*
X400443743Y-53260504D01*
X400421221Y-53252446D01*
X400399597Y-53242218D01*
X400379080Y-53229921D01*
X400359867Y-53215671D01*
X400342143Y-53199607D01*
X400326079Y-53181883D01*
X400311829Y-53162670D01*
X400299532Y-53142153D01*
X400289304Y-53120529D01*
X400281246Y-53098007D01*
X400275434Y-53074803D01*
X400271924Y-53051142D01*
X400270750Y-53027250D01*
X400270750Y-52539750D01*
X400271924Y-52515858D01*
X400275434Y-52492197D01*
X400281246Y-52468993D01*
X400289304Y-52446471D01*
X400299532Y-52424847D01*
X400311829Y-52404330D01*
X400326079Y-52385117D01*
X400342143Y-52367393D01*
X400359867Y-52351329D01*
X400379080Y-52337079D01*
X400399597Y-52324782D01*
X400421221Y-52314554D01*
X400443743Y-52306496D01*
X400466947Y-52300684D01*
X400490608Y-52297174D01*
X400514500Y-52296000D01*
X401427000Y-52296000D01*
X401450892Y-52297174D01*
X401450892Y-52297174D01*
G37*
D13*
X400970750Y-52783500D03*
D14*
X412418777Y-31895142D03*
D12*
G36*
X412489488Y-30975903D02*
G01*
X413338016Y-31824431D01*
X412348066Y-32814381D01*
X411499538Y-31965853D01*
X412489488Y-30975903D01*
X412489488Y-30975903D01*
G37*
D14*
X410863142Y-33450777D03*
D12*
G36*
X410933853Y-32531538D02*
G01*
X411782381Y-33380066D01*
X410792431Y-34370016D01*
X409943903Y-33521488D01*
X410933853Y-32531538D01*
X410933853Y-32531538D01*
G37*
D14*
X412065223Y-34652858D03*
D12*
G36*
X412135934Y-33733619D02*
G01*
X412984462Y-34582147D01*
X411994512Y-35572097D01*
X411145984Y-34723569D01*
X412135934Y-33733619D01*
X412135934Y-33733619D01*
G37*
D14*
X413620858Y-33097223D03*
D12*
G36*
X413691569Y-32177984D02*
G01*
X414540097Y-33026512D01*
X413550147Y-34016462D01*
X412701619Y-33167934D01*
X413691569Y-32177984D01*
X413691569Y-32177984D01*
G37*
D15*
X115412500Y-17589500D03*
X122712500Y-17589500D03*
X122712500Y-22089500D03*
X115412500Y-22089500D03*
D16*
X117462500Y-22089500D03*
X118262500Y-22089500D03*
X119062500Y-22089500D03*
X119862500Y-22089500D03*
X120662500Y-22089500D03*
D17*
X406241750Y-53579000D03*
X407041750Y-53579000D03*
X407841750Y-53579000D03*
X408641750Y-53579000D03*
X409441750Y-53579000D03*
X410241750Y-53579000D03*
X411041750Y-53579000D03*
X411841750Y-53579000D03*
X412641750Y-53579000D03*
X413441750Y-53579000D03*
X414241750Y-53579000D03*
D18*
X415941750Y-51879000D03*
X415941750Y-51079000D03*
X415941750Y-50279000D03*
X415941750Y-49479000D03*
X415941750Y-48679000D03*
X415941750Y-47879000D03*
X415941750Y-47079000D03*
X415941750Y-46279000D03*
X415941750Y-45479000D03*
X415941750Y-44679000D03*
X415941750Y-43879000D03*
D17*
X414241750Y-42179000D03*
X413441750Y-42179000D03*
X412641750Y-42179000D03*
X411841750Y-42179000D03*
X411041750Y-42179000D03*
X410241750Y-42179000D03*
X409441750Y-42179000D03*
X408641750Y-42179000D03*
X407841750Y-42179000D03*
X407041750Y-42179000D03*
X406241750Y-42179000D03*
D18*
X404541750Y-43879000D03*
X404541750Y-44679000D03*
X404541750Y-45479000D03*
X404541750Y-46279000D03*
X404541750Y-47079000D03*
X404541750Y-47879000D03*
X404541750Y-48679000D03*
X404541750Y-49479000D03*
X404541750Y-50279000D03*
X404541750Y-51079000D03*
X404541750Y-51879000D03*
D19*
X397057000Y-29865250D03*
X400757000Y-23665250D03*
X400757000Y-29865250D03*
X397057000Y-23665250D03*
D12*
G36*
X420246892Y-51217674D02*
G01*
X420270553Y-51221184D01*
X420293757Y-51226996D01*
X420316279Y-51235054D01*
X420337903Y-51245282D01*
X420358420Y-51257579D01*
X420377633Y-51271829D01*
X420395357Y-51287893D01*
X420411421Y-51305617D01*
X420425671Y-51324830D01*
X420437968Y-51345347D01*
X420448196Y-51366971D01*
X420456254Y-51389493D01*
X420462066Y-51412697D01*
X420465576Y-51436358D01*
X420466750Y-51460250D01*
X420466750Y-51947750D01*
X420465576Y-51971642D01*
X420462066Y-51995303D01*
X420456254Y-52018507D01*
X420448196Y-52041029D01*
X420437968Y-52062653D01*
X420425671Y-52083170D01*
X420411421Y-52102383D01*
X420395357Y-52120107D01*
X420377633Y-52136171D01*
X420358420Y-52150421D01*
X420337903Y-52162718D01*
X420316279Y-52172946D01*
X420293757Y-52181004D01*
X420270553Y-52186816D01*
X420246892Y-52190326D01*
X420223000Y-52191500D01*
X419310500Y-52191500D01*
X419286608Y-52190326D01*
X419262947Y-52186816D01*
X419239743Y-52181004D01*
X419217221Y-52172946D01*
X419195597Y-52162718D01*
X419175080Y-52150421D01*
X419155867Y-52136171D01*
X419138143Y-52120107D01*
X419122079Y-52102383D01*
X419107829Y-52083170D01*
X419095532Y-52062653D01*
X419085304Y-52041029D01*
X419077246Y-52018507D01*
X419071434Y-51995303D01*
X419067924Y-51971642D01*
X419066750Y-51947750D01*
X419066750Y-51460250D01*
X419067924Y-51436358D01*
X419071434Y-51412697D01*
X419077246Y-51389493D01*
X419085304Y-51366971D01*
X419095532Y-51345347D01*
X419107829Y-51324830D01*
X419122079Y-51305617D01*
X419138143Y-51287893D01*
X419155867Y-51271829D01*
X419175080Y-51257579D01*
X419195597Y-51245282D01*
X419217221Y-51235054D01*
X419239743Y-51226996D01*
X419262947Y-51221184D01*
X419286608Y-51217674D01*
X419310500Y-51216500D01*
X420223000Y-51216500D01*
X420246892Y-51217674D01*
X420246892Y-51217674D01*
G37*
D13*
X419766750Y-51704000D03*
D12*
G36*
X420246892Y-53092674D02*
G01*
X420270553Y-53096184D01*
X420293757Y-53101996D01*
X420316279Y-53110054D01*
X420337903Y-53120282D01*
X420358420Y-53132579D01*
X420377633Y-53146829D01*
X420395357Y-53162893D01*
X420411421Y-53180617D01*
X420425671Y-53199830D01*
X420437968Y-53220347D01*
X420448196Y-53241971D01*
X420456254Y-53264493D01*
X420462066Y-53287697D01*
X420465576Y-53311358D01*
X420466750Y-53335250D01*
X420466750Y-53822750D01*
X420465576Y-53846642D01*
X420462066Y-53870303D01*
X420456254Y-53893507D01*
X420448196Y-53916029D01*
X420437968Y-53937653D01*
X420425671Y-53958170D01*
X420411421Y-53977383D01*
X420395357Y-53995107D01*
X420377633Y-54011171D01*
X420358420Y-54025421D01*
X420337903Y-54037718D01*
X420316279Y-54047946D01*
X420293757Y-54056004D01*
X420270553Y-54061816D01*
X420246892Y-54065326D01*
X420223000Y-54066500D01*
X419310500Y-54066500D01*
X419286608Y-54065326D01*
X419262947Y-54061816D01*
X419239743Y-54056004D01*
X419217221Y-54047946D01*
X419195597Y-54037718D01*
X419175080Y-54025421D01*
X419155867Y-54011171D01*
X419138143Y-53995107D01*
X419122079Y-53977383D01*
X419107829Y-53958170D01*
X419095532Y-53937653D01*
X419085304Y-53916029D01*
X419077246Y-53893507D01*
X419071434Y-53870303D01*
X419067924Y-53846642D01*
X419066750Y-53822750D01*
X419066750Y-53335250D01*
X419067924Y-53311358D01*
X419071434Y-53287697D01*
X419077246Y-53264493D01*
X419085304Y-53241971D01*
X419095532Y-53220347D01*
X419107829Y-53199830D01*
X419122079Y-53180617D01*
X419138143Y-53162893D01*
X419155867Y-53146829D01*
X419175080Y-53132579D01*
X419195597Y-53120282D01*
X419217221Y-53110054D01*
X419239743Y-53101996D01*
X419262947Y-53096184D01*
X419286608Y-53092674D01*
X419310500Y-53091500D01*
X420223000Y-53091500D01*
X420246892Y-53092674D01*
X420246892Y-53092674D01*
G37*
D13*
X419766750Y-53579000D03*
D12*
G36*
X136077392Y-18859174D02*
G01*
X136101053Y-18862684D01*
X136124257Y-18868496D01*
X136146779Y-18876554D01*
X136168403Y-18886782D01*
X136188920Y-18899079D01*
X136208133Y-18913329D01*
X136225857Y-18929393D01*
X136241921Y-18947117D01*
X136256171Y-18966330D01*
X136268468Y-18986847D01*
X136278696Y-19008471D01*
X136286754Y-19030993D01*
X136292566Y-19054197D01*
X136296076Y-19077858D01*
X136297250Y-19101750D01*
X136297250Y-20014250D01*
X136296076Y-20038142D01*
X136292566Y-20061803D01*
X136286754Y-20085007D01*
X136278696Y-20107529D01*
X136268468Y-20129153D01*
X136256171Y-20149670D01*
X136241921Y-20168883D01*
X136225857Y-20186607D01*
X136208133Y-20202671D01*
X136188920Y-20216921D01*
X136168403Y-20229218D01*
X136146779Y-20239446D01*
X136124257Y-20247504D01*
X136101053Y-20253316D01*
X136077392Y-20256826D01*
X136053500Y-20258000D01*
X135566000Y-20258000D01*
X135542108Y-20256826D01*
X135518447Y-20253316D01*
X135495243Y-20247504D01*
X135472721Y-20239446D01*
X135451097Y-20229218D01*
X135430580Y-20216921D01*
X135411367Y-20202671D01*
X135393643Y-20186607D01*
X135377579Y-20168883D01*
X135363329Y-20149670D01*
X135351032Y-20129153D01*
X135340804Y-20107529D01*
X135332746Y-20085007D01*
X135326934Y-20061803D01*
X135323424Y-20038142D01*
X135322250Y-20014250D01*
X135322250Y-19101750D01*
X135323424Y-19077858D01*
X135326934Y-19054197D01*
X135332746Y-19030993D01*
X135340804Y-19008471D01*
X135351032Y-18986847D01*
X135363329Y-18966330D01*
X135377579Y-18947117D01*
X135393643Y-18929393D01*
X135411367Y-18913329D01*
X135430580Y-18899079D01*
X135451097Y-18886782D01*
X135472721Y-18876554D01*
X135495243Y-18868496D01*
X135518447Y-18862684D01*
X135542108Y-18859174D01*
X135566000Y-18858000D01*
X136053500Y-18858000D01*
X136077392Y-18859174D01*
X136077392Y-18859174D01*
G37*
D13*
X135809750Y-19558000D03*
D12*
G36*
X137952392Y-18859174D02*
G01*
X137976053Y-18862684D01*
X137999257Y-18868496D01*
X138021779Y-18876554D01*
X138043403Y-18886782D01*
X138063920Y-18899079D01*
X138083133Y-18913329D01*
X138100857Y-18929393D01*
X138116921Y-18947117D01*
X138131171Y-18966330D01*
X138143468Y-18986847D01*
X138153696Y-19008471D01*
X138161754Y-19030993D01*
X138167566Y-19054197D01*
X138171076Y-19077858D01*
X138172250Y-19101750D01*
X138172250Y-20014250D01*
X138171076Y-20038142D01*
X138167566Y-20061803D01*
X138161754Y-20085007D01*
X138153696Y-20107529D01*
X138143468Y-20129153D01*
X138131171Y-20149670D01*
X138116921Y-20168883D01*
X138100857Y-20186607D01*
X138083133Y-20202671D01*
X138063920Y-20216921D01*
X138043403Y-20229218D01*
X138021779Y-20239446D01*
X137999257Y-20247504D01*
X137976053Y-20253316D01*
X137952392Y-20256826D01*
X137928500Y-20258000D01*
X137441000Y-20258000D01*
X137417108Y-20256826D01*
X137393447Y-20253316D01*
X137370243Y-20247504D01*
X137347721Y-20239446D01*
X137326097Y-20229218D01*
X137305580Y-20216921D01*
X137286367Y-20202671D01*
X137268643Y-20186607D01*
X137252579Y-20168883D01*
X137238329Y-20149670D01*
X137226032Y-20129153D01*
X137215804Y-20107529D01*
X137207746Y-20085007D01*
X137201934Y-20061803D01*
X137198424Y-20038142D01*
X137197250Y-20014250D01*
X137197250Y-19101750D01*
X137198424Y-19077858D01*
X137201934Y-19054197D01*
X137207746Y-19030993D01*
X137215804Y-19008471D01*
X137226032Y-18986847D01*
X137238329Y-18966330D01*
X137252579Y-18947117D01*
X137268643Y-18929393D01*
X137286367Y-18913329D01*
X137305580Y-18899079D01*
X137326097Y-18886782D01*
X137347721Y-18876554D01*
X137370243Y-18868496D01*
X137393447Y-18862684D01*
X137417108Y-18859174D01*
X137441000Y-18858000D01*
X137928500Y-18858000D01*
X137952392Y-18859174D01*
X137952392Y-18859174D01*
G37*
D13*
X137684750Y-19558000D03*
D12*
G36*
X136077392Y-16541424D02*
G01*
X136101053Y-16544934D01*
X136124257Y-16550746D01*
X136146779Y-16558804D01*
X136168403Y-16569032D01*
X136188920Y-16581329D01*
X136208133Y-16595579D01*
X136225857Y-16611643D01*
X136241921Y-16629367D01*
X136256171Y-16648580D01*
X136268468Y-16669097D01*
X136278696Y-16690721D01*
X136286754Y-16713243D01*
X136292566Y-16736447D01*
X136296076Y-16760108D01*
X136297250Y-16784000D01*
X136297250Y-17696500D01*
X136296076Y-17720392D01*
X136292566Y-17744053D01*
X136286754Y-17767257D01*
X136278696Y-17789779D01*
X136268468Y-17811403D01*
X136256171Y-17831920D01*
X136241921Y-17851133D01*
X136225857Y-17868857D01*
X136208133Y-17884921D01*
X136188920Y-17899171D01*
X136168403Y-17911468D01*
X136146779Y-17921696D01*
X136124257Y-17929754D01*
X136101053Y-17935566D01*
X136077392Y-17939076D01*
X136053500Y-17940250D01*
X135566000Y-17940250D01*
X135542108Y-17939076D01*
X135518447Y-17935566D01*
X135495243Y-17929754D01*
X135472721Y-17921696D01*
X135451097Y-17911468D01*
X135430580Y-17899171D01*
X135411367Y-17884921D01*
X135393643Y-17868857D01*
X135377579Y-17851133D01*
X135363329Y-17831920D01*
X135351032Y-17811403D01*
X135340804Y-17789779D01*
X135332746Y-17767257D01*
X135326934Y-17744053D01*
X135323424Y-17720392D01*
X135322250Y-17696500D01*
X135322250Y-16784000D01*
X135323424Y-16760108D01*
X135326934Y-16736447D01*
X135332746Y-16713243D01*
X135340804Y-16690721D01*
X135351032Y-16669097D01*
X135363329Y-16648580D01*
X135377579Y-16629367D01*
X135393643Y-16611643D01*
X135411367Y-16595579D01*
X135430580Y-16581329D01*
X135451097Y-16569032D01*
X135472721Y-16558804D01*
X135495243Y-16550746D01*
X135518447Y-16544934D01*
X135542108Y-16541424D01*
X135566000Y-16540250D01*
X136053500Y-16540250D01*
X136077392Y-16541424D01*
X136077392Y-16541424D01*
G37*
D13*
X135809750Y-17240250D03*
D12*
G36*
X137952392Y-16541424D02*
G01*
X137976053Y-16544934D01*
X137999257Y-16550746D01*
X138021779Y-16558804D01*
X138043403Y-16569032D01*
X138063920Y-16581329D01*
X138083133Y-16595579D01*
X138100857Y-16611643D01*
X138116921Y-16629367D01*
X138131171Y-16648580D01*
X138143468Y-16669097D01*
X138153696Y-16690721D01*
X138161754Y-16713243D01*
X138167566Y-16736447D01*
X138171076Y-16760108D01*
X138172250Y-16784000D01*
X138172250Y-17696500D01*
X138171076Y-17720392D01*
X138167566Y-17744053D01*
X138161754Y-17767257D01*
X138153696Y-17789779D01*
X138143468Y-17811403D01*
X138131171Y-17831920D01*
X138116921Y-17851133D01*
X138100857Y-17868857D01*
X138083133Y-17884921D01*
X138063920Y-17899171D01*
X138043403Y-17911468D01*
X138021779Y-17921696D01*
X137999257Y-17929754D01*
X137976053Y-17935566D01*
X137952392Y-17939076D01*
X137928500Y-17940250D01*
X137441000Y-17940250D01*
X137417108Y-17939076D01*
X137393447Y-17935566D01*
X137370243Y-17929754D01*
X137347721Y-17921696D01*
X137326097Y-17911468D01*
X137305580Y-17899171D01*
X137286367Y-17884921D01*
X137268643Y-17868857D01*
X137252579Y-17851133D01*
X137238329Y-17831920D01*
X137226032Y-17811403D01*
X137215804Y-17789779D01*
X137207746Y-17767257D01*
X137201934Y-17744053D01*
X137198424Y-17720392D01*
X137197250Y-17696500D01*
X137197250Y-16784000D01*
X137198424Y-16760108D01*
X137201934Y-16736447D01*
X137207746Y-16713243D01*
X137215804Y-16690721D01*
X137226032Y-16669097D01*
X137238329Y-16648580D01*
X137252579Y-16629367D01*
X137268643Y-16611643D01*
X137286367Y-16595579D01*
X137305580Y-16581329D01*
X137326097Y-16569032D01*
X137347721Y-16558804D01*
X137370243Y-16550746D01*
X137393447Y-16544934D01*
X137417108Y-16541424D01*
X137441000Y-16540250D01*
X137928500Y-16540250D01*
X137952392Y-16541424D01*
X137952392Y-16541424D01*
G37*
D13*
X137684750Y-17240250D03*
D12*
G36*
X401109642Y-33337174D02*
G01*
X401133303Y-33340684D01*
X401156507Y-33346496D01*
X401179029Y-33354554D01*
X401200653Y-33364782D01*
X401221170Y-33377079D01*
X401240383Y-33391329D01*
X401258107Y-33407393D01*
X401274171Y-33425117D01*
X401288421Y-33444330D01*
X401300718Y-33464847D01*
X401310946Y-33486471D01*
X401319004Y-33508993D01*
X401324816Y-33532197D01*
X401328326Y-33555858D01*
X401329500Y-33579750D01*
X401329500Y-34492250D01*
X401328326Y-34516142D01*
X401324816Y-34539803D01*
X401319004Y-34563007D01*
X401310946Y-34585529D01*
X401300718Y-34607153D01*
X401288421Y-34627670D01*
X401274171Y-34646883D01*
X401258107Y-34664607D01*
X401240383Y-34680671D01*
X401221170Y-34694921D01*
X401200653Y-34707218D01*
X401179029Y-34717446D01*
X401156507Y-34725504D01*
X401133303Y-34731316D01*
X401109642Y-34734826D01*
X401085750Y-34736000D01*
X400598250Y-34736000D01*
X400574358Y-34734826D01*
X400550697Y-34731316D01*
X400527493Y-34725504D01*
X400504971Y-34717446D01*
X400483347Y-34707218D01*
X400462830Y-34694921D01*
X400443617Y-34680671D01*
X400425893Y-34664607D01*
X400409829Y-34646883D01*
X400395579Y-34627670D01*
X400383282Y-34607153D01*
X400373054Y-34585529D01*
X400364996Y-34563007D01*
X400359184Y-34539803D01*
X400355674Y-34516142D01*
X400354500Y-34492250D01*
X400354500Y-33579750D01*
X400355674Y-33555858D01*
X400359184Y-33532197D01*
X400364996Y-33508993D01*
X400373054Y-33486471D01*
X400383282Y-33464847D01*
X400395579Y-33444330D01*
X400409829Y-33425117D01*
X400425893Y-33407393D01*
X400443617Y-33391329D01*
X400462830Y-33377079D01*
X400483347Y-33364782D01*
X400504971Y-33354554D01*
X400527493Y-33346496D01*
X400550697Y-33340684D01*
X400574358Y-33337174D01*
X400598250Y-33336000D01*
X401085750Y-33336000D01*
X401109642Y-33337174D01*
X401109642Y-33337174D01*
G37*
D13*
X400842000Y-34036000D03*
D12*
G36*
X402984642Y-33337174D02*
G01*
X403008303Y-33340684D01*
X403031507Y-33346496D01*
X403054029Y-33354554D01*
X403075653Y-33364782D01*
X403096170Y-33377079D01*
X403115383Y-33391329D01*
X403133107Y-33407393D01*
X403149171Y-33425117D01*
X403163421Y-33444330D01*
X403175718Y-33464847D01*
X403185946Y-33486471D01*
X403194004Y-33508993D01*
X403199816Y-33532197D01*
X403203326Y-33555858D01*
X403204500Y-33579750D01*
X403204500Y-34492250D01*
X403203326Y-34516142D01*
X403199816Y-34539803D01*
X403194004Y-34563007D01*
X403185946Y-34585529D01*
X403175718Y-34607153D01*
X403163421Y-34627670D01*
X403149171Y-34646883D01*
X403133107Y-34664607D01*
X403115383Y-34680671D01*
X403096170Y-34694921D01*
X403075653Y-34707218D01*
X403054029Y-34717446D01*
X403031507Y-34725504D01*
X403008303Y-34731316D01*
X402984642Y-34734826D01*
X402960750Y-34736000D01*
X402473250Y-34736000D01*
X402449358Y-34734826D01*
X402425697Y-34731316D01*
X402402493Y-34725504D01*
X402379971Y-34717446D01*
X402358347Y-34707218D01*
X402337830Y-34694921D01*
X402318617Y-34680671D01*
X402300893Y-34664607D01*
X402284829Y-34646883D01*
X402270579Y-34627670D01*
X402258282Y-34607153D01*
X402248054Y-34585529D01*
X402239996Y-34563007D01*
X402234184Y-34539803D01*
X402230674Y-34516142D01*
X402229500Y-34492250D01*
X402229500Y-33579750D01*
X402230674Y-33555858D01*
X402234184Y-33532197D01*
X402239996Y-33508993D01*
X402248054Y-33486471D01*
X402258282Y-33464847D01*
X402270579Y-33444330D01*
X402284829Y-33425117D01*
X402300893Y-33407393D01*
X402318617Y-33391329D01*
X402337830Y-33377079D01*
X402358347Y-33364782D01*
X402379971Y-33354554D01*
X402402493Y-33346496D01*
X402425697Y-33340684D01*
X402449358Y-33337174D01*
X402473250Y-33336000D01*
X402960750Y-33336000D01*
X402984642Y-33337174D01*
X402984642Y-33337174D01*
G37*
D13*
X402717000Y-34036000D03*
D12*
G36*
X117870504Y-30615204D02*
G01*
X117894773Y-30618804D01*
X117918571Y-30624765D01*
X117941671Y-30633030D01*
X117963849Y-30643520D01*
X117984893Y-30656133D01*
X118004598Y-30670747D01*
X118022777Y-30687223D01*
X118039253Y-30705402D01*
X118053867Y-30725107D01*
X118066480Y-30746151D01*
X118076970Y-30768329D01*
X118085235Y-30791429D01*
X118091196Y-30815227D01*
X118094796Y-30839496D01*
X118096000Y-30864000D01*
X118096000Y-31614000D01*
X118094796Y-31638504D01*
X118091196Y-31662773D01*
X118085235Y-31686571D01*
X118076970Y-31709671D01*
X118066480Y-31731849D01*
X118053867Y-31752893D01*
X118039253Y-31772598D01*
X118022777Y-31790777D01*
X118004598Y-31807253D01*
X117984893Y-31821867D01*
X117963849Y-31834480D01*
X117941671Y-31844970D01*
X117918571Y-31853235D01*
X117894773Y-31859196D01*
X117870504Y-31862796D01*
X117846000Y-31864000D01*
X116596000Y-31864000D01*
X116571496Y-31862796D01*
X116547227Y-31859196D01*
X116523429Y-31853235D01*
X116500329Y-31844970D01*
X116478151Y-31834480D01*
X116457107Y-31821867D01*
X116437402Y-31807253D01*
X116419223Y-31790777D01*
X116402747Y-31772598D01*
X116388133Y-31752893D01*
X116375520Y-31731849D01*
X116365030Y-31709671D01*
X116356765Y-31686571D01*
X116350804Y-31662773D01*
X116347204Y-31638504D01*
X116346000Y-31614000D01*
X116346000Y-30864000D01*
X116347204Y-30839496D01*
X116350804Y-30815227D01*
X116356765Y-30791429D01*
X116365030Y-30768329D01*
X116375520Y-30746151D01*
X116388133Y-30725107D01*
X116402747Y-30705402D01*
X116419223Y-30687223D01*
X116437402Y-30670747D01*
X116457107Y-30656133D01*
X116478151Y-30643520D01*
X116500329Y-30633030D01*
X116523429Y-30624765D01*
X116547227Y-30618804D01*
X116571496Y-30615204D01*
X116596000Y-30614000D01*
X117846000Y-30614000D01*
X117870504Y-30615204D01*
X117870504Y-30615204D01*
G37*
D20*
X117221000Y-31239000D03*
D12*
G36*
X117870504Y-33415204D02*
G01*
X117894773Y-33418804D01*
X117918571Y-33424765D01*
X117941671Y-33433030D01*
X117963849Y-33443520D01*
X117984893Y-33456133D01*
X118004598Y-33470747D01*
X118022777Y-33487223D01*
X118039253Y-33505402D01*
X118053867Y-33525107D01*
X118066480Y-33546151D01*
X118076970Y-33568329D01*
X118085235Y-33591429D01*
X118091196Y-33615227D01*
X118094796Y-33639496D01*
X118096000Y-33664000D01*
X118096000Y-34414000D01*
X118094796Y-34438504D01*
X118091196Y-34462773D01*
X118085235Y-34486571D01*
X118076970Y-34509671D01*
X118066480Y-34531849D01*
X118053867Y-34552893D01*
X118039253Y-34572598D01*
X118022777Y-34590777D01*
X118004598Y-34607253D01*
X117984893Y-34621867D01*
X117963849Y-34634480D01*
X117941671Y-34644970D01*
X117918571Y-34653235D01*
X117894773Y-34659196D01*
X117870504Y-34662796D01*
X117846000Y-34664000D01*
X116596000Y-34664000D01*
X116571496Y-34662796D01*
X116547227Y-34659196D01*
X116523429Y-34653235D01*
X116500329Y-34644970D01*
X116478151Y-34634480D01*
X116457107Y-34621867D01*
X116437402Y-34607253D01*
X116419223Y-34590777D01*
X116402747Y-34572598D01*
X116388133Y-34552893D01*
X116375520Y-34531849D01*
X116365030Y-34509671D01*
X116356765Y-34486571D01*
X116350804Y-34462773D01*
X116347204Y-34438504D01*
X116346000Y-34414000D01*
X116346000Y-33664000D01*
X116347204Y-33639496D01*
X116350804Y-33615227D01*
X116356765Y-33591429D01*
X116365030Y-33568329D01*
X116375520Y-33546151D01*
X116388133Y-33525107D01*
X116402747Y-33505402D01*
X116419223Y-33487223D01*
X116437402Y-33470747D01*
X116457107Y-33456133D01*
X116478151Y-33443520D01*
X116500329Y-33433030D01*
X116523429Y-33424765D01*
X116547227Y-33418804D01*
X116571496Y-33415204D01*
X116596000Y-33414000D01*
X117846000Y-33414000D01*
X117870504Y-33415204D01*
X117870504Y-33415204D01*
G37*
D20*
X117221000Y-34039000D03*
D21*
X434720000Y-131826000D03*
X431420000Y-131826000D03*
D22*
X423862500Y-106300000D03*
X423862500Y-109600000D03*
D21*
X430275000Y-98425000D03*
X426975000Y-98425000D03*
X407925000Y-80168750D03*
X411225000Y-80168750D03*
X433831000Y-80010000D03*
X430531000Y-80010000D03*
D22*
X423862500Y-125350000D03*
X423862500Y-128650000D03*
X404812500Y-106300000D03*
X404812500Y-109600000D03*
X404812500Y-87250000D03*
X404812500Y-90550000D03*
X365125000Y-72962500D03*
X365125000Y-76262500D03*
X381000000Y-52450000D03*
X381000000Y-49150000D03*
X381000000Y-25337500D03*
X381000000Y-28637500D03*
X404812500Y-125350000D03*
X404812500Y-128650000D03*
X376555000Y-112521000D03*
X376555000Y-109221000D03*
X361950000Y-87250000D03*
X361950000Y-90550000D03*
X361950000Y-71500000D03*
X361950000Y-68200000D03*
X361950000Y-52450000D03*
X361950000Y-49150000D03*
X361950000Y-25337500D03*
X361950000Y-28637500D03*
X358775000Y-111062500D03*
X358775000Y-114362500D03*
X342900000Y-87250000D03*
X342900000Y-90550000D03*
X342900000Y-71500000D03*
X342900000Y-68200000D03*
X342900000Y-52450000D03*
X342900000Y-49150000D03*
X361950000Y-125350000D03*
X361950000Y-128650000D03*
X342900000Y-106300000D03*
X342900000Y-109600000D03*
X323850000Y-87250000D03*
X323850000Y-90550000D03*
X323850000Y-71500000D03*
X323850000Y-68200000D03*
X247650000Y-106300000D03*
X247650000Y-109600000D03*
X257175000Y-87250000D03*
X257175000Y-90550000D03*
X252412500Y-71500000D03*
X252412500Y-68200000D03*
X242887500Y-52450000D03*
X242887500Y-49150000D03*
X257175000Y-25337500D03*
X257175000Y-28637500D03*
X228600000Y-106300000D03*
X228600000Y-109600000D03*
X238125000Y-90550000D03*
X238125000Y-87250000D03*
X233362500Y-71500000D03*
X233362500Y-68200000D03*
X223837500Y-52450000D03*
X223837500Y-49150000D03*
X238125000Y-25337500D03*
X238125000Y-28637500D03*
X250031250Y-128650000D03*
X250031250Y-125350000D03*
X226218750Y-128650000D03*
X226218750Y-125350000D03*
X209550000Y-106300000D03*
X209550000Y-109600000D03*
X219075000Y-87250000D03*
X219075000Y-90550000D03*
X214312500Y-68200000D03*
X214312500Y-71500000D03*
X204787500Y-49150000D03*
X204787500Y-52450000D03*
X176212500Y-25337500D03*
X176212500Y-28637500D03*
X154781250Y-128650000D03*
X154781250Y-125350000D03*
X152400000Y-106300000D03*
X152400000Y-109600000D03*
X161925000Y-87250000D03*
X161925000Y-90550000D03*
X157162500Y-68200000D03*
X157162500Y-71500000D03*
X147637500Y-49150000D03*
X147637500Y-52450000D03*
X157162500Y-25337500D03*
X157162500Y-28637500D03*
X133350000Y-106300000D03*
X133350000Y-109600000D03*
X142875000Y-87250000D03*
X142875000Y-90550000D03*
X138112500Y-68200000D03*
X138112500Y-71500000D03*
X128587500Y-49150000D03*
X128587500Y-52450000D03*
X138112500Y-25337500D03*
X138112500Y-28637500D03*
X114300000Y-106300000D03*
X114300000Y-109600000D03*
X123825000Y-87250000D03*
X123825000Y-90550000D03*
X119062500Y-68200000D03*
X119062500Y-71500000D03*
X109537500Y-49150000D03*
X109537500Y-52450000D03*
X114300000Y-25337500D03*
X114300000Y-28637500D03*
X95250000Y-106300000D03*
X95250000Y-109600000D03*
X104775000Y-87250000D03*
X104775000Y-90550000D03*
X100012500Y-68200000D03*
X100012500Y-71500000D03*
X83343750Y-125350000D03*
X83343750Y-128650000D03*
X76200000Y-106300000D03*
X76200000Y-109600000D03*
X85725000Y-87250000D03*
X85725000Y-90550000D03*
X80962500Y-68200000D03*
X80962500Y-71500000D03*
X71437500Y-49150000D03*
X71437500Y-52450000D03*
X76200000Y-25337500D03*
X76200000Y-28637500D03*
X59531250Y-125350000D03*
X59531250Y-128650000D03*
X57150000Y-106300000D03*
X57150000Y-109600000D03*
X66675000Y-87250000D03*
X66675000Y-90550000D03*
X61912500Y-68200000D03*
X61912500Y-71500000D03*
X52387500Y-49150000D03*
X52387500Y-52450000D03*
X57150000Y-25337500D03*
X57150000Y-28637500D03*
X35718750Y-125350000D03*
X35718750Y-128650000D03*
X35718750Y-106300000D03*
X35718750Y-109600000D03*
X40481250Y-87250000D03*
X40481250Y-90550000D03*
X38100000Y-68200000D03*
X38100000Y-71500000D03*
X33337500Y-49150000D03*
X33337500Y-52450000D03*
X33337500Y-25337500D03*
X33337500Y-28637500D03*
X342900000Y-25337500D03*
X342900000Y-28637500D03*
X323850000Y-52450000D03*
X323850000Y-49150000D03*
X323850000Y-25337500D03*
X323850000Y-28637500D03*
X333375000Y-125350000D03*
X333375000Y-128650000D03*
X323850000Y-106300000D03*
X323850000Y-109600000D03*
X288131250Y-87250000D03*
X288131250Y-90550000D03*
X290512500Y-52450000D03*
X290512500Y-49150000D03*
X300037500Y-25337500D03*
X300037500Y-28637500D03*
X297656250Y-125350000D03*
X297656250Y-128650000D03*
X283368750Y-106300000D03*
X283368750Y-109600000D03*
X276225000Y-87250000D03*
X276225000Y-90550000D03*
X271462500Y-71500000D03*
X271462500Y-68200000D03*
X261937500Y-52450000D03*
X261937500Y-49150000D03*
X276225000Y-25337500D03*
X276225000Y-28637500D03*
X273843750Y-125350000D03*
X273843750Y-128650000D03*
X219075000Y-25337500D03*
X219075000Y-28637500D03*
X190500000Y-106300000D03*
X190500000Y-109600000D03*
X200025000Y-87250000D03*
X200025000Y-90550000D03*
X195262500Y-68200000D03*
X195262500Y-71500000D03*
X185737500Y-49150000D03*
X185737500Y-52450000D03*
X196056250Y-25337500D03*
X196056250Y-28637500D03*
X171450000Y-106300000D03*
X171450000Y-109600000D03*
X180975000Y-87250000D03*
X180975000Y-90550000D03*
X176212500Y-68200000D03*
X176212500Y-71500000D03*
X166687500Y-49150000D03*
X166687500Y-52450000D03*
X90487500Y-49150000D03*
X90487500Y-52450000D03*
X95250000Y-25337500D03*
X95250000Y-28637500D03*
D12*
G36*
X413684392Y-55911424D02*
G01*
X413708053Y-55914934D01*
X413731257Y-55920746D01*
X413753779Y-55928804D01*
X413775403Y-55939032D01*
X413795920Y-55951329D01*
X413815133Y-55965579D01*
X413832857Y-55981643D01*
X413848921Y-55999367D01*
X413863171Y-56018580D01*
X413875468Y-56039097D01*
X413885696Y-56060721D01*
X413893754Y-56083243D01*
X413899566Y-56106447D01*
X413903076Y-56130108D01*
X413904250Y-56154000D01*
X413904250Y-57066500D01*
X413903076Y-57090392D01*
X413899566Y-57114053D01*
X413893754Y-57137257D01*
X413885696Y-57159779D01*
X413875468Y-57181403D01*
X413863171Y-57201920D01*
X413848921Y-57221133D01*
X413832857Y-57238857D01*
X413815133Y-57254921D01*
X413795920Y-57269171D01*
X413775403Y-57281468D01*
X413753779Y-57291696D01*
X413731257Y-57299754D01*
X413708053Y-57305566D01*
X413684392Y-57309076D01*
X413660500Y-57310250D01*
X413173000Y-57310250D01*
X413149108Y-57309076D01*
X413125447Y-57305566D01*
X413102243Y-57299754D01*
X413079721Y-57291696D01*
X413058097Y-57281468D01*
X413037580Y-57269171D01*
X413018367Y-57254921D01*
X413000643Y-57238857D01*
X412984579Y-57221133D01*
X412970329Y-57201920D01*
X412958032Y-57181403D01*
X412947804Y-57159779D01*
X412939746Y-57137257D01*
X412933934Y-57114053D01*
X412930424Y-57090392D01*
X412929250Y-57066500D01*
X412929250Y-56154000D01*
X412930424Y-56130108D01*
X412933934Y-56106447D01*
X412939746Y-56083243D01*
X412947804Y-56060721D01*
X412958032Y-56039097D01*
X412970329Y-56018580D01*
X412984579Y-55999367D01*
X413000643Y-55981643D01*
X413018367Y-55965579D01*
X413037580Y-55951329D01*
X413058097Y-55939032D01*
X413079721Y-55928804D01*
X413102243Y-55920746D01*
X413125447Y-55914934D01*
X413149108Y-55911424D01*
X413173000Y-55910250D01*
X413660500Y-55910250D01*
X413684392Y-55911424D01*
X413684392Y-55911424D01*
G37*
D13*
X413416750Y-56610250D03*
D12*
G36*
X415559392Y-55911424D02*
G01*
X415583053Y-55914934D01*
X415606257Y-55920746D01*
X415628779Y-55928804D01*
X415650403Y-55939032D01*
X415670920Y-55951329D01*
X415690133Y-55965579D01*
X415707857Y-55981643D01*
X415723921Y-55999367D01*
X415738171Y-56018580D01*
X415750468Y-56039097D01*
X415760696Y-56060721D01*
X415768754Y-56083243D01*
X415774566Y-56106447D01*
X415778076Y-56130108D01*
X415779250Y-56154000D01*
X415779250Y-57066500D01*
X415778076Y-57090392D01*
X415774566Y-57114053D01*
X415768754Y-57137257D01*
X415760696Y-57159779D01*
X415750468Y-57181403D01*
X415738171Y-57201920D01*
X415723921Y-57221133D01*
X415707857Y-57238857D01*
X415690133Y-57254921D01*
X415670920Y-57269171D01*
X415650403Y-57281468D01*
X415628779Y-57291696D01*
X415606257Y-57299754D01*
X415583053Y-57305566D01*
X415559392Y-57309076D01*
X415535500Y-57310250D01*
X415048000Y-57310250D01*
X415024108Y-57309076D01*
X415000447Y-57305566D01*
X414977243Y-57299754D01*
X414954721Y-57291696D01*
X414933097Y-57281468D01*
X414912580Y-57269171D01*
X414893367Y-57254921D01*
X414875643Y-57238857D01*
X414859579Y-57221133D01*
X414845329Y-57201920D01*
X414833032Y-57181403D01*
X414822804Y-57159779D01*
X414814746Y-57137257D01*
X414808934Y-57114053D01*
X414805424Y-57090392D01*
X414804250Y-57066500D01*
X414804250Y-56154000D01*
X414805424Y-56130108D01*
X414808934Y-56106447D01*
X414814746Y-56083243D01*
X414822804Y-56060721D01*
X414833032Y-56039097D01*
X414845329Y-56018580D01*
X414859579Y-55999367D01*
X414875643Y-55981643D01*
X414893367Y-55965579D01*
X414912580Y-55951329D01*
X414933097Y-55939032D01*
X414954721Y-55928804D01*
X414977243Y-55920746D01*
X415000447Y-55914934D01*
X415024108Y-55911424D01*
X415048000Y-55910250D01*
X415535500Y-55910250D01*
X415559392Y-55911424D01*
X415559392Y-55911424D01*
G37*
D13*
X415291750Y-56610250D03*
D12*
G36*
X404371892Y-37692174D02*
G01*
X404395553Y-37695684D01*
X404418757Y-37701496D01*
X404441279Y-37709554D01*
X404462903Y-37719782D01*
X404483420Y-37732079D01*
X404502633Y-37746329D01*
X404520357Y-37762393D01*
X404536421Y-37780117D01*
X404550671Y-37799330D01*
X404562968Y-37819847D01*
X404573196Y-37841471D01*
X404581254Y-37863993D01*
X404587066Y-37887197D01*
X404590576Y-37910858D01*
X404591750Y-37934750D01*
X404591750Y-38422250D01*
X404590576Y-38446142D01*
X404587066Y-38469803D01*
X404581254Y-38493007D01*
X404573196Y-38515529D01*
X404562968Y-38537153D01*
X404550671Y-38557670D01*
X404536421Y-38576883D01*
X404520357Y-38594607D01*
X404502633Y-38610671D01*
X404483420Y-38624921D01*
X404462903Y-38637218D01*
X404441279Y-38647446D01*
X404418757Y-38655504D01*
X404395553Y-38661316D01*
X404371892Y-38664826D01*
X404348000Y-38666000D01*
X403435500Y-38666000D01*
X403411608Y-38664826D01*
X403387947Y-38661316D01*
X403364743Y-38655504D01*
X403342221Y-38647446D01*
X403320597Y-38637218D01*
X403300080Y-38624921D01*
X403280867Y-38610671D01*
X403263143Y-38594607D01*
X403247079Y-38576883D01*
X403232829Y-38557670D01*
X403220532Y-38537153D01*
X403210304Y-38515529D01*
X403202246Y-38493007D01*
X403196434Y-38469803D01*
X403192924Y-38446142D01*
X403191750Y-38422250D01*
X403191750Y-37934750D01*
X403192924Y-37910858D01*
X403196434Y-37887197D01*
X403202246Y-37863993D01*
X403210304Y-37841471D01*
X403220532Y-37819847D01*
X403232829Y-37799330D01*
X403247079Y-37780117D01*
X403263143Y-37762393D01*
X403280867Y-37746329D01*
X403300080Y-37732079D01*
X403320597Y-37719782D01*
X403342221Y-37709554D01*
X403364743Y-37701496D01*
X403387947Y-37695684D01*
X403411608Y-37692174D01*
X403435500Y-37691000D01*
X404348000Y-37691000D01*
X404371892Y-37692174D01*
X404371892Y-37692174D01*
G37*
D13*
X403891750Y-38178500D03*
D12*
G36*
X404371892Y-39567174D02*
G01*
X404395553Y-39570684D01*
X404418757Y-39576496D01*
X404441279Y-39584554D01*
X404462903Y-39594782D01*
X404483420Y-39607079D01*
X404502633Y-39621329D01*
X404520357Y-39637393D01*
X404536421Y-39655117D01*
X404550671Y-39674330D01*
X404562968Y-39694847D01*
X404573196Y-39716471D01*
X404581254Y-39738993D01*
X404587066Y-39762197D01*
X404590576Y-39785858D01*
X404591750Y-39809750D01*
X404591750Y-40297250D01*
X404590576Y-40321142D01*
X404587066Y-40344803D01*
X404581254Y-40368007D01*
X404573196Y-40390529D01*
X404562968Y-40412153D01*
X404550671Y-40432670D01*
X404536421Y-40451883D01*
X404520357Y-40469607D01*
X404502633Y-40485671D01*
X404483420Y-40499921D01*
X404462903Y-40512218D01*
X404441279Y-40522446D01*
X404418757Y-40530504D01*
X404395553Y-40536316D01*
X404371892Y-40539826D01*
X404348000Y-40541000D01*
X403435500Y-40541000D01*
X403411608Y-40539826D01*
X403387947Y-40536316D01*
X403364743Y-40530504D01*
X403342221Y-40522446D01*
X403320597Y-40512218D01*
X403300080Y-40499921D01*
X403280867Y-40485671D01*
X403263143Y-40469607D01*
X403247079Y-40451883D01*
X403232829Y-40432670D01*
X403220532Y-40412153D01*
X403210304Y-40390529D01*
X403202246Y-40368007D01*
X403196434Y-40344803D01*
X403192924Y-40321142D01*
X403191750Y-40297250D01*
X403191750Y-39809750D01*
X403192924Y-39785858D01*
X403196434Y-39762197D01*
X403202246Y-39738993D01*
X403210304Y-39716471D01*
X403220532Y-39694847D01*
X403232829Y-39674330D01*
X403247079Y-39655117D01*
X403263143Y-39637393D01*
X403280867Y-39621329D01*
X403300080Y-39607079D01*
X403320597Y-39594782D01*
X403342221Y-39584554D01*
X403364743Y-39576496D01*
X403387947Y-39570684D01*
X403411608Y-39567174D01*
X403435500Y-39566000D01*
X404348000Y-39566000D01*
X404371892Y-39567174D01*
X404371892Y-39567174D01*
G37*
D13*
X403891750Y-40053500D03*
D12*
G36*
X420246892Y-42486424D02*
G01*
X420270553Y-42489934D01*
X420293757Y-42495746D01*
X420316279Y-42503804D01*
X420337903Y-42514032D01*
X420358420Y-42526329D01*
X420377633Y-42540579D01*
X420395357Y-42556643D01*
X420411421Y-42574367D01*
X420425671Y-42593580D01*
X420437968Y-42614097D01*
X420448196Y-42635721D01*
X420456254Y-42658243D01*
X420462066Y-42681447D01*
X420465576Y-42705108D01*
X420466750Y-42729000D01*
X420466750Y-43216500D01*
X420465576Y-43240392D01*
X420462066Y-43264053D01*
X420456254Y-43287257D01*
X420448196Y-43309779D01*
X420437968Y-43331403D01*
X420425671Y-43351920D01*
X420411421Y-43371133D01*
X420395357Y-43388857D01*
X420377633Y-43404921D01*
X420358420Y-43419171D01*
X420337903Y-43431468D01*
X420316279Y-43441696D01*
X420293757Y-43449754D01*
X420270553Y-43455566D01*
X420246892Y-43459076D01*
X420223000Y-43460250D01*
X419310500Y-43460250D01*
X419286608Y-43459076D01*
X419262947Y-43455566D01*
X419239743Y-43449754D01*
X419217221Y-43441696D01*
X419195597Y-43431468D01*
X419175080Y-43419171D01*
X419155867Y-43404921D01*
X419138143Y-43388857D01*
X419122079Y-43371133D01*
X419107829Y-43351920D01*
X419095532Y-43331403D01*
X419085304Y-43309779D01*
X419077246Y-43287257D01*
X419071434Y-43264053D01*
X419067924Y-43240392D01*
X419066750Y-43216500D01*
X419066750Y-42729000D01*
X419067924Y-42705108D01*
X419071434Y-42681447D01*
X419077246Y-42658243D01*
X419085304Y-42635721D01*
X419095532Y-42614097D01*
X419107829Y-42593580D01*
X419122079Y-42574367D01*
X419138143Y-42556643D01*
X419155867Y-42540579D01*
X419175080Y-42526329D01*
X419195597Y-42514032D01*
X419217221Y-42503804D01*
X419239743Y-42495746D01*
X419262947Y-42489934D01*
X419286608Y-42486424D01*
X419310500Y-42485250D01*
X420223000Y-42485250D01*
X420246892Y-42486424D01*
X420246892Y-42486424D01*
G37*
D13*
X419766750Y-42972750D03*
D12*
G36*
X420246892Y-44361424D02*
G01*
X420270553Y-44364934D01*
X420293757Y-44370746D01*
X420316279Y-44378804D01*
X420337903Y-44389032D01*
X420358420Y-44401329D01*
X420377633Y-44415579D01*
X420395357Y-44431643D01*
X420411421Y-44449367D01*
X420425671Y-44468580D01*
X420437968Y-44489097D01*
X420448196Y-44510721D01*
X420456254Y-44533243D01*
X420462066Y-44556447D01*
X420465576Y-44580108D01*
X420466750Y-44604000D01*
X420466750Y-45091500D01*
X420465576Y-45115392D01*
X420462066Y-45139053D01*
X420456254Y-45162257D01*
X420448196Y-45184779D01*
X420437968Y-45206403D01*
X420425671Y-45226920D01*
X420411421Y-45246133D01*
X420395357Y-45263857D01*
X420377633Y-45279921D01*
X420358420Y-45294171D01*
X420337903Y-45306468D01*
X420316279Y-45316696D01*
X420293757Y-45324754D01*
X420270553Y-45330566D01*
X420246892Y-45334076D01*
X420223000Y-45335250D01*
X419310500Y-45335250D01*
X419286608Y-45334076D01*
X419262947Y-45330566D01*
X419239743Y-45324754D01*
X419217221Y-45316696D01*
X419195597Y-45306468D01*
X419175080Y-45294171D01*
X419155867Y-45279921D01*
X419138143Y-45263857D01*
X419122079Y-45246133D01*
X419107829Y-45226920D01*
X419095532Y-45206403D01*
X419085304Y-45184779D01*
X419077246Y-45162257D01*
X419071434Y-45139053D01*
X419067924Y-45115392D01*
X419066750Y-45091500D01*
X419066750Y-44604000D01*
X419067924Y-44580108D01*
X419071434Y-44556447D01*
X419077246Y-44533243D01*
X419085304Y-44510721D01*
X419095532Y-44489097D01*
X419107829Y-44468580D01*
X419122079Y-44449367D01*
X419138143Y-44431643D01*
X419155867Y-44415579D01*
X419175080Y-44401329D01*
X419195597Y-44389032D01*
X419217221Y-44378804D01*
X419239743Y-44370746D01*
X419262947Y-44364934D01*
X419286608Y-44361424D01*
X419310500Y-44360250D01*
X420223000Y-44360250D01*
X420246892Y-44361424D01*
X420246892Y-44361424D01*
G37*
D13*
X419766750Y-44847750D03*
D12*
G36*
X400046892Y-46386424D02*
G01*
X400070553Y-46389934D01*
X400093757Y-46395746D01*
X400116279Y-46403804D01*
X400137903Y-46414032D01*
X400158420Y-46426329D01*
X400177633Y-46440579D01*
X400195357Y-46456643D01*
X400211421Y-46474367D01*
X400225671Y-46493580D01*
X400237968Y-46514097D01*
X400248196Y-46535721D01*
X400256254Y-46558243D01*
X400262066Y-46581447D01*
X400265576Y-46605108D01*
X400266750Y-46629000D01*
X400266750Y-47541500D01*
X400265576Y-47565392D01*
X400262066Y-47589053D01*
X400256254Y-47612257D01*
X400248196Y-47634779D01*
X400237968Y-47656403D01*
X400225671Y-47676920D01*
X400211421Y-47696133D01*
X400195357Y-47713857D01*
X400177633Y-47729921D01*
X400158420Y-47744171D01*
X400137903Y-47756468D01*
X400116279Y-47766696D01*
X400093757Y-47774754D01*
X400070553Y-47780566D01*
X400046892Y-47784076D01*
X400023000Y-47785250D01*
X399535500Y-47785250D01*
X399511608Y-47784076D01*
X399487947Y-47780566D01*
X399464743Y-47774754D01*
X399442221Y-47766696D01*
X399420597Y-47756468D01*
X399400080Y-47744171D01*
X399380867Y-47729921D01*
X399363143Y-47713857D01*
X399347079Y-47696133D01*
X399332829Y-47676920D01*
X399320532Y-47656403D01*
X399310304Y-47634779D01*
X399302246Y-47612257D01*
X399296434Y-47589053D01*
X399292924Y-47565392D01*
X399291750Y-47541500D01*
X399291750Y-46629000D01*
X399292924Y-46605108D01*
X399296434Y-46581447D01*
X399302246Y-46558243D01*
X399310304Y-46535721D01*
X399320532Y-46514097D01*
X399332829Y-46493580D01*
X399347079Y-46474367D01*
X399363143Y-46456643D01*
X399380867Y-46440579D01*
X399400080Y-46426329D01*
X399420597Y-46414032D01*
X399442221Y-46403804D01*
X399464743Y-46395746D01*
X399487947Y-46389934D01*
X399511608Y-46386424D01*
X399535500Y-46385250D01*
X400023000Y-46385250D01*
X400046892Y-46386424D01*
X400046892Y-46386424D01*
G37*
D13*
X399779250Y-47085250D03*
D12*
G36*
X401921892Y-46386424D02*
G01*
X401945553Y-46389934D01*
X401968757Y-46395746D01*
X401991279Y-46403804D01*
X402012903Y-46414032D01*
X402033420Y-46426329D01*
X402052633Y-46440579D01*
X402070357Y-46456643D01*
X402086421Y-46474367D01*
X402100671Y-46493580D01*
X402112968Y-46514097D01*
X402123196Y-46535721D01*
X402131254Y-46558243D01*
X402137066Y-46581447D01*
X402140576Y-46605108D01*
X402141750Y-46629000D01*
X402141750Y-47541500D01*
X402140576Y-47565392D01*
X402137066Y-47589053D01*
X402131254Y-47612257D01*
X402123196Y-47634779D01*
X402112968Y-47656403D01*
X402100671Y-47676920D01*
X402086421Y-47696133D01*
X402070357Y-47713857D01*
X402052633Y-47729921D01*
X402033420Y-47744171D01*
X402012903Y-47756468D01*
X401991279Y-47766696D01*
X401968757Y-47774754D01*
X401945553Y-47780566D01*
X401921892Y-47784076D01*
X401898000Y-47785250D01*
X401410500Y-47785250D01*
X401386608Y-47784076D01*
X401362947Y-47780566D01*
X401339743Y-47774754D01*
X401317221Y-47766696D01*
X401295597Y-47756468D01*
X401275080Y-47744171D01*
X401255867Y-47729921D01*
X401238143Y-47713857D01*
X401222079Y-47696133D01*
X401207829Y-47676920D01*
X401195532Y-47656403D01*
X401185304Y-47634779D01*
X401177246Y-47612257D01*
X401171434Y-47589053D01*
X401167924Y-47565392D01*
X401166750Y-47541500D01*
X401166750Y-46629000D01*
X401167924Y-46605108D01*
X401171434Y-46581447D01*
X401177246Y-46558243D01*
X401185304Y-46535721D01*
X401195532Y-46514097D01*
X401207829Y-46493580D01*
X401222079Y-46474367D01*
X401238143Y-46456643D01*
X401255867Y-46440579D01*
X401275080Y-46426329D01*
X401295597Y-46414032D01*
X401317221Y-46403804D01*
X401339743Y-46395746D01*
X401362947Y-46389934D01*
X401386608Y-46386424D01*
X401410500Y-46385250D01*
X401898000Y-46385250D01*
X401921892Y-46386424D01*
X401921892Y-46386424D01*
G37*
D13*
X401654250Y-47085250D03*
D12*
G36*
X408531142Y-31977174D02*
G01*
X408554803Y-31980684D01*
X408578007Y-31986496D01*
X408600529Y-31994554D01*
X408622153Y-32004782D01*
X408642670Y-32017079D01*
X408661883Y-32031329D01*
X408679607Y-32047393D01*
X408695671Y-32065117D01*
X408709921Y-32084330D01*
X408722218Y-32104847D01*
X408732446Y-32126471D01*
X408740504Y-32148993D01*
X408746316Y-32172197D01*
X408749826Y-32195858D01*
X408751000Y-32219750D01*
X408751000Y-32707250D01*
X408749826Y-32731142D01*
X408746316Y-32754803D01*
X408740504Y-32778007D01*
X408732446Y-32800529D01*
X408722218Y-32822153D01*
X408709921Y-32842670D01*
X408695671Y-32861883D01*
X408679607Y-32879607D01*
X408661883Y-32895671D01*
X408642670Y-32909921D01*
X408622153Y-32922218D01*
X408600529Y-32932446D01*
X408578007Y-32940504D01*
X408554803Y-32946316D01*
X408531142Y-32949826D01*
X408507250Y-32951000D01*
X407594750Y-32951000D01*
X407570858Y-32949826D01*
X407547197Y-32946316D01*
X407523993Y-32940504D01*
X407501471Y-32932446D01*
X407479847Y-32922218D01*
X407459330Y-32909921D01*
X407440117Y-32895671D01*
X407422393Y-32879607D01*
X407406329Y-32861883D01*
X407392079Y-32842670D01*
X407379782Y-32822153D01*
X407369554Y-32800529D01*
X407361496Y-32778007D01*
X407355684Y-32754803D01*
X407352174Y-32731142D01*
X407351000Y-32707250D01*
X407351000Y-32219750D01*
X407352174Y-32195858D01*
X407355684Y-32172197D01*
X407361496Y-32148993D01*
X407369554Y-32126471D01*
X407379782Y-32104847D01*
X407392079Y-32084330D01*
X407406329Y-32065117D01*
X407422393Y-32047393D01*
X407440117Y-32031329D01*
X407459330Y-32017079D01*
X407479847Y-32004782D01*
X407501471Y-31994554D01*
X407523993Y-31986496D01*
X407547197Y-31980684D01*
X407570858Y-31977174D01*
X407594750Y-31976000D01*
X408507250Y-31976000D01*
X408531142Y-31977174D01*
X408531142Y-31977174D01*
G37*
D13*
X408051000Y-32463500D03*
D12*
G36*
X408531142Y-33852174D02*
G01*
X408554803Y-33855684D01*
X408578007Y-33861496D01*
X408600529Y-33869554D01*
X408622153Y-33879782D01*
X408642670Y-33892079D01*
X408661883Y-33906329D01*
X408679607Y-33922393D01*
X408695671Y-33940117D01*
X408709921Y-33959330D01*
X408722218Y-33979847D01*
X408732446Y-34001471D01*
X408740504Y-34023993D01*
X408746316Y-34047197D01*
X408749826Y-34070858D01*
X408751000Y-34094750D01*
X408751000Y-34582250D01*
X408749826Y-34606142D01*
X408746316Y-34629803D01*
X408740504Y-34653007D01*
X408732446Y-34675529D01*
X408722218Y-34697153D01*
X408709921Y-34717670D01*
X408695671Y-34736883D01*
X408679607Y-34754607D01*
X408661883Y-34770671D01*
X408642670Y-34784921D01*
X408622153Y-34797218D01*
X408600529Y-34807446D01*
X408578007Y-34815504D01*
X408554803Y-34821316D01*
X408531142Y-34824826D01*
X408507250Y-34826000D01*
X407594750Y-34826000D01*
X407570858Y-34824826D01*
X407547197Y-34821316D01*
X407523993Y-34815504D01*
X407501471Y-34807446D01*
X407479847Y-34797218D01*
X407459330Y-34784921D01*
X407440117Y-34770671D01*
X407422393Y-34754607D01*
X407406329Y-34736883D01*
X407392079Y-34717670D01*
X407379782Y-34697153D01*
X407369554Y-34675529D01*
X407361496Y-34653007D01*
X407355684Y-34629803D01*
X407352174Y-34606142D01*
X407351000Y-34582250D01*
X407351000Y-34094750D01*
X407352174Y-34070858D01*
X407355684Y-34047197D01*
X407361496Y-34023993D01*
X407369554Y-34001471D01*
X407379782Y-33979847D01*
X407392079Y-33959330D01*
X407406329Y-33940117D01*
X407422393Y-33922393D01*
X407440117Y-33906329D01*
X407459330Y-33892079D01*
X407479847Y-33879782D01*
X407501471Y-33869554D01*
X407523993Y-33861496D01*
X407547197Y-33855684D01*
X407570858Y-33852174D01*
X407594750Y-33851000D01*
X408507250Y-33851000D01*
X408531142Y-33852174D01*
X408531142Y-33852174D01*
G37*
D13*
X408051000Y-34338500D03*
D12*
G36*
X417421142Y-31723174D02*
G01*
X417444803Y-31726684D01*
X417468007Y-31732496D01*
X417490529Y-31740554D01*
X417512153Y-31750782D01*
X417532670Y-31763079D01*
X417551883Y-31777329D01*
X417569607Y-31793393D01*
X417585671Y-31811117D01*
X417599921Y-31830330D01*
X417612218Y-31850847D01*
X417622446Y-31872471D01*
X417630504Y-31894993D01*
X417636316Y-31918197D01*
X417639826Y-31941858D01*
X417641000Y-31965750D01*
X417641000Y-32453250D01*
X417639826Y-32477142D01*
X417636316Y-32500803D01*
X417630504Y-32524007D01*
X417622446Y-32546529D01*
X417612218Y-32568153D01*
X417599921Y-32588670D01*
X417585671Y-32607883D01*
X417569607Y-32625607D01*
X417551883Y-32641671D01*
X417532670Y-32655921D01*
X417512153Y-32668218D01*
X417490529Y-32678446D01*
X417468007Y-32686504D01*
X417444803Y-32692316D01*
X417421142Y-32695826D01*
X417397250Y-32697000D01*
X416484750Y-32697000D01*
X416460858Y-32695826D01*
X416437197Y-32692316D01*
X416413993Y-32686504D01*
X416391471Y-32678446D01*
X416369847Y-32668218D01*
X416349330Y-32655921D01*
X416330117Y-32641671D01*
X416312393Y-32625607D01*
X416296329Y-32607883D01*
X416282079Y-32588670D01*
X416269782Y-32568153D01*
X416259554Y-32546529D01*
X416251496Y-32524007D01*
X416245684Y-32500803D01*
X416242174Y-32477142D01*
X416241000Y-32453250D01*
X416241000Y-31965750D01*
X416242174Y-31941858D01*
X416245684Y-31918197D01*
X416251496Y-31894993D01*
X416259554Y-31872471D01*
X416269782Y-31850847D01*
X416282079Y-31830330D01*
X416296329Y-31811117D01*
X416312393Y-31793393D01*
X416330117Y-31777329D01*
X416349330Y-31763079D01*
X416369847Y-31750782D01*
X416391471Y-31740554D01*
X416413993Y-31732496D01*
X416437197Y-31726684D01*
X416460858Y-31723174D01*
X416484750Y-31722000D01*
X417397250Y-31722000D01*
X417421142Y-31723174D01*
X417421142Y-31723174D01*
G37*
D13*
X416941000Y-32209500D03*
D12*
G36*
X417421142Y-33598174D02*
G01*
X417444803Y-33601684D01*
X417468007Y-33607496D01*
X417490529Y-33615554D01*
X417512153Y-33625782D01*
X417532670Y-33638079D01*
X417551883Y-33652329D01*
X417569607Y-33668393D01*
X417585671Y-33686117D01*
X417599921Y-33705330D01*
X417612218Y-33725847D01*
X417622446Y-33747471D01*
X417630504Y-33769993D01*
X417636316Y-33793197D01*
X417639826Y-33816858D01*
X417641000Y-33840750D01*
X417641000Y-34328250D01*
X417639826Y-34352142D01*
X417636316Y-34375803D01*
X417630504Y-34399007D01*
X417622446Y-34421529D01*
X417612218Y-34443153D01*
X417599921Y-34463670D01*
X417585671Y-34482883D01*
X417569607Y-34500607D01*
X417551883Y-34516671D01*
X417532670Y-34530921D01*
X417512153Y-34543218D01*
X417490529Y-34553446D01*
X417468007Y-34561504D01*
X417444803Y-34567316D01*
X417421142Y-34570826D01*
X417397250Y-34572000D01*
X416484750Y-34572000D01*
X416460858Y-34570826D01*
X416437197Y-34567316D01*
X416413993Y-34561504D01*
X416391471Y-34553446D01*
X416369847Y-34543218D01*
X416349330Y-34530921D01*
X416330117Y-34516671D01*
X416312393Y-34500607D01*
X416296329Y-34482883D01*
X416282079Y-34463670D01*
X416269782Y-34443153D01*
X416259554Y-34421529D01*
X416251496Y-34399007D01*
X416245684Y-34375803D01*
X416242174Y-34352142D01*
X416241000Y-34328250D01*
X416241000Y-33840750D01*
X416242174Y-33816858D01*
X416245684Y-33793197D01*
X416251496Y-33769993D01*
X416259554Y-33747471D01*
X416269782Y-33725847D01*
X416282079Y-33705330D01*
X416296329Y-33686117D01*
X416312393Y-33668393D01*
X416330117Y-33652329D01*
X416349330Y-33638079D01*
X416369847Y-33625782D01*
X416391471Y-33615554D01*
X416413993Y-33607496D01*
X416437197Y-33601684D01*
X416460858Y-33598174D01*
X416484750Y-33597000D01*
X417397250Y-33597000D01*
X417421142Y-33598174D01*
X417421142Y-33598174D01*
G37*
D13*
X416941000Y-34084500D03*
D23*
X128524000Y-32385000D03*
X128524000Y-36068000D03*
X120650000Y-24511000D03*
X120650000Y-28575000D03*
X405511000Y-37592000D03*
X405511000Y-21717000D03*
X395859000Y-54356000D03*
X396875000Y-51308000D03*
X395859000Y-47498000D03*
X382905000Y-33655000D03*
X382856500Y-52783500D03*
X402469067Y-39871933D03*
X402844000Y-46990000D03*
X403118814Y-52783500D03*
X417449000Y-56642000D03*
X421132000Y-44958000D03*
X402844000Y-51054000D03*
X115570000Y-29845000D03*
X124587000Y-29845000D03*
X365506000Y-61722000D03*
X365506000Y-40513000D03*
X217043000Y-40005000D03*
X217043000Y-29845000D03*
X429133000Y-80010000D03*
X429133000Y-39751000D03*
X387096000Y-61722000D03*
X387096000Y-78613000D03*
X353187000Y-63119000D03*
X353187000Y-56896000D03*
X234170155Y-57820000D03*
X234188000Y-55083000D03*
X423028382Y-46626606D03*
X406427250Y-79375000D03*
X386369000Y-68961000D03*
X386455814Y-79381223D03*
X372237000Y-97917000D03*
X372110000Y-85471000D03*
X364490000Y-85471000D03*
X364871000Y-78486000D03*
X298450000Y-77724000D03*
X298450000Y-80553000D03*
X280162000Y-80518000D03*
X280162000Y-75057000D03*
X427257210Y-40920979D03*
X425577000Y-98044000D03*
X361384567Y-108423000D03*
X361315000Y-95758000D03*
X219202000Y-95596000D03*
X219837000Y-92583000D03*
X424030900Y-46600989D03*
X424053000Y-111125000D03*
X225298000Y-111633000D03*
X225298000Y-117602000D03*
X304165000Y-117983000D03*
X304165000Y-129286000D03*
X429860000Y-41656000D03*
X438150000Y-115697000D03*
X427482000Y-115697000D03*
X427482000Y-131572000D03*
X423926000Y-132207000D03*
X423926000Y-129794000D03*
X425196000Y-42545000D03*
X85598000Y-125349000D03*
X273939000Y-124079000D03*
X406908000Y-125222000D03*
X436118000Y-131826000D03*
X211963000Y-56642000D03*
X23241000Y-56642000D03*
X395097000Y-43561000D03*
X383921000Y-32639000D03*
X222250000Y-32639000D03*
X231394000Y-57150000D03*
X50165000Y-57531000D03*
X394239505Y-44075497D03*
X383927067Y-49015933D03*
X236251750Y-41560750D03*
X250317000Y-56515000D03*
X69088000Y-55915000D03*
X393287495Y-45247000D03*
X384683000Y-60325000D03*
X274955000Y-69723000D03*
X272542000Y-84709000D03*
X110617000Y-122809000D03*
X285930990Y-54556010D03*
X279453990Y-54556010D03*
X286258000Y-83439000D03*
X89789000Y-77724000D03*
X392430000Y-45974000D03*
X385445000Y-54610000D03*
X311785000Y-61214000D03*
X302387000Y-116205000D03*
X289052000Y-118364000D03*
X412623000Y-57912000D03*
X403065238Y-77886000D03*
X385572000Y-77851000D03*
X385572000Y-84455000D03*
X330835000Y-80137000D03*
X331724000Y-42164000D03*
X350012000Y-79121000D03*
X146177000Y-78740000D03*
X411745457Y-57432500D03*
X403853933Y-75050933D03*
X370586000Y-94869000D03*
X165608000Y-94869000D03*
X421230898Y-48752000D03*
X404519239Y-80102000D03*
X393065000Y-80137000D03*
X184531000Y-98425000D03*
X421005000Y-51054000D03*
X405257000Y-97028000D03*
X312293000Y-97120000D03*
X393700000Y-117856000D03*
X351409000Y-117094000D03*
X204343000Y-95596000D03*
X422155380Y-48040723D03*
X406562000Y-98933000D03*
X331089000Y-96393000D03*
X428238571Y-40466969D03*
X428307500Y-84772500D03*
X119859500Y-27089009D03*
X119859500Y-25400000D03*
X299847000Y-125095000D03*
X335534000Y-125222000D03*
X361950000Y-124079000D03*
X290068000Y-87122000D03*
X363912433Y-68141567D03*
X285623000Y-106172000D03*
X250063000Y-106045000D03*
X230632000Y-106045000D03*
X323977000Y-85852000D03*
X356997000Y-110998000D03*
X345186000Y-106172000D03*
X326009000Y-109601000D03*
X326009000Y-31623000D03*
X423106961Y-47733319D03*
X407289000Y-109728000D03*
X292100000Y-109601000D03*
X289306000Y-54483000D03*
X361950000Y-109347000D03*
X374396000Y-107315000D03*
X377444000Y-53721000D03*
X363474000Y-130302000D03*
X421732000Y-51761108D03*
X411773085Y-69998870D03*
X377571000Y-70300011D03*
X280670000Y-82169000D03*
X285877000Y-90551000D03*
X258699000Y-74041000D03*
X258699000Y-109601000D03*
X335915000Y-128524000D03*
X340106000Y-114173000D03*
X342900000Y-74803000D03*
X304165000Y-73533000D03*
X304165000Y-81153000D03*
X277114000Y-81280000D03*
X277114000Y-73152000D03*
X421801455Y-49747007D03*
X411387010Y-71027011D03*
X364490000Y-70993000D03*
X360807000Y-73533000D03*
X231902000Y-92583000D03*
X231902000Y-109601000D03*
X275844000Y-128905000D03*
X267335000Y-93599000D03*
X346329000Y-109601000D03*
X346329000Y-93472000D03*
X411018457Y-58192005D03*
X404241000Y-93472000D03*
D24*
X123571000Y-32385000D02*
X128524000Y-32385000D01*
X128524000Y-36068000D02*
X383032000Y-36068000D01*
X383032000Y-36068000D02*
X383032000Y-43434000D01*
X120662500Y-22089500D02*
X120662500Y-24498500D01*
X120662500Y-24498500D02*
X120650000Y-24511000D01*
X120650000Y-28575000D02*
X120650000Y-29140685D01*
X120650000Y-29140685D02*
X120650000Y-30988000D01*
X408641750Y-41048000D02*
X407543000Y-39949250D01*
X408641750Y-42179000D02*
X408641750Y-41048000D01*
X407543000Y-39243000D02*
X407274000Y-38974000D01*
X407543000Y-39949250D02*
X407543000Y-39243000D01*
X418860500Y-43879000D02*
X419766750Y-42972750D01*
X415941750Y-43879000D02*
X418860500Y-43879000D01*
X413416750Y-53604000D02*
X413441750Y-53579000D01*
X413416750Y-56610250D02*
X413416750Y-53604000D01*
X406537013Y-55214737D02*
X407041750Y-54710000D01*
X407041750Y-54710000D02*
X407041750Y-53579000D01*
X401526987Y-55214737D02*
X406537013Y-55214737D01*
X400970750Y-54658500D02*
X401526987Y-55214737D01*
X407041750Y-52448000D02*
X407041750Y-53579000D01*
X407041750Y-50048000D02*
X407041750Y-52448000D01*
X404541750Y-48679000D02*
X405672750Y-48679000D01*
X413441750Y-52448000D02*
X413441750Y-53579000D01*
X407041750Y-50048000D02*
X411041750Y-50048000D01*
X414810750Y-43879000D02*
X411509875Y-47179875D01*
X411041750Y-50048000D02*
X411509875Y-50516125D01*
X411509875Y-47179875D02*
X411509875Y-50516125D01*
X415941750Y-43879000D02*
X414810750Y-43879000D01*
X411509875Y-50516125D02*
X413441750Y-52448000D01*
X408641750Y-44311750D02*
X411509875Y-47179875D01*
X408641750Y-42179000D02*
X408641750Y-44311750D01*
X405890375Y-47063125D02*
X408641750Y-44311750D01*
X405890375Y-48896625D02*
X405890375Y-47063125D01*
X405890375Y-48896625D02*
X407041750Y-50048000D01*
X405672750Y-48679000D02*
X405890375Y-48896625D01*
X403410750Y-48679000D02*
X404541750Y-48679000D01*
X400573000Y-48679000D02*
X403410750Y-48679000D01*
X399779250Y-47885250D02*
X400573000Y-48679000D01*
X399779250Y-47085250D02*
X399779250Y-47885250D01*
X419766750Y-53579000D02*
X419766750Y-57499250D01*
X413972987Y-57166487D02*
X413416750Y-56610250D01*
X419565240Y-57700760D02*
X414507260Y-57700760D01*
X414507260Y-57700760D02*
X413972987Y-57166487D01*
X419766750Y-57499250D02*
X419565240Y-57700760D01*
X406478500Y-38178500D02*
X407274000Y-38974000D01*
X405462500Y-37640500D02*
X405511000Y-37592000D01*
X405462500Y-38178500D02*
X405462500Y-37640500D01*
X405462500Y-38178500D02*
X406478500Y-38178500D01*
X403891750Y-38178500D02*
X405462500Y-38178500D01*
X401574000Y-21336000D02*
X398105250Y-21336000D01*
X405511000Y-21717000D02*
X401955000Y-21717000D01*
X397057000Y-22384250D02*
X397057000Y-23665250D01*
X398105250Y-21336000D02*
X397057000Y-22384250D01*
X401955000Y-21717000D02*
X401574000Y-21336000D01*
X407274000Y-38974000D02*
X407274000Y-38957250D01*
D25*
X412418777Y-31895142D02*
X412115000Y-34544000D01*
D24*
X399366500Y-47498000D02*
X399779250Y-47085250D01*
X395859000Y-47498000D02*
X399366500Y-47498000D01*
X395859000Y-54356000D02*
X395859000Y-54483000D01*
X396034500Y-54658500D02*
X400970750Y-54658500D01*
X395859000Y-54483000D02*
X396034500Y-54658500D01*
X390906000Y-51308000D02*
X396875000Y-51308000D01*
X390652000Y-51054000D02*
X390906000Y-51308000D01*
X383032000Y-43434000D02*
X390652000Y-51054000D01*
D25*
X414608135Y-34084500D02*
X416941000Y-34084500D01*
X413620858Y-33097223D02*
X414608135Y-34084500D01*
X411480000Y-37338000D02*
X410241750Y-38576250D01*
X410241750Y-38576250D02*
X410241750Y-42179000D01*
X414782000Y-37338000D02*
X411480000Y-37338000D01*
X416941000Y-34084500D02*
X416941000Y-35179000D01*
X416941000Y-35179000D02*
X414782000Y-37338000D01*
X409321000Y-42058250D02*
X409441750Y-42179000D01*
X409975419Y-34338500D02*
X408051000Y-34338500D01*
X410863142Y-33450777D02*
X409975419Y-34338500D01*
X409441750Y-37458750D02*
X409441750Y-42179000D01*
X408051000Y-34338500D02*
X408051000Y-36068000D01*
X408051000Y-36068000D02*
X409441750Y-37458750D01*
X402448000Y-47879000D02*
X401654250Y-47085250D01*
X404541750Y-47879000D02*
X402448000Y-47879000D01*
D24*
X407841750Y-42179000D02*
X407841750Y-41069672D01*
X406825578Y-40053500D02*
X403891750Y-40053500D01*
X407841750Y-41069672D02*
X406825578Y-40053500D01*
X419598000Y-44679000D02*
X419766750Y-44847750D01*
X415941750Y-44679000D02*
X419598000Y-44679000D01*
X414241750Y-55560250D02*
X415291750Y-56610250D01*
X414241750Y-53579000D02*
X414241750Y-55560250D01*
X420054250Y-44560250D02*
X419766750Y-44847750D01*
X122425000Y-34039000D02*
X117221000Y-34039000D01*
X122984500Y-33479500D02*
X122425000Y-34039000D01*
X382856500Y-33479500D02*
X122984500Y-33479500D01*
X382856500Y-52783500D02*
X400970750Y-52783500D01*
X402717000Y-34036000D02*
X402160763Y-34592237D01*
X382856500Y-33479500D02*
X382856500Y-33606500D01*
X382856500Y-33606500D02*
X382905000Y-33655000D01*
X403891750Y-40053500D02*
X402650634Y-40053500D01*
X402650634Y-40053500D02*
X402469067Y-39871933D01*
X404452750Y-46990000D02*
X404541750Y-47079000D01*
X402844000Y-46990000D02*
X404452750Y-46990000D01*
X405585750Y-53579000D02*
X406241750Y-53579000D01*
X403914315Y-53579000D02*
X405585750Y-53579000D01*
X403118814Y-52783500D02*
X400970750Y-52783500D01*
X403640657Y-53305343D02*
X403118814Y-52783500D01*
X403640657Y-53305343D02*
X403914315Y-53579000D01*
X415323500Y-56642000D02*
X415291750Y-56610250D01*
X417449000Y-56642000D02*
X415323500Y-56642000D01*
X419877000Y-44958000D02*
X419766750Y-44847750D01*
X421132000Y-44958000D02*
X419877000Y-44958000D01*
X403335513Y-39497263D02*
X403891750Y-40053500D01*
X402160763Y-38322513D02*
X403335513Y-39497263D01*
X402160763Y-34592237D02*
X402160763Y-38322513D01*
X402869000Y-51079000D02*
X402844000Y-51054000D01*
X404541750Y-51079000D02*
X402869000Y-51079000D01*
D25*
X114300000Y-29341500D02*
X114300000Y-28637500D01*
X113796500Y-29845000D02*
X114300000Y-29341500D01*
X33337500Y-29341500D02*
X33841000Y-29845000D01*
X33337500Y-28637500D02*
X33337500Y-29341500D01*
X113665000Y-29845000D02*
X115570000Y-29845000D01*
X113665000Y-29845000D02*
X113796500Y-29845000D01*
X196056250Y-29813250D02*
X196056250Y-28637500D01*
X196088000Y-29845000D02*
X196056250Y-29813250D01*
X176212500Y-29781500D02*
X176212500Y-28637500D01*
X176276000Y-29845000D02*
X176212500Y-29781500D01*
X196088000Y-29845000D02*
X176276000Y-29845000D01*
X157162500Y-29654500D02*
X157162500Y-28637500D01*
X156972000Y-29845000D02*
X157162500Y-29654500D01*
X176276000Y-29845000D02*
X156972000Y-29845000D01*
X138112500Y-29781500D02*
X138112500Y-28637500D01*
X138176000Y-29845000D02*
X138112500Y-29781500D01*
X156972000Y-29845000D02*
X138176000Y-29845000D01*
X95250000Y-29718000D02*
X95250000Y-28637500D01*
X95377000Y-29845000D02*
X95250000Y-29718000D01*
X95377000Y-29845000D02*
X113665000Y-29845000D01*
X76200000Y-29591000D02*
X76200000Y-28637500D01*
X76454000Y-29845000D02*
X76200000Y-29591000D01*
X76454000Y-29845000D02*
X95377000Y-29845000D01*
X57150000Y-29591000D02*
X57150000Y-28637500D01*
X57404000Y-29845000D02*
X57150000Y-29591000D01*
X57404000Y-29845000D02*
X76454000Y-29845000D01*
X33841000Y-29845000D02*
X57404000Y-29845000D01*
X138176000Y-29845000D02*
X124587000Y-29845000D01*
X219075000Y-29845000D02*
X219075000Y-28637500D01*
X416306000Y-80010000D02*
X414909000Y-78613000D01*
X294998232Y-40005000D02*
X217043000Y-40005000D01*
X365506000Y-40513000D02*
X364998000Y-40005000D01*
X364998000Y-40005000D02*
X294998232Y-40005000D01*
X196088000Y-29845000D02*
X217043000Y-29845000D01*
X217043000Y-29845000D02*
X219075000Y-29845000D01*
X411041750Y-41365398D02*
X412667179Y-39739969D01*
X411041750Y-42179000D02*
X411041750Y-41365398D01*
X412667179Y-39739969D02*
X413140978Y-39739969D01*
X429133000Y-80010000D02*
X416306000Y-80010000D01*
X430531000Y-80010000D02*
X429133000Y-80010000D01*
X417129057Y-39739969D02*
X416675969Y-39739969D01*
X413140978Y-39739969D02*
X416675969Y-39739969D01*
X416675969Y-39739969D02*
X416941000Y-39739969D01*
X417129057Y-39739969D02*
X429121969Y-39739969D01*
X429121969Y-39739969D02*
X429133000Y-39751000D01*
X365506000Y-61722000D02*
X387096000Y-61722000D01*
X414909000Y-78613000D02*
X387096000Y-78613000D01*
X33337500Y-53154000D02*
X34285500Y-54102000D01*
X33337500Y-52450000D02*
X33337500Y-53154000D01*
X52387500Y-54038500D02*
X52387500Y-52450000D01*
X52324000Y-54102000D02*
X52387500Y-54038500D01*
X34285500Y-54102000D02*
X52324000Y-54102000D01*
X71437500Y-54038500D02*
X71437500Y-52450000D01*
X71374000Y-54102000D02*
X71437500Y-54038500D01*
X52324000Y-54102000D02*
X71374000Y-54102000D01*
X90487500Y-54038500D02*
X90487500Y-52450000D01*
X90424000Y-54102000D02*
X90487500Y-54038500D01*
X71374000Y-54102000D02*
X90424000Y-54102000D01*
X109537500Y-54038500D02*
X109537500Y-52450000D01*
X109474000Y-54102000D02*
X109537500Y-54038500D01*
X90424000Y-54102000D02*
X109474000Y-54102000D01*
X128587500Y-54038500D02*
X128587500Y-52450000D01*
X128651000Y-54102000D02*
X128587500Y-54038500D01*
X109474000Y-54102000D02*
X128651000Y-54102000D01*
X147637500Y-53911500D02*
X147637500Y-52450000D01*
X147447000Y-54102000D02*
X147637500Y-53911500D01*
X128651000Y-54102000D02*
X147447000Y-54102000D01*
X166687500Y-54038500D02*
X166687500Y-52450000D01*
X166624000Y-54102000D02*
X166687500Y-54038500D01*
X147447000Y-54102000D02*
X166624000Y-54102000D01*
X185737500Y-54038500D02*
X185737500Y-52450000D01*
X185674000Y-54102000D02*
X185737500Y-54038500D01*
X185420000Y-54102000D02*
X204724000Y-54102000D01*
X185420000Y-54102000D02*
X185674000Y-54102000D01*
X166624000Y-54102000D02*
X185420000Y-54102000D01*
X204787500Y-54038500D02*
X204787500Y-52450000D01*
X204724000Y-54102000D02*
X204787500Y-54038500D01*
X407221000Y-80168750D02*
X406427250Y-79375000D01*
X407925000Y-80168750D02*
X407221000Y-80168750D01*
X365125000Y-68278172D02*
X365125000Y-68072000D01*
X365125000Y-68072000D02*
X362458000Y-65405000D01*
X362458000Y-65405000D02*
X355473000Y-65405000D01*
X355473000Y-65405000D02*
X353187000Y-63119000D01*
X353187000Y-56896000D02*
X300154990Y-56896000D01*
X268412056Y-60759990D02*
X265745057Y-58092990D01*
X265745057Y-58092990D02*
X264414000Y-58092990D01*
X296291000Y-60759990D02*
X297016495Y-60034495D01*
X297016495Y-60034495D02*
X296344990Y-60706000D01*
X270710010Y-60759990D02*
X296291000Y-60759990D01*
X300154990Y-56896000D02*
X297016495Y-60034495D01*
X270710010Y-60759990D02*
X268412056Y-60759990D01*
X271599010Y-60759990D02*
X270710010Y-60759990D01*
X264414000Y-58092990D02*
X234443145Y-58092990D01*
X234443145Y-58092990D02*
X234170155Y-57820000D01*
X205705000Y-55083000D02*
X204724000Y-54102000D01*
X234188000Y-55083000D02*
X205705000Y-55083000D01*
X415941750Y-46279000D02*
X422680776Y-46279000D01*
X422680776Y-46279000D02*
X423028382Y-46626606D01*
X365125000Y-68278172D02*
X365125000Y-68453000D01*
X365125000Y-68453000D02*
X365633000Y-68961000D01*
X365633000Y-68961000D02*
X386369000Y-68961000D01*
X387851777Y-79381223D02*
X386455814Y-79381223D01*
X387858000Y-79375000D02*
X387851777Y-79381223D01*
X388112000Y-79375000D02*
X388105777Y-79381223D01*
X388105777Y-79381223D02*
X386455814Y-79381223D01*
X388112000Y-79375000D02*
X387858000Y-79375000D01*
X406427250Y-79375000D02*
X388112000Y-79375000D01*
X38100000Y-71500000D02*
X38100000Y-72204000D01*
X38100000Y-72204000D02*
X39781401Y-73885401D01*
X195262500Y-73850500D02*
X195262500Y-71500000D01*
X195297401Y-73885401D02*
X195262500Y-73850500D01*
X176212500Y-73793302D02*
X176212500Y-71500000D01*
X176304599Y-73885401D02*
X176212500Y-73793302D01*
X176304599Y-73885401D02*
X195297401Y-73885401D01*
X157162500Y-73666302D02*
X157162500Y-71500000D01*
X157381599Y-73885401D02*
X157162500Y-73666302D01*
X157381599Y-73885401D02*
X176304599Y-73885401D01*
X138112500Y-73793302D02*
X138112500Y-71500000D01*
X138204599Y-73885401D02*
X138112500Y-73793302D01*
X138204599Y-73885401D02*
X157381599Y-73885401D01*
X119062500Y-73793302D02*
X119062500Y-71500000D01*
X119154599Y-73885401D02*
X119062500Y-73793302D01*
X119154599Y-73885401D02*
X138204599Y-73885401D01*
X100012500Y-73850500D02*
X100012500Y-71500000D01*
X99977599Y-73885401D02*
X100012500Y-73850500D01*
X99977599Y-73885401D02*
X119154599Y-73885401D01*
X80962500Y-73793302D02*
X80962500Y-71500000D01*
X81054599Y-73885401D02*
X80962500Y-73793302D01*
X81054599Y-73885401D02*
X99977599Y-73885401D01*
X61912500Y-73850500D02*
X61912500Y-71500000D01*
X61947401Y-73885401D02*
X61912500Y-73850500D01*
X61947401Y-73885401D02*
X81054599Y-73885401D01*
X39781401Y-73885401D02*
X61947401Y-73885401D01*
X195297401Y-73885401D02*
X214347401Y-73885401D01*
X214312500Y-73850500D02*
X214312500Y-71500000D01*
X214347401Y-73885401D02*
X214312500Y-73850500D01*
X426271000Y-98425000D02*
X425890000Y-98044000D01*
X426975000Y-98425000D02*
X426271000Y-98425000D01*
X372364000Y-98044000D02*
X372237000Y-97917000D01*
X372110000Y-85471000D02*
X364490000Y-85471000D01*
X364871000Y-78486000D02*
X364109000Y-77724000D01*
X364109000Y-77724000D02*
X306324000Y-77724000D01*
X306324000Y-77724000D02*
X298450000Y-77724000D01*
X298450000Y-80553000D02*
X280197000Y-80553000D01*
X280197000Y-80553000D02*
X280162000Y-80518000D01*
X215519000Y-75057000D02*
X214347401Y-73885401D01*
X280162000Y-75057000D02*
X215519000Y-75057000D01*
X412641750Y-41365398D02*
X413359159Y-40647989D01*
X412641750Y-42179000D02*
X412641750Y-41365398D01*
X413359159Y-40647989D02*
X413517092Y-40647989D01*
X413517092Y-40647989D02*
X416941000Y-40647989D01*
X416941000Y-40647989D02*
X426984220Y-40647989D01*
X426984220Y-40647989D02*
X427257210Y-40920979D01*
X425890000Y-98044000D02*
X425577000Y-98044000D01*
X425577000Y-98044000D02*
X372364000Y-98044000D01*
X40481250Y-91254000D02*
X41810250Y-92583000D01*
X40481250Y-90550000D02*
X40481250Y-91254000D01*
X200025000Y-92456000D02*
X200025000Y-90550000D01*
X200152000Y-92583000D02*
X200025000Y-92456000D01*
X180975000Y-92456000D02*
X180975000Y-90550000D01*
X180848000Y-92583000D02*
X180975000Y-92456000D01*
X180848000Y-92583000D02*
X200152000Y-92583000D01*
X161925000Y-92456000D02*
X161925000Y-90550000D01*
X161798000Y-92583000D02*
X161925000Y-92456000D01*
X161798000Y-92583000D02*
X180848000Y-92583000D01*
X142875000Y-92329000D02*
X142875000Y-90550000D01*
X142621000Y-92583000D02*
X142875000Y-92329000D01*
X142621000Y-92583000D02*
X161798000Y-92583000D01*
X123825000Y-92583000D02*
X123825000Y-90550000D01*
X123825000Y-92583000D02*
X142621000Y-92583000D01*
X104775000Y-92583000D02*
X104775000Y-90550000D01*
X104775000Y-92583000D02*
X123825000Y-92583000D01*
X85725000Y-92583000D02*
X85725000Y-90550000D01*
X85725000Y-92583000D02*
X104775000Y-92583000D01*
X66675000Y-92456000D02*
X66675000Y-90550000D01*
X66802000Y-92583000D02*
X66675000Y-92456000D01*
X66802000Y-92583000D02*
X85725000Y-92583000D01*
X41810250Y-92583000D02*
X66802000Y-92583000D01*
X218948000Y-92583000D02*
X219075000Y-92456000D01*
X219075000Y-91440000D02*
X219075000Y-92583000D01*
X219075000Y-91440000D02*
X219075000Y-90550000D01*
X219075000Y-92456000D02*
X219075000Y-91440000D01*
X423862500Y-110304000D02*
X423926000Y-110367500D01*
X423862500Y-109600000D02*
X423862500Y-110304000D01*
X423926000Y-110367500D02*
X423926000Y-111125000D01*
X405137067Y-111125000D02*
X404810057Y-111452010D01*
X423926000Y-111125000D02*
X405137067Y-111125000D01*
X382843943Y-111452010D02*
X377382943Y-105991010D01*
X404810057Y-111452010D02*
X382843943Y-111452010D01*
X377382943Y-105991010D02*
X369885056Y-105991010D01*
X369885056Y-105991010D02*
X367726057Y-108150010D01*
X367726057Y-108150010D02*
X361657557Y-108150010D01*
X361657557Y-108150010D02*
X361384567Y-108423000D01*
X360880010Y-95323010D02*
X352740057Y-95323010D01*
X361315000Y-95758000D02*
X360880010Y-95323010D01*
X352740057Y-95323010D02*
X324993000Y-95323010D01*
X324993000Y-95323010D02*
X219474990Y-95323010D01*
X219474990Y-95323010D02*
X219202000Y-95596000D01*
X219202000Y-92583000D02*
X219075000Y-92456000D01*
X219837000Y-92583000D02*
X219202000Y-92583000D01*
X218694000Y-92583000D02*
X219837000Y-92583000D01*
X218694000Y-92583000D02*
X218948000Y-92583000D01*
X200152000Y-92583000D02*
X218694000Y-92583000D01*
X423114912Y-45685001D02*
X424030900Y-46600989D01*
X419096823Y-45685001D02*
X423114912Y-45685001D01*
X415941750Y-45479000D02*
X418890822Y-45479000D01*
X418890822Y-45479000D02*
X419096823Y-45685001D01*
X35718750Y-109600000D02*
X35868750Y-109600000D01*
X35868750Y-109600000D02*
X37901750Y-111633000D01*
X57150000Y-111633000D02*
X57150000Y-109600000D01*
X37901750Y-111633000D02*
X57150000Y-111633000D01*
X76200000Y-111506000D02*
X76200000Y-109600000D01*
X76073000Y-111633000D02*
X76200000Y-111506000D01*
X57150000Y-111633000D02*
X76073000Y-111633000D01*
X95250000Y-111506000D02*
X95250000Y-109600000D01*
X95123000Y-111633000D02*
X95250000Y-111506000D01*
X76073000Y-111633000D02*
X95123000Y-111633000D01*
X114300000Y-111633000D02*
X114300000Y-109600000D01*
X95123000Y-111633000D02*
X114300000Y-111633000D01*
X133350000Y-111633000D02*
X133350000Y-109600000D01*
X114300000Y-111633000D02*
X133350000Y-111633000D01*
X152400000Y-111633000D02*
X152400000Y-109600000D01*
X133350000Y-111633000D02*
X152400000Y-111633000D01*
X171450000Y-111633000D02*
X171450000Y-109600000D01*
X152400000Y-111633000D02*
X171450000Y-111633000D01*
X190500000Y-111506000D02*
X190500000Y-109600000D01*
X190373000Y-111633000D02*
X190500000Y-111506000D01*
X171450000Y-111633000D02*
X190373000Y-111633000D01*
X190373000Y-111633000D02*
X209677000Y-111633000D01*
X209550000Y-111506000D02*
X209550000Y-109600000D01*
X209677000Y-111633000D02*
X209550000Y-111506000D01*
X209677000Y-111633000D02*
X225298000Y-111633000D01*
X225298000Y-117602000D02*
X261493000Y-117602000D01*
X261493000Y-117602000D02*
X261874000Y-117983000D01*
X261874000Y-117983000D02*
X265811000Y-117983000D01*
X265811000Y-117983000D02*
X266319000Y-117475000D01*
X266319000Y-117475000D02*
X286512000Y-117475000D01*
X286512000Y-117475000D02*
X288544000Y-119507000D01*
X288544000Y-119507000D02*
X290322000Y-119507000D01*
X290322000Y-119507000D02*
X291846000Y-117983000D01*
X291846000Y-117983000D02*
X304165000Y-117983000D01*
X304165000Y-129286000D02*
X315602066Y-129286000D01*
X316672056Y-130355990D02*
X341824033Y-130355990D01*
X341824033Y-130355990D02*
X343221033Y-131752990D01*
X315602066Y-129286000D02*
X316672056Y-130355990D01*
X343221033Y-131752990D02*
X423304048Y-131752990D01*
X423304048Y-131752990D02*
X423646351Y-131410687D01*
X413441750Y-42179000D02*
X413441750Y-41345250D01*
X424949066Y-41656000D02*
X429860000Y-41656000D01*
X413441750Y-41345250D02*
X413685001Y-41101999D01*
X424395065Y-41101999D02*
X424949066Y-41656000D01*
X413685001Y-41101999D02*
X424395065Y-41101999D01*
X438150000Y-115697000D02*
X427482000Y-115697000D01*
X431166000Y-131572000D02*
X431420000Y-131826000D01*
X427482000Y-131572000D02*
X431166000Y-131572000D01*
X423646351Y-131410687D02*
X426431687Y-131410687D01*
X426593000Y-131572000D02*
X427482000Y-131572000D01*
X426431687Y-131410687D02*
X426593000Y-131572000D01*
X35718750Y-128650000D02*
X35718750Y-129444750D01*
X35718750Y-129444750D02*
X36322000Y-130048000D01*
X36322000Y-130048000D02*
X36420401Y-130146401D01*
X36420401Y-130146401D02*
X36576000Y-130302000D01*
X36576000Y-130302000D02*
X37084000Y-130810000D01*
X154781250Y-130778250D02*
X154781250Y-128650000D01*
X154813000Y-130810000D02*
X154781250Y-130778250D01*
X83343750Y-130778250D02*
X83343750Y-128650000D01*
X83312000Y-130810000D02*
X83343750Y-130778250D01*
X83312000Y-130810000D02*
X154813000Y-130810000D01*
X59531250Y-130778250D02*
X59531250Y-128650000D01*
X59563000Y-130810000D02*
X59531250Y-130778250D01*
X59563000Y-130810000D02*
X83312000Y-130810000D01*
X37084000Y-130810000D02*
X59563000Y-130810000D01*
X154813000Y-130810000D02*
X193675000Y-130810000D01*
X193675000Y-130810000D02*
X194818000Y-129667000D01*
X194818000Y-129667000D02*
X199263000Y-129667000D01*
X199263000Y-129667000D02*
X200533000Y-130937000D01*
X200533000Y-130937000D02*
X226060000Y-130937000D01*
X226218750Y-130778250D02*
X226218750Y-128650000D01*
X226060000Y-130937000D02*
X226218750Y-130778250D01*
X226060000Y-130937000D02*
X249809000Y-130937000D01*
X250031250Y-130714750D02*
X250031250Y-128650000D01*
X249809000Y-130937000D02*
X250031250Y-130714750D01*
X297656250Y-130841750D02*
X297656250Y-128650000D01*
X297561000Y-130937000D02*
X297656250Y-130841750D01*
X315595000Y-129921000D02*
X310388000Y-129921000D01*
X309372000Y-130937000D02*
X297307000Y-130937000D01*
X316484000Y-130810000D02*
X315595000Y-129921000D01*
X343027000Y-132207000D02*
X341630000Y-130810000D01*
X297307000Y-130937000D02*
X297561000Y-130937000D01*
X310388000Y-129921000D02*
X309372000Y-130937000D01*
X249809000Y-130937000D02*
X297307000Y-130937000D01*
X341630000Y-130810000D02*
X316484000Y-130810000D01*
X423799000Y-132207000D02*
X343027000Y-132207000D01*
X423799000Y-132207000D02*
X423926000Y-132207000D01*
X423926000Y-128713500D02*
X423862500Y-128650000D01*
X423926000Y-129794000D02*
X423926000Y-128713500D01*
X414770750Y-42179000D02*
X415166750Y-41783000D01*
X414241750Y-42179000D02*
X414770750Y-42179000D01*
X415166750Y-41783000D02*
X424434000Y-41783000D01*
X424434000Y-41783000D02*
X425196000Y-42545000D01*
X27900000Y-44712500D02*
X29853500Y-44712500D01*
X33337500Y-48196500D02*
X33337500Y-49150000D01*
X29853500Y-44712500D02*
X33337500Y-48196500D01*
X32662500Y-63762500D02*
X34552500Y-63762500D01*
X38100000Y-67310000D02*
X38100000Y-68200000D01*
X34552500Y-63762500D02*
X38100000Y-67310000D01*
X35043750Y-82812500D02*
X36584500Y-82812500D01*
X36584500Y-82812500D02*
X36593000Y-82804000D01*
X40481250Y-86546000D02*
X40481250Y-87250000D01*
X36739250Y-82804000D02*
X40481250Y-86546000D01*
X36593000Y-82804000D02*
X36739250Y-82804000D01*
X30281250Y-101862500D02*
X32122500Y-101862500D01*
X35718750Y-105458750D02*
X35718750Y-106300000D01*
X32122500Y-101862500D02*
X35718750Y-105458750D01*
X30281250Y-120912500D02*
X32266500Y-120912500D01*
X35718750Y-124364750D02*
X35718750Y-125350000D01*
X32266500Y-120912500D02*
X35718750Y-124364750D01*
X46950000Y-44712500D02*
X49140500Y-44712500D01*
X52387500Y-47959500D02*
X52387500Y-49150000D01*
X49140500Y-44712500D02*
X52387500Y-47959500D01*
X56475000Y-63762500D02*
X58555500Y-63762500D01*
X61912500Y-67119500D02*
X61912500Y-68200000D01*
X58555500Y-63762500D02*
X61912500Y-67119500D01*
X61237500Y-82812500D02*
X63127500Y-82812500D01*
X66675000Y-86360000D02*
X66675000Y-87250000D01*
X63127500Y-82812500D02*
X66675000Y-86360000D01*
X51712500Y-101862500D02*
X54110500Y-101862500D01*
X57150000Y-104902000D02*
X57150000Y-106300000D01*
X54110500Y-101862500D02*
X57150000Y-104902000D01*
X54093750Y-120912500D02*
X55888500Y-120912500D01*
X59531250Y-124555250D02*
X59531250Y-125350000D01*
X55888500Y-120912500D02*
X59531250Y-124555250D01*
X71437500Y-48446000D02*
X71437500Y-49150000D01*
X67704000Y-44712500D02*
X71437500Y-48446000D01*
X66000000Y-44712500D02*
X67704000Y-44712500D01*
X75525000Y-63762500D02*
X77351500Y-63762500D01*
X80962500Y-67373500D02*
X80962500Y-68200000D01*
X77351500Y-63762500D02*
X80962500Y-67373500D01*
X80287500Y-82812500D02*
X82431500Y-82812500D01*
X85725000Y-86106000D02*
X85725000Y-87250000D01*
X82431500Y-82812500D02*
X85725000Y-86106000D01*
X70762500Y-101862500D02*
X73287500Y-101862500D01*
X76200000Y-104775000D02*
X76200000Y-106300000D01*
X73287500Y-101862500D02*
X76200000Y-104775000D01*
X83344750Y-125349000D02*
X83343750Y-125350000D01*
X85598000Y-125349000D02*
X83344750Y-125349000D01*
X85050000Y-44712500D02*
X87240500Y-44712500D01*
X90487500Y-47959500D02*
X90487500Y-49150000D01*
X87240500Y-44712500D02*
X90487500Y-47959500D01*
X94575000Y-63762500D02*
X96909500Y-63762500D01*
X100012500Y-66865500D02*
X100012500Y-68200000D01*
X96909500Y-63762500D02*
X100012500Y-66865500D01*
X99337500Y-82812500D02*
X101227500Y-82812500D01*
X104775000Y-86360000D02*
X104775000Y-87250000D01*
X101227500Y-82812500D02*
X104775000Y-86360000D01*
X104100000Y-44712500D02*
X106180500Y-44712500D01*
X109537500Y-48069500D02*
X109537500Y-49150000D01*
X106180500Y-44712500D02*
X109537500Y-48069500D01*
X113625000Y-63762500D02*
X116340500Y-63762500D01*
X119062500Y-66484500D02*
X119062500Y-68200000D01*
X116340500Y-63762500D02*
X119062500Y-66484500D01*
X118387500Y-82812500D02*
X120912500Y-82812500D01*
X123825000Y-85725000D02*
X123825000Y-87250000D01*
X120912500Y-82812500D02*
X123825000Y-85725000D01*
X108862500Y-101862500D02*
X110752500Y-101862500D01*
X114300000Y-105410000D02*
X114300000Y-106300000D01*
X110752500Y-101862500D02*
X114300000Y-105410000D01*
X123150000Y-44712500D02*
X125484500Y-44712500D01*
X128587500Y-47815500D02*
X128587500Y-49150000D01*
X125484500Y-44712500D02*
X128587500Y-47815500D01*
X132675000Y-63762500D02*
X134882500Y-63762500D01*
X138112500Y-66992500D02*
X138112500Y-68200000D01*
X134882500Y-63762500D02*
X138112500Y-66992500D01*
X137437500Y-82812500D02*
X139454500Y-82812500D01*
X142875000Y-86233000D02*
X142875000Y-87250000D01*
X139454500Y-82812500D02*
X142875000Y-86233000D01*
X127912500Y-101862500D02*
X129802500Y-101862500D01*
X133350000Y-105410000D02*
X133350000Y-106300000D01*
X129802500Y-101862500D02*
X133350000Y-105410000D01*
X142200000Y-44712500D02*
X144153500Y-44712500D01*
X147637500Y-48196500D02*
X147637500Y-49150000D01*
X144153500Y-44712500D02*
X147637500Y-48196500D01*
X151725000Y-63762500D02*
X154059500Y-63762500D01*
X157162500Y-66865500D02*
X157162500Y-68200000D01*
X154059500Y-63762500D02*
X157162500Y-66865500D01*
X156487500Y-82812500D02*
X158885500Y-82812500D01*
X161925000Y-85852000D02*
X161925000Y-87250000D01*
X158885500Y-82812500D02*
X161925000Y-85852000D01*
X146962500Y-101862500D02*
X149233500Y-101862500D01*
X152400000Y-105029000D02*
X152400000Y-106300000D01*
X149233500Y-101862500D02*
X152400000Y-105029000D01*
X204787500Y-48446000D02*
X204787500Y-49150000D01*
X201054000Y-44712500D02*
X204787500Y-48446000D01*
X199350000Y-44712500D02*
X201054000Y-44712500D01*
X208875000Y-63762500D02*
X211463500Y-63762500D01*
X214312500Y-66611500D02*
X214312500Y-68200000D01*
X211463500Y-63762500D02*
X214312500Y-66611500D01*
X213637500Y-82812500D02*
X215527500Y-82812500D01*
X219075000Y-86360000D02*
X219075000Y-87250000D01*
X215527500Y-82812500D02*
X219075000Y-86360000D01*
X204112500Y-101862500D02*
X205875500Y-101862500D01*
X209550000Y-105537000D02*
X209550000Y-105664000D01*
X205875500Y-101862500D02*
X209550000Y-105537000D01*
X209550000Y-105664000D02*
X209550000Y-106300000D01*
X220781250Y-120912500D02*
X222512500Y-120912500D01*
X226218750Y-124618750D02*
X226218750Y-125350000D01*
X222512500Y-120912500D02*
X226218750Y-124618750D01*
X273939000Y-125254750D02*
X273843750Y-125350000D01*
X273939000Y-124079000D02*
X273939000Y-125254750D01*
X404940500Y-125222000D02*
X404812500Y-125350000D01*
X406908000Y-125222000D02*
X404940500Y-125222000D01*
X418425000Y-120912500D02*
X420886500Y-120912500D01*
X423862500Y-123888500D02*
X423862500Y-125350000D01*
X420886500Y-120912500D02*
X423862500Y-123888500D01*
X418425000Y-82812500D02*
X418346500Y-82812500D01*
X411929000Y-80168750D02*
X411225000Y-80168750D01*
X415702750Y-80168750D02*
X411929000Y-80168750D01*
X418346500Y-82812500D02*
X415702750Y-80168750D01*
X437475000Y-101862500D02*
X437475000Y-101306000D01*
X434594000Y-98425000D02*
X430275000Y-98425000D01*
X437475000Y-101306000D02*
X434594000Y-98425000D01*
X423862500Y-105089010D02*
X423862500Y-106300000D01*
X418465000Y-101282500D02*
X420055990Y-101282500D01*
X420055990Y-101282500D02*
X423862500Y-105089010D01*
X436118000Y-131826000D02*
X434720000Y-131826000D01*
D24*
X117221000Y-30480000D02*
X117221000Y-31239000D01*
X116840000Y-30099000D02*
X117221000Y-30480000D01*
X116840000Y-23216000D02*
X116840000Y-30099000D01*
X117462500Y-22089500D02*
X117462500Y-22593500D01*
X117462500Y-22593500D02*
X116840000Y-23216000D01*
D25*
X211963000Y-56642000D02*
X211397315Y-56642000D01*
X211397315Y-56642000D02*
X23241000Y-56642000D01*
X404541750Y-43879000D02*
X398970000Y-43879000D01*
X398970000Y-43879000D02*
X395415000Y-43879000D01*
X395415000Y-43879000D02*
X395097000Y-43561000D01*
X383921000Y-32639000D02*
X382845038Y-32639000D01*
X382845038Y-32639000D02*
X222250000Y-32639000D01*
X230447315Y-57531000D02*
X50165000Y-57531000D01*
X231394000Y-57150000D02*
X230828315Y-57150000D01*
X230828315Y-57150000D02*
X230447315Y-57531000D01*
X403728148Y-44679000D02*
X403464749Y-44415601D01*
X404541750Y-44679000D02*
X403728148Y-44679000D01*
X403464749Y-44415601D02*
X394579609Y-44415601D01*
X394579609Y-44415601D02*
X394239505Y-44075497D01*
X376151135Y-41240001D02*
X300389999Y-41240001D01*
X383927067Y-49015933D02*
X376151135Y-41240001D01*
X300389999Y-41240001D02*
X296672000Y-44958000D01*
X290322000Y-44958000D02*
X287274000Y-41910000D01*
X296672000Y-44958000D02*
X290322000Y-44958000D01*
X287274000Y-41910000D02*
X275590000Y-41910000D01*
X275590000Y-41910000D02*
X272034000Y-45466000D01*
X272034000Y-45466000D02*
X262128000Y-45466000D01*
X262128000Y-45466000D02*
X258191000Y-41529000D01*
X236283500Y-41529000D02*
X236251750Y-41560750D01*
X258191000Y-41529000D02*
X236283500Y-41529000D01*
X250317000Y-56515000D02*
X249717000Y-55915000D01*
X249717000Y-55915000D02*
X69088000Y-55915000D01*
X404541750Y-45479000D02*
X398920000Y-45479000D01*
X394576000Y-45479000D02*
X394563000Y-45466000D01*
X398920000Y-45479000D02*
X394576000Y-45479000D01*
X394563000Y-45466000D02*
X393506495Y-45466000D01*
X393506495Y-45466000D02*
X393287495Y-45247000D01*
X384683000Y-60325000D02*
X333756000Y-60325000D01*
X333756000Y-60325000D02*
X315595000Y-60325000D01*
X315595000Y-60325000D02*
X312293000Y-63627000D01*
X312293000Y-63627000D02*
X311150000Y-63627000D01*
X311150000Y-63627000D02*
X305054000Y-69723000D01*
X305054000Y-69723000D02*
X274955000Y-69723000D01*
X270002000Y-84709000D02*
X272542000Y-84709000D01*
X269240000Y-83947000D02*
X270002000Y-84709000D01*
X265303000Y-83947000D02*
X269240000Y-83947000D01*
X264477500Y-84772500D02*
X265303000Y-83947000D01*
X142970250Y-122809000D02*
X143033750Y-122872500D01*
X110617000Y-122809000D02*
X142970250Y-122809000D01*
X286258000Y-83439000D02*
X278003000Y-83439000D01*
X278003000Y-83439000D02*
X272288000Y-77724000D01*
X272288000Y-77724000D02*
X89789000Y-77724000D01*
X404541750Y-46279000D02*
X403149000Y-46279000D01*
X403149000Y-46279000D02*
X402844000Y-45974000D01*
X402844000Y-45974000D02*
X398780000Y-45974000D01*
X398780000Y-45974000D02*
X392430000Y-45974000D01*
X285334001Y-55210001D02*
X284680010Y-54556010D01*
X385445000Y-54610000D02*
X290254962Y-54610000D01*
X289654961Y-55210001D02*
X285334001Y-55210001D01*
X285930990Y-54556010D02*
X284680010Y-54556010D01*
X290254962Y-54610000D02*
X289654961Y-55210001D01*
X284680010Y-54556010D02*
X279453990Y-54556010D01*
X114490500Y-58547000D02*
X107315000Y-65722500D01*
X265557000Y-58547000D02*
X114490500Y-58547000D01*
X311785000Y-61214000D02*
X268224000Y-61214000D01*
X268224000Y-61214000D02*
X265557000Y-58547000D01*
X302387000Y-116205000D02*
X292576250Y-116205000D01*
X292576250Y-116205000D02*
X291211000Y-116205000D01*
X291211000Y-116205000D02*
X289052000Y-118364000D01*
X412602240Y-57891240D02*
X412623000Y-57912000D01*
X412602240Y-54622510D02*
X412602240Y-57891240D01*
X412641750Y-53579000D02*
X412641750Y-54583000D01*
X412641750Y-54583000D02*
X412602240Y-54622510D01*
X403065238Y-77886000D02*
X385607000Y-77886000D01*
X385607000Y-77886000D02*
X385572000Y-77851000D01*
X324421500Y-84772500D02*
X312102500Y-84772500D01*
X361823000Y-84455000D02*
X357251000Y-79883000D01*
X357251000Y-79883000D02*
X336169000Y-79883000D01*
X336169000Y-79883000D02*
X333629000Y-82423000D01*
X333629000Y-82423000D02*
X326771000Y-82423000D01*
X385572000Y-84455000D02*
X361823000Y-84455000D01*
X326771000Y-82423000D02*
X324421500Y-84772500D01*
X330269315Y-80137000D02*
X330835000Y-80137000D01*
X311658000Y-80010000D02*
X330142315Y-80010000D01*
X278003000Y-85598000D02*
X306070000Y-85598000D01*
X271526000Y-79121000D02*
X278003000Y-85598000D01*
X131127500Y-84772500D02*
X136779000Y-79121000D01*
X144272000Y-79121000D02*
X145034000Y-79883000D01*
X136779000Y-79121000D02*
X144272000Y-79121000D01*
X147193000Y-79883000D02*
X147955000Y-79121000D01*
X306070000Y-85598000D02*
X311658000Y-80010000D01*
X145034000Y-79883000D02*
X147193000Y-79883000D01*
X330142315Y-80010000D02*
X330269315Y-80137000D01*
X147955000Y-79121000D02*
X271526000Y-79121000D01*
X377571000Y-43434000D02*
X376301000Y-42164000D01*
X377571000Y-43688000D02*
X377571000Y-43434000D01*
X386148990Y-52265990D02*
X377571000Y-43688000D01*
X399161000Y-52265990D02*
X386148990Y-52265990D01*
X404541750Y-51879000D02*
X399547990Y-51879000D01*
X376301000Y-42164000D02*
X331724000Y-42164000D01*
X399547990Y-51879000D02*
X399161000Y-52265990D01*
X350012000Y-79121000D02*
X323395990Y-79121000D01*
X323395990Y-79121000D02*
X322961000Y-79555990D01*
X311469943Y-79555990D02*
X311203990Y-79821944D01*
X322961000Y-79555990D02*
X311469943Y-79555990D01*
X311203990Y-79821944D02*
X305881944Y-85143990D01*
X278191056Y-85143990D02*
X271714057Y-78666990D01*
X305881944Y-85143990D02*
X278191056Y-85143990D01*
X146812000Y-78486000D02*
X146177000Y-78486000D01*
X146992990Y-78666990D02*
X146812000Y-78486000D01*
X271714057Y-78666990D02*
X146992990Y-78666990D01*
X146177000Y-78486000D02*
X146177000Y-78740000D01*
X411841750Y-53579000D02*
X411841750Y-57336207D01*
X411841750Y-57336207D02*
X411745457Y-57432500D01*
X403853933Y-75050933D02*
X374770933Y-75050933D01*
X374770933Y-75050933D02*
X374523000Y-74803000D01*
X374523000Y-74803000D02*
X371602000Y-74803000D01*
X371602000Y-74803000D02*
X366903000Y-79502000D01*
X350577685Y-79121000D02*
X350012000Y-79121000D01*
X357131067Y-79121000D02*
X350577685Y-79121000D01*
X357512067Y-79502000D02*
X357131067Y-79121000D01*
X366903000Y-79502000D02*
X357512067Y-79502000D01*
X370522500Y-81597500D02*
X371538500Y-81597500D01*
X371538500Y-81597500D02*
X372364000Y-80772000D01*
X389064500Y-80772000D02*
X393065000Y-84772500D01*
X372364000Y-80772000D02*
X389064500Y-80772000D01*
X370586000Y-94869000D02*
X354584000Y-94869000D01*
X354584000Y-94869000D02*
X352552000Y-94869000D01*
X352552000Y-94869000D02*
X165608000Y-94869000D01*
X415941750Y-48679000D02*
X421157898Y-48679000D01*
X421157898Y-48679000D02*
X421230898Y-48752000D01*
X404519239Y-80102000D02*
X397735500Y-80102000D01*
X397735500Y-80102000D02*
X393100000Y-80102000D01*
X393100000Y-80102000D02*
X393065000Y-80137000D01*
X310705500Y-103822500D02*
X312102500Y-103822500D01*
X277431500Y-103822500D02*
X310705500Y-103822500D01*
X276606000Y-102997000D02*
X277431500Y-103822500D01*
X272446750Y-102997000D02*
X276606000Y-102997000D01*
X271621250Y-103822500D02*
X272446750Y-102997000D01*
X240157000Y-103251000D02*
X239776000Y-102870000D01*
X236855000Y-102870000D02*
X235902500Y-103822500D01*
X239776000Y-102870000D02*
X236855000Y-102870000D01*
X241427000Y-103251000D02*
X240157000Y-103251000D01*
X271621250Y-103822500D02*
X241998500Y-103822500D01*
X241998500Y-103822500D02*
X241427000Y-103251000D01*
X217424000Y-103251000D02*
X216852500Y-103822500D01*
X222123000Y-103251000D02*
X217424000Y-103251000D01*
X235902500Y-103822500D02*
X222694500Y-103822500D01*
X222694500Y-103822500D02*
X222123000Y-103251000D01*
X216852500Y-103822500D02*
X211455000Y-98425000D01*
X211455000Y-98425000D02*
X184531000Y-98425000D01*
X420840490Y-50889490D02*
X421005000Y-51054000D01*
X417135260Y-50889490D02*
X420840490Y-50889490D01*
X415941750Y-51079000D02*
X416945750Y-51079000D01*
X416945750Y-51079000D02*
X417135260Y-50889490D01*
X405257000Y-97028000D02*
X333375000Y-97028000D01*
X331437962Y-97120000D02*
X312293000Y-97120000D01*
X333375000Y-97028000D02*
X333283000Y-97120000D01*
X333283000Y-97120000D02*
X331437962Y-97120000D01*
X372110000Y-119126000D02*
X371538500Y-119697500D01*
X393700000Y-117856000D02*
X380746000Y-117856000D01*
X371538500Y-119697500D02*
X370522500Y-119697500D01*
X379476000Y-119126000D02*
X372110000Y-119126000D01*
X380746000Y-117856000D02*
X379476000Y-119126000D01*
X370522500Y-119697500D02*
X360997500Y-119697500D01*
X360997500Y-119697500D02*
X358394000Y-117094000D01*
X358394000Y-117094000D02*
X351409000Y-117094000D01*
X331851000Y-103124000D02*
X331152500Y-103822500D01*
X336296000Y-103124000D02*
X331851000Y-103124000D01*
X350202500Y-103822500D02*
X336994500Y-103822500D01*
X336994500Y-103822500D02*
X336296000Y-103124000D01*
X204343000Y-95596000D02*
X205140000Y-96393000D01*
X415941750Y-47879000D02*
X421993657Y-47879000D01*
X421993657Y-47879000D02*
X422155380Y-48040723D01*
X393065000Y-103822500D02*
X397954500Y-98933000D01*
X397954500Y-98933000D02*
X406562000Y-98933000D01*
X323469000Y-96393000D02*
X331089000Y-96393000D01*
X323469000Y-96393000D02*
X323723000Y-96393000D01*
X205140000Y-96393000D02*
X323469000Y-96393000D01*
X322199000Y-122301000D02*
X321627500Y-122872500D01*
X326771000Y-122301000D02*
X322199000Y-122301000D01*
X350202500Y-122872500D02*
X327342500Y-122872500D01*
X327342500Y-122872500D02*
X326771000Y-122301000D01*
X291782500Y-122872500D02*
X321627500Y-122872500D01*
X289433000Y-121920000D02*
X290830000Y-121920000D01*
X287782000Y-120269000D02*
X289433000Y-121920000D01*
X290830000Y-121920000D02*
X291782500Y-122872500D01*
X273177000Y-120269000D02*
X287782000Y-120269000D01*
X262096250Y-122872500D02*
X263221249Y-121747501D01*
X266700000Y-121793000D02*
X267716000Y-122809000D01*
X270637000Y-122809000D02*
X273177000Y-120269000D01*
X264241501Y-121747501D02*
X264287000Y-121793000D01*
X264287000Y-121793000D02*
X266700000Y-121793000D01*
X263221249Y-121747501D02*
X264241501Y-121747501D01*
X267716000Y-122809000D02*
X270637000Y-122809000D01*
X413705990Y-84772500D02*
X414401000Y-84077490D01*
X412115000Y-84772500D02*
X413705990Y-84772500D01*
X414401000Y-84077490D02*
X417579490Y-84077490D01*
X417579490Y-84077490D02*
X418274500Y-84772500D01*
X410524010Y-122872500D02*
X412115000Y-122872500D01*
X398526000Y-122809000D02*
X410460510Y-122809000D01*
X393922250Y-122015250D02*
X397732250Y-122015250D01*
X410460510Y-122809000D02*
X410524010Y-122872500D01*
X397732250Y-122015250D02*
X398526000Y-122809000D01*
X393065000Y-122872500D02*
X393922250Y-122015250D01*
X355092000Y-122174000D02*
X350901000Y-122174000D01*
X355346000Y-122428000D02*
X355092000Y-122174000D01*
X356108000Y-122428000D02*
X355346000Y-122428000D01*
X393065000Y-122872500D02*
X356552500Y-122872500D01*
X350901000Y-122174000D02*
X350202500Y-122872500D01*
X356552500Y-122872500D02*
X356108000Y-122428000D01*
X413013169Y-40193979D02*
X413329035Y-40193979D01*
X411841750Y-42179000D02*
X411841750Y-41365398D01*
X411841750Y-41365398D02*
X413013169Y-40193979D01*
X413329035Y-40193979D02*
X416941000Y-40193979D01*
X416941000Y-40193979D02*
X427965581Y-40193979D01*
X427965581Y-40193979D02*
X428238571Y-40466969D01*
X418274500Y-84772500D02*
X428307500Y-84772500D01*
X428307500Y-84772500D02*
X431165000Y-84772500D01*
X400638250Y-29984000D02*
X400757000Y-29865250D01*
X400638250Y-33909000D02*
X400638250Y-29984000D01*
X400842000Y-34036000D02*
X400842000Y-39273000D01*
X407041750Y-41175000D02*
X407041750Y-42179000D01*
X406968749Y-41101999D02*
X407041750Y-41175000D01*
X400842000Y-39273000D02*
X402670999Y-41101999D01*
X402670999Y-41101999D02*
X406968749Y-41101999D01*
X118945009Y-25854009D02*
X118999000Y-25908000D01*
X119062500Y-22089500D02*
X118945009Y-22206991D01*
X118945009Y-22206991D02*
X118945009Y-25854009D01*
X121587500Y-27605000D02*
X120375491Y-27605000D01*
X120375491Y-27605000D02*
X119859500Y-27089009D01*
X119380000Y-25879500D02*
X119859500Y-25400000D01*
X119380000Y-25908000D02*
X119380000Y-25879500D01*
X118999000Y-25908000D02*
X119380000Y-25908000D01*
X119380001Y-25907999D02*
X119380000Y-25908000D01*
X122674935Y-25907999D02*
X119380001Y-25907999D01*
X123243990Y-25338944D02*
X122674935Y-25907999D01*
X135079500Y-17970500D02*
X127945434Y-17970499D01*
X135809750Y-17240250D02*
X135079500Y-17970500D01*
X127945434Y-17970499D02*
X124333000Y-21582933D01*
X124333000Y-21582933D02*
X124333000Y-23487934D01*
X124333000Y-23487934D02*
X123243990Y-24576943D01*
X123243990Y-24576943D02*
X123243990Y-25338944D01*
X138240987Y-17796487D02*
X137684750Y-17240250D01*
X138787447Y-17796487D02*
X138240987Y-17796487D01*
X139511943Y-17071990D02*
X138787447Y-17796487D01*
X403911000Y-49479000D02*
X403763009Y-49626991D01*
X404541750Y-49479000D02*
X403911000Y-49479000D01*
X383474057Y-17071990D02*
X139511943Y-17071990D01*
X384525991Y-30322991D02*
X384375010Y-30172010D01*
X384375010Y-30172010D02*
X384375010Y-17972943D01*
X384375010Y-17972943D02*
X383474057Y-17071990D01*
X403763009Y-49626991D02*
X403587944Y-49626992D01*
X403587944Y-49626992D02*
X403430936Y-49784000D01*
X391668000Y-49784000D02*
X391657011Y-49794989D01*
X403430936Y-49784000D02*
X391668000Y-49784000D01*
X391657011Y-30588944D02*
X391391058Y-30322991D01*
X391657011Y-49794989D02*
X391657011Y-30588944D01*
X391391058Y-30322991D02*
X389986991Y-30322991D01*
X391190009Y-30322991D02*
X389986991Y-30322991D01*
X389986991Y-30322991D02*
X384525991Y-30322991D01*
X135413750Y-19162000D02*
X135809750Y-19558000D01*
X135413750Y-18732500D02*
X135413750Y-19162000D01*
X135105759Y-18424509D02*
X135413750Y-18732500D01*
X128133491Y-18424509D02*
X135105759Y-18424509D01*
X124841000Y-23622000D02*
X124841000Y-21717000D01*
X123698000Y-24765000D02*
X124841000Y-23622000D01*
X124841000Y-21717000D02*
X128133491Y-18424509D01*
X123698000Y-25527000D02*
X123698000Y-24765000D01*
X118262500Y-23139500D02*
X118491000Y-23368000D01*
X118262500Y-22089500D02*
X118262500Y-23139500D01*
X118491000Y-23368000D02*
X118491000Y-26042066D01*
X118491000Y-26042066D02*
X118810943Y-26362009D01*
X122862991Y-26362009D02*
X123698000Y-25527000D01*
X122227991Y-26846491D02*
X122227991Y-26362009D01*
X122237500Y-26856000D02*
X122227991Y-26846491D01*
X122237500Y-27605000D02*
X122237500Y-26856000D01*
X118810943Y-26362009D02*
X122227991Y-26362009D01*
X122227991Y-26362009D02*
X122862991Y-26362009D01*
X404541750Y-50279000D02*
X403974000Y-50279000D01*
X403974000Y-50279000D02*
X403776001Y-50081001D01*
X391233002Y-50279000D02*
X404541750Y-50279000D01*
X391203001Y-50248999D02*
X391233002Y-50279000D01*
X384337934Y-30777001D02*
X391203001Y-30777001D01*
X383921000Y-30360067D02*
X384337934Y-30777001D01*
X138240987Y-19001763D02*
X138240987Y-18985013D01*
X391203001Y-30777001D02*
X391203001Y-50248999D01*
X137684750Y-19558000D02*
X138240987Y-19001763D01*
X383921000Y-18161000D02*
X383921000Y-30360067D01*
X138240987Y-18985013D02*
X139700000Y-17526000D01*
X139700000Y-17526000D02*
X383286000Y-17526000D01*
X383286000Y-17526000D02*
X383921000Y-18161000D01*
X419591750Y-51879000D02*
X419766750Y-51704000D01*
X415941750Y-51879000D02*
X419591750Y-51879000D01*
X27900000Y-20900000D02*
X30425000Y-20900000D01*
X33337500Y-23812500D02*
X33337500Y-25337500D01*
X30425000Y-20900000D02*
X33337500Y-23812500D01*
X51712500Y-20900000D02*
X54555000Y-20900000D01*
X57150000Y-23495000D02*
X57150000Y-25337500D01*
X54555000Y-20900000D02*
X57150000Y-23495000D01*
X70762500Y-20900000D02*
X73097000Y-20900000D01*
X76200000Y-24003000D02*
X76200000Y-25337500D01*
X73097000Y-20900000D02*
X76200000Y-24003000D01*
X89812500Y-20900000D02*
X92528000Y-20900000D01*
X95250000Y-23622000D02*
X95250000Y-25337500D01*
X92528000Y-20900000D02*
X95250000Y-23622000D01*
X89812500Y-101862500D02*
X92066500Y-101862500D01*
X95250000Y-105046000D02*
X95250000Y-106300000D01*
X92066500Y-101862500D02*
X95250000Y-105046000D01*
X114300000Y-25019000D02*
X114300000Y-25337500D01*
X108862500Y-20900000D02*
X110181000Y-20900000D01*
X110181000Y-20900000D02*
X114300000Y-25019000D01*
X132675000Y-20900000D02*
X133041000Y-20900000D01*
X133041000Y-20900000D02*
X135636000Y-23495000D01*
X137962500Y-25337500D02*
X138112500Y-25337500D01*
X136120000Y-23495000D02*
X137962500Y-25337500D01*
X135636000Y-23495000D02*
X136120000Y-23495000D01*
X157012500Y-25337500D02*
X157162500Y-25337500D01*
X152575000Y-20900000D02*
X157012500Y-25337500D01*
X151725000Y-20900000D02*
X152575000Y-20900000D01*
X176062500Y-25337500D02*
X176212500Y-25337500D01*
X171625000Y-20900000D02*
X176062500Y-25337500D01*
X170775000Y-20900000D02*
X171625000Y-20900000D01*
X161250000Y-44712500D02*
X163457500Y-44712500D01*
X166687500Y-47942500D02*
X166687500Y-49150000D01*
X163457500Y-44712500D02*
X166687500Y-47942500D01*
X176212500Y-67496000D02*
X176212500Y-68200000D01*
X172479000Y-63762500D02*
X176212500Y-67496000D01*
X170775000Y-63762500D02*
X172479000Y-63762500D01*
X175537500Y-82812500D02*
X177808500Y-82812500D01*
X180975000Y-85979000D02*
X180975000Y-87250000D01*
X177808500Y-82812500D02*
X180975000Y-85979000D01*
X166012500Y-101862500D02*
X167775500Y-101862500D01*
X171450000Y-105537000D02*
X171450000Y-106300000D01*
X167775500Y-101862500D02*
X171450000Y-105537000D01*
X195906250Y-25337500D02*
X196056250Y-25337500D01*
X191468750Y-20900000D02*
X195906250Y-25337500D01*
X189825000Y-20900000D02*
X191468750Y-20900000D01*
X180300000Y-44712500D02*
X182126500Y-44712500D01*
X185737500Y-48323500D02*
X185737500Y-49150000D01*
X182126500Y-44712500D02*
X185737500Y-48323500D01*
X189825000Y-63762500D02*
X191905500Y-63762500D01*
X195262500Y-67119500D02*
X195262500Y-68200000D01*
X191905500Y-63762500D02*
X195262500Y-67119500D01*
X194587500Y-82812500D02*
X197112500Y-82812500D01*
X200025000Y-85725000D02*
X200025000Y-87250000D01*
X197112500Y-82812500D02*
X200025000Y-85725000D01*
X185062500Y-101862500D02*
X187079500Y-101862500D01*
X190500000Y-105283000D02*
X190500000Y-106300000D01*
X187079500Y-101862500D02*
X190500000Y-105283000D01*
X213637500Y-20900000D02*
X214702000Y-20900000D01*
X218925000Y-25337500D02*
X219075000Y-25337500D01*
X214702000Y-21114500D02*
X218925000Y-25337500D01*
X214702000Y-20900000D02*
X214702000Y-21114500D01*
X297911250Y-125095000D02*
X297656250Y-125350000D01*
X299847000Y-125095000D02*
X297911250Y-125095000D01*
X437475000Y-82812500D02*
X437475000Y-81748000D01*
X435737000Y-80010000D02*
X433831000Y-80010000D01*
X437475000Y-81748000D02*
X435737000Y-80010000D01*
X333503000Y-125222000D02*
X333375000Y-125350000D01*
X335534000Y-125222000D02*
X333503000Y-125222000D01*
X361950000Y-124079000D02*
X361950000Y-125350000D01*
X149343750Y-120912500D02*
X151138500Y-120912500D01*
X154781250Y-124555250D02*
X154781250Y-125350000D01*
X151138500Y-120912500D02*
X154781250Y-124555250D01*
X237975000Y-25337500D02*
X238125000Y-25337500D01*
X233307500Y-20900000D02*
X232687500Y-20900000D01*
X234104750Y-21697250D02*
X233307500Y-20900000D01*
X234334750Y-21697250D02*
X234104750Y-21697250D01*
X234334750Y-21697250D02*
X237975000Y-25337500D01*
X218400000Y-44712500D02*
X220480500Y-44712500D01*
X223837500Y-48069500D02*
X223837500Y-49150000D01*
X220480500Y-44712500D02*
X223837500Y-48069500D01*
X227925000Y-63762500D02*
X230513500Y-63762500D01*
X233362500Y-66611500D02*
X233362500Y-68200000D01*
X230513500Y-63762500D02*
X233362500Y-66611500D01*
X232687500Y-82812500D02*
X235212500Y-82812500D01*
X238125000Y-85725000D02*
X238125000Y-87250000D01*
X235212500Y-82812500D02*
X238125000Y-85725000D01*
X251737500Y-20900000D02*
X252675000Y-20900000D01*
X257025000Y-25337500D02*
X257175000Y-25337500D01*
X252675000Y-20987500D02*
X257025000Y-25337500D01*
X252675000Y-20900000D02*
X252675000Y-20987500D01*
X237450000Y-44712500D02*
X239403500Y-44712500D01*
X242887500Y-48196500D02*
X242887500Y-49150000D01*
X239403500Y-44712500D02*
X242887500Y-48196500D01*
X246975000Y-63762500D02*
X249436500Y-63762500D01*
X252412500Y-66738500D02*
X252412500Y-68200000D01*
X249436500Y-63762500D02*
X252412500Y-66738500D01*
X251737500Y-82812500D02*
X253500500Y-82812500D01*
X253500500Y-82812500D02*
X257175000Y-86487000D01*
X257175000Y-86487000D02*
X257175000Y-87250000D01*
X276075000Y-25337500D02*
X276225000Y-25337500D01*
X272233000Y-21495500D02*
X276075000Y-25337500D01*
X272003000Y-21495500D02*
X270827500Y-20320000D01*
X272233000Y-21495500D02*
X272003000Y-21495500D01*
X261937500Y-48446000D02*
X261937500Y-49150000D01*
X258204000Y-44712500D02*
X261937500Y-48446000D01*
X256500000Y-44712500D02*
X258204000Y-44712500D01*
X266025000Y-63762500D02*
X268105500Y-63762500D01*
X271462500Y-67119500D02*
X271462500Y-68200000D01*
X268105500Y-63762500D02*
X271462500Y-67119500D01*
X270787500Y-82812500D02*
X272931500Y-82812500D01*
X276225000Y-86106000D02*
X276225000Y-87250000D01*
X272931500Y-82812500D02*
X276225000Y-86106000D01*
X294600000Y-20900000D02*
X295982000Y-20900000D01*
X299887500Y-25337500D02*
X300037500Y-25337500D01*
X295982000Y-21432000D02*
X299887500Y-25337500D01*
X295982000Y-20900000D02*
X295982000Y-21432000D01*
X285075000Y-44712500D02*
X287028500Y-44712500D01*
X290512500Y-48196500D02*
X290512500Y-49150000D01*
X287028500Y-44712500D02*
X290512500Y-48196500D01*
X288259250Y-87122000D02*
X288131250Y-87250000D01*
X290068000Y-87122000D02*
X288259250Y-87122000D01*
X323850000Y-24633500D02*
X323850000Y-25337500D01*
X320116500Y-20900000D02*
X323850000Y-24633500D01*
X318412500Y-20900000D02*
X320116500Y-20900000D01*
X318412500Y-44712500D02*
X320175500Y-44712500D01*
X323850000Y-48387000D02*
X323850000Y-49150000D01*
X320175500Y-44712500D02*
X323850000Y-48387000D01*
X318412500Y-63762500D02*
X320683500Y-63762500D01*
X323850000Y-66929000D02*
X323850000Y-68200000D01*
X320683500Y-63762500D02*
X323850000Y-66929000D01*
X337462500Y-20900000D02*
X338908000Y-20900000D01*
X342750000Y-25337500D02*
X342900000Y-25337500D01*
X338908000Y-21495500D02*
X342750000Y-25337500D01*
X338908000Y-20900000D02*
X338908000Y-21495500D01*
X337462500Y-44712500D02*
X339606500Y-44712500D01*
X342900000Y-48006000D02*
X342900000Y-49150000D01*
X339606500Y-44712500D02*
X342900000Y-48006000D01*
X337462500Y-63762500D02*
X339606500Y-63762500D01*
X342900000Y-67056000D02*
X342900000Y-68200000D01*
X339606500Y-63762500D02*
X342900000Y-67056000D01*
X337462500Y-82812500D02*
X340114500Y-82812500D01*
X342900000Y-85598000D02*
X342900000Y-87250000D01*
X340114500Y-82812500D02*
X342900000Y-85598000D01*
X361950000Y-24633500D02*
X361950000Y-25337500D01*
X358216500Y-20900000D02*
X361950000Y-24633500D01*
X356512500Y-20900000D02*
X358216500Y-20900000D01*
X361950000Y-48446000D02*
X361950000Y-49150000D01*
X358216500Y-44712500D02*
X361950000Y-48446000D01*
X356512500Y-44712500D02*
X358216500Y-44712500D01*
X362008433Y-68141567D02*
X361950000Y-68200000D01*
X363912433Y-68141567D02*
X362008433Y-68141567D01*
X356512500Y-82812500D02*
X358910500Y-82812500D01*
X361950000Y-85852000D02*
X361950000Y-87250000D01*
X358910500Y-82812500D02*
X361950000Y-85852000D01*
X375562500Y-20900000D02*
X377389000Y-20900000D01*
X381000000Y-24511000D02*
X381000000Y-25337500D01*
X377389000Y-20900000D02*
X381000000Y-24511000D01*
X375562500Y-44712500D02*
X377706500Y-44712500D01*
X381000000Y-48006000D02*
X381000000Y-49150000D01*
X377706500Y-44712500D02*
X381000000Y-48006000D01*
X368562500Y-75287500D02*
X368562500Y-75556500D01*
X367856500Y-76262500D02*
X365125000Y-76262500D01*
X368562500Y-75556500D02*
X367856500Y-76262500D01*
X399375000Y-82812500D02*
X401582500Y-82812500D01*
X404812500Y-86042500D02*
X404812500Y-87250000D01*
X401582500Y-82812500D02*
X404812500Y-86042500D01*
X318412500Y-101862500D02*
X320810500Y-101862500D01*
X323850000Y-104902000D02*
X323850000Y-106300000D01*
X320810500Y-101862500D02*
X323850000Y-104902000D01*
X283496750Y-106172000D02*
X283368750Y-106300000D01*
X285623000Y-106172000D02*
X283496750Y-106172000D01*
X247905000Y-106045000D02*
X247650000Y-106300000D01*
X250063000Y-106045000D02*
X247905000Y-106045000D01*
X228855000Y-106045000D02*
X228600000Y-106300000D01*
X230632000Y-106045000D02*
X228855000Y-106045000D01*
X323977000Y-87123000D02*
X323850000Y-87250000D01*
X323977000Y-85852000D02*
X323977000Y-87123000D01*
X399375000Y-101862500D02*
X401692500Y-101862500D01*
X404812500Y-104982500D02*
X404812500Y-106300000D01*
X401692500Y-101862500D02*
X404812500Y-104982500D01*
X368562500Y-113387500D02*
X370736500Y-113387500D01*
X371603000Y-112521000D02*
X376555000Y-112521000D01*
X370736500Y-113387500D02*
X371603000Y-112521000D01*
X358710500Y-110998000D02*
X358775000Y-111062500D01*
X356997000Y-110998000D02*
X358710500Y-110998000D01*
X343028000Y-106172000D02*
X342900000Y-106300000D01*
X345186000Y-106172000D02*
X343028000Y-106172000D01*
X244593750Y-120912500D02*
X246642500Y-120912500D01*
X250031250Y-124301250D02*
X250031250Y-125350000D01*
X246642500Y-120912500D02*
X250031250Y-124301250D01*
X257175000Y-30353000D02*
X257175000Y-28637500D01*
X238125000Y-30353000D02*
X238125000Y-28637500D01*
X238125000Y-30353000D02*
X257175000Y-30353000D01*
X276225000Y-30353000D02*
X276225000Y-28637500D01*
X276098000Y-30353000D02*
X276225000Y-30353000D01*
X257175000Y-30353000D02*
X276098000Y-30353000D01*
X300037500Y-30289500D02*
X300037500Y-28637500D01*
X300101000Y-30353000D02*
X300037500Y-30289500D01*
X299974000Y-30353000D02*
X323850000Y-30353000D01*
X299974000Y-30353000D02*
X300101000Y-30353000D01*
X276098000Y-30353000D02*
X299974000Y-30353000D01*
X323850000Y-30353000D02*
X323850000Y-28637500D01*
X381000000Y-30226000D02*
X381000000Y-28637500D01*
X380873000Y-30353000D02*
X381000000Y-30226000D01*
X361950000Y-30353000D02*
X361950000Y-28637500D01*
X361950000Y-30353000D02*
X380873000Y-30353000D01*
X342900000Y-30353000D02*
X342900000Y-28637500D01*
X342900000Y-30353000D02*
X361950000Y-30353000D01*
X323850000Y-109600000D02*
X326008000Y-109600000D01*
X326008000Y-109600000D02*
X326009000Y-109601000D01*
X326009000Y-31057315D02*
X326009000Y-30353000D01*
X326009000Y-31623000D02*
X326009000Y-31057315D01*
X323850000Y-30353000D02*
X326009000Y-30353000D01*
X326009000Y-30353000D02*
X342900000Y-30353000D01*
X404812500Y-109600000D02*
X404812500Y-110807500D01*
X404812500Y-110807500D02*
X404622000Y-110998000D01*
X404622000Y-110998000D02*
X383032000Y-110998000D01*
X383032000Y-110998000D02*
X377571000Y-105537000D01*
X377571000Y-105537000D02*
X369697000Y-105537000D01*
X369697000Y-105537000D02*
X367538000Y-107696000D01*
X367538000Y-107696000D02*
X361061000Y-107696000D01*
X361061000Y-107696000D02*
X359410000Y-109347000D01*
X359410000Y-109347000D02*
X354330000Y-109347000D01*
X354330000Y-109347000D02*
X351790000Y-111887000D01*
X328295000Y-111887000D02*
X326009000Y-109601000D01*
X351790000Y-111887000D02*
X328295000Y-111887000D01*
X415941750Y-47079000D02*
X422452642Y-47079000D01*
X422452642Y-47079000D02*
X423106961Y-47733319D01*
X404940500Y-109728000D02*
X404812500Y-109600000D01*
X407289000Y-109728000D02*
X404940500Y-109728000D01*
X242887500Y-54292500D02*
X242887500Y-52450000D01*
X242951000Y-54356000D02*
X242887500Y-54292500D01*
X223837500Y-54292500D02*
X223837500Y-52450000D01*
X223774000Y-54356000D02*
X223837500Y-54292500D01*
X223774000Y-54356000D02*
X242951000Y-54356000D01*
X242951000Y-54356000D02*
X262001000Y-54356000D01*
X261937500Y-54292500D02*
X261937500Y-52450000D01*
X262001000Y-54356000D02*
X261937500Y-54292500D01*
X262763000Y-54356000D02*
X262001000Y-54356000D01*
X290449000Y-53217500D02*
X290449000Y-53721000D01*
X263398000Y-53721000D02*
X262763000Y-54356000D01*
X290512500Y-52450000D02*
X290512500Y-53154000D01*
X290512500Y-53154000D02*
X290449000Y-53217500D01*
X290449000Y-53721000D02*
X323850000Y-53721000D01*
X323850000Y-53721000D02*
X323850000Y-52450000D01*
X381000000Y-53721000D02*
X381000000Y-52450000D01*
X361950000Y-53594000D02*
X361950000Y-52450000D01*
X361823000Y-53721000D02*
X361950000Y-53594000D01*
X342900000Y-53721000D02*
X342900000Y-52450000D01*
X342900000Y-53721000D02*
X361823000Y-53721000D01*
X323850000Y-53721000D02*
X342900000Y-53721000D01*
X283368750Y-109600000D02*
X292099000Y-109600000D01*
X292099000Y-109600000D02*
X292100000Y-109601000D01*
X289306000Y-54483000D02*
X289306000Y-53917315D01*
X290449000Y-53721000D02*
X289306000Y-53721000D01*
X289306000Y-53917315D02*
X289306000Y-53721000D01*
X289306000Y-53721000D02*
X263398000Y-53721000D01*
X361950000Y-128650000D02*
X361950000Y-130175000D01*
X361950000Y-109347000D02*
X370713000Y-109347000D01*
X370713000Y-109347000D02*
X371983000Y-108077000D01*
X371983000Y-108077000D02*
X374396000Y-108077000D01*
X375540000Y-109221000D02*
X376555000Y-109221000D01*
X374396000Y-108077000D02*
X375540000Y-109221000D01*
X374396000Y-108077000D02*
X374396000Y-107315000D01*
X361823000Y-53721000D02*
X377444000Y-53721000D01*
X377444000Y-53721000D02*
X381000000Y-53721000D01*
X362077000Y-130302000D02*
X361950000Y-130175000D01*
X363474000Y-130302000D02*
X362077000Y-130302000D01*
X415941750Y-50279000D02*
X420340520Y-50279000D01*
X420340520Y-50279000D02*
X421305962Y-50279000D01*
X421732000Y-50705038D02*
X421732000Y-51761108D01*
X421305962Y-50279000D02*
X421732000Y-50705038D01*
X411204130Y-69998870D02*
X410629999Y-70573001D01*
X411773085Y-69998870D02*
X411204130Y-69998870D01*
X410629999Y-70573001D02*
X403225000Y-70573001D01*
X403225000Y-70573001D02*
X377843990Y-70573001D01*
X377843990Y-70573001D02*
X377571000Y-70300011D01*
X252412500Y-73088500D02*
X252412500Y-71500000D01*
X252476000Y-73152000D02*
X252412500Y-73088500D01*
X233362500Y-73088500D02*
X233362500Y-71500000D01*
X233426000Y-73152000D02*
X233362500Y-73088500D01*
X252476000Y-73152000D02*
X233426000Y-73152000D01*
X271462500Y-72961500D02*
X271462500Y-71500000D01*
X271653000Y-73152000D02*
X271462500Y-72961500D01*
X304419000Y-73533000D02*
X323850000Y-73533000D01*
X323850000Y-73533000D02*
X323850000Y-71500000D01*
X279781000Y-81280000D02*
X280670000Y-82169000D01*
X288130250Y-90551000D02*
X288131250Y-90550000D01*
X285877000Y-90551000D02*
X288130250Y-90551000D01*
X361950000Y-73406000D02*
X361950000Y-71500000D01*
X362077000Y-73533000D02*
X361950000Y-73406000D01*
X362647500Y-72962500D02*
X365125000Y-72962500D01*
X362077000Y-73533000D02*
X362647500Y-72962500D01*
X342900000Y-73406000D02*
X342900000Y-71500000D01*
X342773000Y-73533000D02*
X342900000Y-73406000D01*
X323850000Y-73533000D02*
X342773000Y-73533000D01*
X258699000Y-73152000D02*
X258699000Y-74041000D01*
X252476000Y-73152000D02*
X258699000Y-73152000D01*
X247651000Y-109601000D02*
X247650000Y-109600000D01*
X258699000Y-109601000D02*
X247651000Y-109601000D01*
X333375000Y-128650000D02*
X335789000Y-128650000D01*
X335789000Y-128650000D02*
X335915000Y-128524000D01*
X358585500Y-114173000D02*
X358775000Y-114362500D01*
X340106000Y-114173000D02*
X358585500Y-114173000D01*
X342900000Y-74803000D02*
X342900000Y-73406000D01*
X304419000Y-73533000D02*
X304165000Y-73533000D01*
X296037000Y-81280000D02*
X296672000Y-81280000D01*
X295529000Y-81280000D02*
X296037000Y-81280000D01*
X279781000Y-81280000D02*
X295529000Y-81280000D01*
X304038000Y-81280000D02*
X304165000Y-81153000D01*
X295529000Y-81280000D02*
X304038000Y-81280000D01*
X279781000Y-81280000D02*
X277114000Y-81280000D01*
X277114000Y-73152000D02*
X271526000Y-73152000D01*
X258699000Y-73152000D02*
X271526000Y-73152000D01*
X271526000Y-73152000D02*
X271653000Y-73152000D01*
X415941750Y-49479000D02*
X421533448Y-49479000D01*
X421533448Y-49479000D02*
X421801455Y-49747007D01*
X411387010Y-71027011D02*
X377536989Y-71027011D01*
X377536989Y-71027011D02*
X364524011Y-71027011D01*
X364524011Y-71027011D02*
X364490000Y-70993000D01*
X342773000Y-73533000D02*
X360807000Y-73533000D01*
X360807000Y-73533000D02*
X362077000Y-73533000D01*
X257175000Y-92329000D02*
X257175000Y-90550000D01*
X257048000Y-92456000D02*
X257175000Y-92329000D01*
X237998000Y-92456000D02*
X238125000Y-92329000D01*
X238125000Y-92329000D02*
X238125000Y-90550000D01*
X256413000Y-92456000D02*
X257048000Y-92456000D01*
X237998000Y-92456000D02*
X256413000Y-92456000D01*
X276225000Y-92329000D02*
X276225000Y-90550000D01*
X276098000Y-92456000D02*
X276225000Y-92329000D01*
X276098000Y-92456000D02*
X292481000Y-92456000D01*
X292481000Y-92456000D02*
X293497000Y-93472000D01*
X361950000Y-93345000D02*
X361950000Y-90550000D01*
X361823000Y-93472000D02*
X361950000Y-93345000D01*
X342900000Y-93345000D02*
X342900000Y-90550000D01*
X342773000Y-93472000D02*
X342900000Y-93345000D01*
X323850000Y-93345000D02*
X323850000Y-90550000D01*
X323977000Y-93472000D02*
X323850000Y-93345000D01*
X323977000Y-93472000D02*
X342773000Y-93472000D01*
X293497000Y-93472000D02*
X323977000Y-93472000D01*
X361442000Y-93472000D02*
X361823000Y-93472000D01*
X404812500Y-93408500D02*
X404812500Y-90550000D01*
X404876000Y-93472000D02*
X404812500Y-93408500D01*
X237998000Y-92456000D02*
X232029000Y-92456000D01*
X232029000Y-92456000D02*
X231902000Y-92583000D01*
X228601000Y-109601000D02*
X228600000Y-109600000D01*
X231902000Y-109601000D02*
X228601000Y-109601000D01*
X273843750Y-128650000D02*
X275589000Y-128650000D01*
X275589000Y-128650000D02*
X275844000Y-128905000D01*
X267335000Y-93033315D02*
X267335000Y-92456000D01*
X256413000Y-92456000D02*
X267335000Y-92456000D01*
X267335000Y-93599000D02*
X267335000Y-93033315D01*
X267335000Y-92456000D02*
X276098000Y-92456000D01*
X342900000Y-109600000D02*
X346328000Y-109600000D01*
X346328000Y-109600000D02*
X346329000Y-109601000D01*
X342773000Y-93472000D02*
X346329000Y-93472000D01*
X346329000Y-93472000D02*
X361442000Y-93472000D01*
X411018457Y-57083538D02*
X411018457Y-58192005D01*
X411041750Y-53579000D02*
X411041750Y-57060245D01*
X411041750Y-57060245D02*
X411018457Y-57083538D01*
X404241000Y-93472000D02*
X404876000Y-93472000D01*
X361442000Y-93472000D02*
X404241000Y-93472000D01*
D26*
G36*
X123939300Y-32626300D02*
G01*
X119011700Y-32626300D01*
X119011700Y-29050000D01*
X121168771Y-29050000D01*
X121168771Y-30040000D01*
X121172878Y-30081696D01*
X121185040Y-30121791D01*
X121204791Y-30158741D01*
X121231371Y-30191129D01*
X121263759Y-30217709D01*
X121300709Y-30237460D01*
X121340804Y-30249622D01*
X121382500Y-30253729D01*
X121792500Y-30253729D01*
X121834196Y-30249622D01*
X121874291Y-30237460D01*
X121911241Y-30217709D01*
X121912500Y-30216676D01*
X121913759Y-30217709D01*
X121950709Y-30237460D01*
X121990804Y-30249622D01*
X122032500Y-30253729D01*
X122442500Y-30253729D01*
X122484196Y-30249622D01*
X122524291Y-30237460D01*
X122561241Y-30217709D01*
X122562500Y-30216676D01*
X122563759Y-30217709D01*
X122600709Y-30237460D01*
X122640804Y-30249622D01*
X122682500Y-30253729D01*
X123092500Y-30253729D01*
X123134196Y-30249622D01*
X123174291Y-30237460D01*
X123211241Y-30217709D01*
X123243629Y-30191129D01*
X123270209Y-30158741D01*
X123289960Y-30121791D01*
X123302122Y-30081696D01*
X123306229Y-30040000D01*
X123306229Y-29050000D01*
X123302122Y-29008304D01*
X123289960Y-28968209D01*
X123270209Y-28931259D01*
X123243629Y-28898871D01*
X123211241Y-28872291D01*
X123174291Y-28852540D01*
X123134196Y-28840378D01*
X123092500Y-28836271D01*
X122682500Y-28836271D01*
X122640804Y-28840378D01*
X122600709Y-28852540D01*
X122563759Y-28872291D01*
X122562500Y-28873324D01*
X122561241Y-28872291D01*
X122524291Y-28852540D01*
X122484196Y-28840378D01*
X122442500Y-28836271D01*
X122032500Y-28836271D01*
X121990804Y-28840378D01*
X121950709Y-28852540D01*
X121913759Y-28872291D01*
X121912500Y-28873324D01*
X121911241Y-28872291D01*
X121874291Y-28852540D01*
X121834196Y-28840378D01*
X121792500Y-28836271D01*
X121382500Y-28836271D01*
X121340804Y-28840378D01*
X121300709Y-28852540D01*
X121263759Y-28872291D01*
X121231371Y-28898871D01*
X121204791Y-28931259D01*
X121185040Y-28968209D01*
X121172878Y-29008304D01*
X121168771Y-29050000D01*
X119011700Y-29050000D01*
X119011700Y-26701709D01*
X119381397Y-26701709D01*
X119316532Y-26798787D01*
X119270345Y-26910291D01*
X119246800Y-27028663D01*
X119246800Y-27149355D01*
X119270345Y-27267727D01*
X119316532Y-27379231D01*
X119383585Y-27479583D01*
X119468926Y-27564924D01*
X119569278Y-27631977D01*
X119680782Y-27678164D01*
X119799154Y-27701709D01*
X119919846Y-27701709D01*
X119979855Y-27689773D01*
X120123494Y-27833412D01*
X120134125Y-27846366D01*
X120147079Y-27856997D01*
X120147081Y-27856999D01*
X120185850Y-27888816D01*
X120217394Y-27905676D01*
X120244865Y-27920360D01*
X120308898Y-27939784D01*
X120358810Y-27944700D01*
X120358819Y-27944700D01*
X120375490Y-27946342D01*
X120392161Y-27944700D01*
X121168771Y-27944700D01*
X121168771Y-28100000D01*
X121172878Y-28141696D01*
X121185040Y-28181791D01*
X121204791Y-28218741D01*
X121231371Y-28251129D01*
X121263759Y-28277709D01*
X121300709Y-28297460D01*
X121340804Y-28309622D01*
X121382500Y-28313729D01*
X121792500Y-28313729D01*
X121834196Y-28309622D01*
X121874291Y-28297460D01*
X121911241Y-28277709D01*
X121912500Y-28276676D01*
X121913759Y-28277709D01*
X121950709Y-28297460D01*
X121990804Y-28309622D01*
X122032500Y-28313729D01*
X122442500Y-28313729D01*
X122484196Y-28309622D01*
X122524291Y-28297460D01*
X122561241Y-28277709D01*
X122593629Y-28251129D01*
X122620209Y-28218741D01*
X122639960Y-28181791D01*
X122652122Y-28141696D01*
X122656229Y-28100000D01*
X122669228Y-28100000D01*
X122669483Y-28102589D01*
X122670238Y-28105079D01*
X122671465Y-28107374D01*
X122673115Y-28109385D01*
X122675126Y-28111035D01*
X122677421Y-28112262D01*
X122679911Y-28113017D01*
X122682500Y-28113272D01*
X122884186Y-28113208D01*
X122887488Y-28109906D01*
X122887488Y-27605012D01*
X122887512Y-27605012D01*
X122887512Y-28109906D01*
X122890814Y-28113208D01*
X123092500Y-28113272D01*
X123095089Y-28113017D01*
X123097579Y-28112262D01*
X123099874Y-28111035D01*
X123101885Y-28109385D01*
X123103535Y-28107374D01*
X123104762Y-28105079D01*
X123105517Y-28102589D01*
X123105772Y-28100000D01*
X123105708Y-27608314D01*
X123102406Y-27605012D01*
X122887512Y-27605012D01*
X122887488Y-27605012D01*
X122672594Y-27605012D01*
X122669292Y-27608314D01*
X122669228Y-28100000D01*
X122656229Y-28100000D01*
X122656229Y-27110000D01*
X122669228Y-27110000D01*
X122669292Y-27601686D01*
X122672594Y-27604988D01*
X122887488Y-27604988D01*
X122887488Y-27100094D01*
X122887512Y-27100094D01*
X122887512Y-27604988D01*
X123102406Y-27604988D01*
X123105708Y-27601686D01*
X123105772Y-27110000D01*
X123105517Y-27107411D01*
X123104762Y-27104921D01*
X123103535Y-27102626D01*
X123101885Y-27100615D01*
X123099874Y-27098965D01*
X123097579Y-27097738D01*
X123095089Y-27096983D01*
X123092500Y-27096728D01*
X122890814Y-27096792D01*
X122887512Y-27100094D01*
X122887488Y-27100094D01*
X122884186Y-27096792D01*
X122682500Y-27096728D01*
X122679911Y-27096983D01*
X122677421Y-27097738D01*
X122675126Y-27098965D01*
X122673115Y-27100615D01*
X122671465Y-27102626D01*
X122670238Y-27104921D01*
X122669483Y-27107411D01*
X122669228Y-27110000D01*
X122656229Y-27110000D01*
X122652122Y-27068304D01*
X122639960Y-27028209D01*
X122620209Y-26991259D01*
X122593629Y-26958871D01*
X122577200Y-26945388D01*
X122577200Y-26872681D01*
X122578843Y-26856000D01*
X122572284Y-26789408D01*
X122572284Y-26789407D01*
X122567691Y-26774266D01*
X122567691Y-26701709D01*
X122846313Y-26701709D01*
X122862991Y-26703352D01*
X122879669Y-26701709D01*
X122879672Y-26701709D01*
X122929584Y-26696793D01*
X122993617Y-26677369D01*
X123052631Y-26645825D01*
X123104357Y-26603375D01*
X123114997Y-26590410D01*
X123530707Y-26174700D01*
X123939300Y-26174700D01*
X123939300Y-32626300D01*
X123939300Y-32626300D01*
G37*
X123939300Y-32626300D02*
X119011700Y-32626300D01*
X119011700Y-29050000D01*
X121168771Y-29050000D01*
X121168771Y-30040000D01*
X121172878Y-30081696D01*
X121185040Y-30121791D01*
X121204791Y-30158741D01*
X121231371Y-30191129D01*
X121263759Y-30217709D01*
X121300709Y-30237460D01*
X121340804Y-30249622D01*
X121382500Y-30253729D01*
X121792500Y-30253729D01*
X121834196Y-30249622D01*
X121874291Y-30237460D01*
X121911241Y-30217709D01*
X121912500Y-30216676D01*
X121913759Y-30217709D01*
X121950709Y-30237460D01*
X121990804Y-30249622D01*
X122032500Y-30253729D01*
X122442500Y-30253729D01*
X122484196Y-30249622D01*
X122524291Y-30237460D01*
X122561241Y-30217709D01*
X122562500Y-30216676D01*
X122563759Y-30217709D01*
X122600709Y-30237460D01*
X122640804Y-30249622D01*
X122682500Y-30253729D01*
X123092500Y-30253729D01*
X123134196Y-30249622D01*
X123174291Y-30237460D01*
X123211241Y-30217709D01*
X123243629Y-30191129D01*
X123270209Y-30158741D01*
X123289960Y-30121791D01*
X123302122Y-30081696D01*
X123306229Y-30040000D01*
X123306229Y-29050000D01*
X123302122Y-29008304D01*
X123289960Y-28968209D01*
X123270209Y-28931259D01*
X123243629Y-28898871D01*
X123211241Y-28872291D01*
X123174291Y-28852540D01*
X123134196Y-28840378D01*
X123092500Y-28836271D01*
X122682500Y-28836271D01*
X122640804Y-28840378D01*
X122600709Y-28852540D01*
X122563759Y-28872291D01*
X122562500Y-28873324D01*
X122561241Y-28872291D01*
X122524291Y-28852540D01*
X122484196Y-28840378D01*
X122442500Y-28836271D01*
X122032500Y-28836271D01*
X121990804Y-28840378D01*
X121950709Y-28852540D01*
X121913759Y-28872291D01*
X121912500Y-28873324D01*
X121911241Y-28872291D01*
X121874291Y-28852540D01*
X121834196Y-28840378D01*
X121792500Y-28836271D01*
X121382500Y-28836271D01*
X121340804Y-28840378D01*
X121300709Y-28852540D01*
X121263759Y-28872291D01*
X121231371Y-28898871D01*
X121204791Y-28931259D01*
X121185040Y-28968209D01*
X121172878Y-29008304D01*
X121168771Y-29050000D01*
X119011700Y-29050000D01*
X119011700Y-26701709D01*
X119381397Y-26701709D01*
X119316532Y-26798787D01*
X119270345Y-26910291D01*
X119246800Y-27028663D01*
X119246800Y-27149355D01*
X119270345Y-27267727D01*
X119316532Y-27379231D01*
X119383585Y-27479583D01*
X119468926Y-27564924D01*
X119569278Y-27631977D01*
X119680782Y-27678164D01*
X119799154Y-27701709D01*
X119919846Y-27701709D01*
X119979855Y-27689773D01*
X120123494Y-27833412D01*
X120134125Y-27846366D01*
X120147079Y-27856997D01*
X120147081Y-27856999D01*
X120185850Y-27888816D01*
X120217394Y-27905676D01*
X120244865Y-27920360D01*
X120308898Y-27939784D01*
X120358810Y-27944700D01*
X120358819Y-27944700D01*
X120375490Y-27946342D01*
X120392161Y-27944700D01*
X121168771Y-27944700D01*
X121168771Y-28100000D01*
X121172878Y-28141696D01*
X121185040Y-28181791D01*
X121204791Y-28218741D01*
X121231371Y-28251129D01*
X121263759Y-28277709D01*
X121300709Y-28297460D01*
X121340804Y-28309622D01*
X121382500Y-28313729D01*
X121792500Y-28313729D01*
X121834196Y-28309622D01*
X121874291Y-28297460D01*
X121911241Y-28277709D01*
X121912500Y-28276676D01*
X121913759Y-28277709D01*
X121950709Y-28297460D01*
X121990804Y-28309622D01*
X122032500Y-28313729D01*
X122442500Y-28313729D01*
X122484196Y-28309622D01*
X122524291Y-28297460D01*
X122561241Y-28277709D01*
X122593629Y-28251129D01*
X122620209Y-28218741D01*
X122639960Y-28181791D01*
X122652122Y-28141696D01*
X122656229Y-28100000D01*
X122669228Y-28100000D01*
X122669483Y-28102589D01*
X122670238Y-28105079D01*
X122671465Y-28107374D01*
X122673115Y-28109385D01*
X122675126Y-28111035D01*
X122677421Y-28112262D01*
X122679911Y-28113017D01*
X122682500Y-28113272D01*
X122884186Y-28113208D01*
X122887488Y-28109906D01*
X122887488Y-27605012D01*
X122887512Y-27605012D01*
X122887512Y-28109906D01*
X122890814Y-28113208D01*
X123092500Y-28113272D01*
X123095089Y-28113017D01*
X123097579Y-28112262D01*
X123099874Y-28111035D01*
X123101885Y-28109385D01*
X123103535Y-28107374D01*
X123104762Y-28105079D01*
X123105517Y-28102589D01*
X123105772Y-28100000D01*
X123105708Y-27608314D01*
X123102406Y-27605012D01*
X122887512Y-27605012D01*
X122887488Y-27605012D01*
X122672594Y-27605012D01*
X122669292Y-27608314D01*
X122669228Y-28100000D01*
X122656229Y-28100000D01*
X122656229Y-27110000D01*
X122669228Y-27110000D01*
X122669292Y-27601686D01*
X122672594Y-27604988D01*
X122887488Y-27604988D01*
X122887488Y-27100094D01*
X122887512Y-27100094D01*
X122887512Y-27604988D01*
X123102406Y-27604988D01*
X123105708Y-27601686D01*
X123105772Y-27110000D01*
X123105517Y-27107411D01*
X123104762Y-27104921D01*
X123103535Y-27102626D01*
X123101885Y-27100615D01*
X123099874Y-27098965D01*
X123097579Y-27097738D01*
X123095089Y-27096983D01*
X123092500Y-27096728D01*
X122890814Y-27096792D01*
X122887512Y-27100094D01*
X122887488Y-27100094D01*
X122884186Y-27096792D01*
X122682500Y-27096728D01*
X122679911Y-27096983D01*
X122677421Y-27097738D01*
X122675126Y-27098965D01*
X122673115Y-27100615D01*
X122671465Y-27102626D01*
X122670238Y-27104921D01*
X122669483Y-27107411D01*
X122669228Y-27110000D01*
X122656229Y-27110000D01*
X122652122Y-27068304D01*
X122639960Y-27028209D01*
X122620209Y-26991259D01*
X122593629Y-26958871D01*
X122577200Y-26945388D01*
X122577200Y-26872681D01*
X122578843Y-26856000D01*
X122572284Y-26789408D01*
X122572284Y-26789407D01*
X122567691Y-26774266D01*
X122567691Y-26701709D01*
X122846313Y-26701709D01*
X122862991Y-26703352D01*
X122879669Y-26701709D01*
X122879672Y-26701709D01*
X122929584Y-26696793D01*
X122993617Y-26677369D01*
X123052631Y-26645825D01*
X123104357Y-26603375D01*
X123114997Y-26590410D01*
X123530707Y-26174700D01*
X123939300Y-26174700D01*
X123939300Y-32626300D01*
G36*
X419087300Y-36817300D02*
G01*
X415783107Y-36817300D01*
X417169407Y-35431001D01*
X417182366Y-35420366D01*
X417224816Y-35368640D01*
X417256360Y-35309626D01*
X417275784Y-35245593D01*
X417280700Y-35195681D01*
X417280700Y-35195679D01*
X417282343Y-35179001D01*
X417280700Y-35162322D01*
X417280700Y-34785729D01*
X417397250Y-34785729D01*
X417486500Y-34776939D01*
X417572320Y-34750905D01*
X417651412Y-34708630D01*
X417720737Y-34651737D01*
X417777630Y-34582412D01*
X417819905Y-34503320D01*
X417845939Y-34417500D01*
X417854729Y-34328250D01*
X417854729Y-33840750D01*
X417845939Y-33751500D01*
X417819905Y-33665680D01*
X417777630Y-33586588D01*
X417720737Y-33517263D01*
X417651412Y-33460370D01*
X417572320Y-33418095D01*
X417486500Y-33392061D01*
X417397250Y-33383271D01*
X416484750Y-33383271D01*
X416395500Y-33392061D01*
X416309680Y-33418095D01*
X416230588Y-33460370D01*
X416161263Y-33517263D01*
X416104370Y-33586588D01*
X416062095Y-33665680D01*
X416038093Y-33744800D01*
X414748843Y-33744800D01*
X414436455Y-33432412D01*
X414691226Y-33177641D01*
X414717806Y-33145253D01*
X414737557Y-33108303D01*
X414749719Y-33068208D01*
X414753826Y-33026512D01*
X414749719Y-32984816D01*
X414737557Y-32944721D01*
X414717806Y-32907771D01*
X414691226Y-32875383D01*
X414512843Y-32697000D01*
X416227728Y-32697000D01*
X416227983Y-32699589D01*
X416228738Y-32702079D01*
X416229965Y-32704374D01*
X416231615Y-32706385D01*
X416233626Y-32708035D01*
X416235921Y-32709262D01*
X416238411Y-32710017D01*
X416241000Y-32710272D01*
X416937686Y-32710208D01*
X416940988Y-32706906D01*
X416940988Y-32209512D01*
X416941012Y-32209512D01*
X416941012Y-32706906D01*
X416944314Y-32710208D01*
X417641000Y-32710272D01*
X417643589Y-32710017D01*
X417646079Y-32709262D01*
X417648374Y-32708035D01*
X417650385Y-32706385D01*
X417652035Y-32704374D01*
X417653262Y-32702079D01*
X417654017Y-32699589D01*
X417654272Y-32697000D01*
X417654208Y-32212814D01*
X417650906Y-32209512D01*
X416941012Y-32209512D01*
X416940988Y-32209512D01*
X416231094Y-32209512D01*
X416227792Y-32212814D01*
X416227728Y-32697000D01*
X414512843Y-32697000D01*
X413842698Y-32026855D01*
X413810310Y-32000275D01*
X413773360Y-31980524D01*
X413733265Y-31968362D01*
X413691569Y-31964255D01*
X413649873Y-31968362D01*
X413609778Y-31980524D01*
X413572828Y-32000275D01*
X413540440Y-32026855D01*
X412550490Y-33016805D01*
X412523910Y-33049193D01*
X412504159Y-33086143D01*
X412491997Y-33126238D01*
X412487890Y-33167934D01*
X412491997Y-33209630D01*
X412504159Y-33249725D01*
X412523910Y-33286675D01*
X412550490Y-33319063D01*
X413399018Y-34167591D01*
X413431406Y-34194171D01*
X413468356Y-34213922D01*
X413508451Y-34226084D01*
X413550147Y-34230191D01*
X413591843Y-34226084D01*
X413631938Y-34213922D01*
X413668888Y-34194171D01*
X413701276Y-34167591D01*
X413956047Y-33912820D01*
X414356134Y-34312906D01*
X414366769Y-34325866D01*
X414382164Y-34338500D01*
X414418495Y-34368316D01*
X414477508Y-34399860D01*
X414541542Y-34419284D01*
X414608135Y-34425843D01*
X414624816Y-34424200D01*
X416038093Y-34424200D01*
X416062095Y-34503320D01*
X416104370Y-34582412D01*
X416161263Y-34651737D01*
X416230588Y-34708630D01*
X416309680Y-34750905D01*
X416395500Y-34776939D01*
X416484750Y-34785729D01*
X416601301Y-34785729D01*
X416601301Y-35038291D01*
X414822293Y-36817300D01*
X409280708Y-36817300D01*
X408390700Y-35927293D01*
X408390700Y-35154846D01*
X411563252Y-35154846D01*
X411563252Y-35159516D01*
X411985128Y-35581482D01*
X411987139Y-35583132D01*
X411989433Y-35584359D01*
X411991924Y-35585114D01*
X411994512Y-35585369D01*
X411997101Y-35585114D01*
X411999591Y-35584359D01*
X412001886Y-35583132D01*
X412003897Y-35581482D01*
X412496483Y-35088805D01*
X412496483Y-35084135D01*
X412065223Y-34652875D01*
X411563252Y-35154846D01*
X408390700Y-35154846D01*
X408390700Y-35039729D01*
X408507250Y-35039729D01*
X408596500Y-35030939D01*
X408682320Y-35004905D01*
X408761412Y-34962630D01*
X408830737Y-34905737D01*
X408887630Y-34836412D01*
X408929905Y-34757320D01*
X408940143Y-34723569D01*
X411132712Y-34723569D01*
X411132967Y-34726157D01*
X411133722Y-34728648D01*
X411134949Y-34730942D01*
X411136599Y-34732953D01*
X411558565Y-35154829D01*
X411563235Y-35154829D01*
X412065206Y-34652858D01*
X412065240Y-34652858D01*
X412496500Y-35084118D01*
X412501170Y-35084118D01*
X412993847Y-34591532D01*
X412995497Y-34589521D01*
X412996724Y-34587226D01*
X412997479Y-34584736D01*
X412997734Y-34582147D01*
X412997479Y-34579559D01*
X412996724Y-34577068D01*
X412995497Y-34574774D01*
X412993847Y-34572763D01*
X412571881Y-34150887D01*
X412567211Y-34150887D01*
X412065240Y-34652858D01*
X412065206Y-34652858D01*
X411633946Y-34221598D01*
X411629276Y-34221598D01*
X411136599Y-34714184D01*
X411134949Y-34716195D01*
X411133722Y-34718490D01*
X411132967Y-34720980D01*
X411132712Y-34723569D01*
X408940143Y-34723569D01*
X408953907Y-34678200D01*
X409958741Y-34678200D01*
X409975419Y-34679843D01*
X409992097Y-34678200D01*
X409992100Y-34678200D01*
X410042012Y-34673284D01*
X410106045Y-34653860D01*
X410165059Y-34622316D01*
X410216785Y-34579866D01*
X410227425Y-34566901D01*
X410457242Y-34337085D01*
X410641302Y-34521145D01*
X410673690Y-34547725D01*
X410710640Y-34567476D01*
X410750735Y-34579638D01*
X410792431Y-34583745D01*
X410834127Y-34579638D01*
X410874222Y-34567476D01*
X410911172Y-34547725D01*
X410943560Y-34521145D01*
X411247794Y-34216911D01*
X411633963Y-34216911D01*
X411633963Y-34221581D01*
X412065223Y-34652841D01*
X412567194Y-34150870D01*
X412567194Y-34146200D01*
X412145318Y-33724234D01*
X412143307Y-33722584D01*
X412141013Y-33721357D01*
X412138522Y-33720602D01*
X412135934Y-33720347D01*
X412133345Y-33720602D01*
X412130855Y-33721357D01*
X412128560Y-33722584D01*
X412126549Y-33724234D01*
X411633963Y-34216911D01*
X411247794Y-34216911D01*
X411933510Y-33531195D01*
X411960090Y-33498807D01*
X411979841Y-33461857D01*
X411992003Y-33421762D01*
X411996110Y-33380066D01*
X411992003Y-33338370D01*
X411979841Y-33298275D01*
X411960090Y-33261325D01*
X411933510Y-33228937D01*
X411101703Y-32397130D01*
X411916806Y-32397130D01*
X411916806Y-32401800D01*
X412338682Y-32823766D01*
X412340693Y-32825416D01*
X412342987Y-32826643D01*
X412345478Y-32827398D01*
X412348066Y-32827653D01*
X412350655Y-32827398D01*
X412353145Y-32826643D01*
X412355440Y-32825416D01*
X412357451Y-32823766D01*
X412850037Y-32331089D01*
X412850037Y-32326419D01*
X412418777Y-31895159D01*
X411916806Y-32397130D01*
X411101703Y-32397130D01*
X411084982Y-32380409D01*
X411052594Y-32353829D01*
X411015644Y-32334078D01*
X410975549Y-32321916D01*
X410933853Y-32317809D01*
X410892157Y-32321916D01*
X410852062Y-32334078D01*
X410815112Y-32353829D01*
X410782724Y-32380409D01*
X409792774Y-33370359D01*
X409766194Y-33402747D01*
X409746443Y-33439697D01*
X409734281Y-33479792D01*
X409730174Y-33521488D01*
X409734281Y-33563184D01*
X409746443Y-33603279D01*
X409766194Y-33640229D01*
X409792774Y-33672617D01*
X409976834Y-33856677D01*
X409834712Y-33998800D01*
X408953907Y-33998800D01*
X408929905Y-33919680D01*
X408887630Y-33840588D01*
X408830737Y-33771263D01*
X408761412Y-33714370D01*
X408682320Y-33672095D01*
X408596500Y-33646061D01*
X408507250Y-33637271D01*
X407594750Y-33637271D01*
X407505500Y-33646061D01*
X407419680Y-33672095D01*
X407340588Y-33714370D01*
X407271263Y-33771263D01*
X407214370Y-33840588D01*
X407172095Y-33919680D01*
X407146061Y-34005500D01*
X407137271Y-34094750D01*
X407137271Y-34582250D01*
X407146061Y-34671500D01*
X407172095Y-34757320D01*
X407214370Y-34836412D01*
X407271263Y-34905737D01*
X407340588Y-34962630D01*
X407419680Y-35004905D01*
X407505500Y-35030939D01*
X407594750Y-35039729D01*
X407711300Y-35039729D01*
X407711301Y-36051312D01*
X407709657Y-36068000D01*
X407715646Y-36128793D01*
X407716217Y-36134593D01*
X407735641Y-36198626D01*
X407767185Y-36257640D01*
X407809635Y-36309366D01*
X407822594Y-36320001D01*
X408319893Y-36817300D01*
X406158700Y-36817300D01*
X406158700Y-32951000D01*
X407337728Y-32951000D01*
X407337983Y-32953589D01*
X407338738Y-32956079D01*
X407339965Y-32958374D01*
X407341615Y-32960385D01*
X407343626Y-32962035D01*
X407345921Y-32963262D01*
X407348411Y-32964017D01*
X407351000Y-32964272D01*
X408047686Y-32964208D01*
X408050988Y-32960906D01*
X408050988Y-32463512D01*
X408051012Y-32463512D01*
X408051012Y-32960906D01*
X408054314Y-32964208D01*
X408751000Y-32964272D01*
X408753589Y-32964017D01*
X408756079Y-32963262D01*
X408758374Y-32962035D01*
X408760385Y-32960385D01*
X408762035Y-32958374D01*
X408763262Y-32956079D01*
X408764017Y-32953589D01*
X408764272Y-32951000D01*
X408764208Y-32466814D01*
X408760906Y-32463512D01*
X408051012Y-32463512D01*
X408050988Y-32463512D01*
X407341094Y-32463512D01*
X407337792Y-32466814D01*
X407337728Y-32951000D01*
X406158700Y-32951000D01*
X406158700Y-31976000D01*
X407337728Y-31976000D01*
X407337792Y-32460186D01*
X407341094Y-32463488D01*
X408050988Y-32463488D01*
X408050988Y-31966094D01*
X408051012Y-31966094D01*
X408051012Y-32463488D01*
X408760906Y-32463488D01*
X408764208Y-32460186D01*
X408764272Y-31976000D01*
X408764017Y-31973411D01*
X408763262Y-31970921D01*
X408762035Y-31968626D01*
X408760385Y-31966615D01*
X408759457Y-31965853D01*
X411486266Y-31965853D01*
X411486521Y-31968441D01*
X411487276Y-31970932D01*
X411488503Y-31973226D01*
X411490153Y-31975237D01*
X411912119Y-32397113D01*
X411916789Y-32397113D01*
X412418760Y-31895142D01*
X412418794Y-31895142D01*
X412850054Y-32326402D01*
X412854724Y-32326402D01*
X413347401Y-31833816D01*
X413349051Y-31831805D01*
X413350278Y-31829510D01*
X413351033Y-31827020D01*
X413351288Y-31824431D01*
X413351033Y-31821843D01*
X413350278Y-31819352D01*
X413349051Y-31817058D01*
X413347401Y-31815047D01*
X413254335Y-31722000D01*
X416227728Y-31722000D01*
X416227792Y-32206186D01*
X416231094Y-32209488D01*
X416940988Y-32209488D01*
X416940988Y-31712094D01*
X416941012Y-31712094D01*
X416941012Y-32209488D01*
X417650906Y-32209488D01*
X417654208Y-32206186D01*
X417654272Y-31722000D01*
X417654017Y-31719411D01*
X417653262Y-31716921D01*
X417652035Y-31714626D01*
X417650385Y-31712615D01*
X417648374Y-31710965D01*
X417646079Y-31709738D01*
X417643589Y-31708983D01*
X417641000Y-31708728D01*
X416944314Y-31708792D01*
X416941012Y-31712094D01*
X416940988Y-31712094D01*
X416937686Y-31708792D01*
X416241000Y-31708728D01*
X416238411Y-31708983D01*
X416235921Y-31709738D01*
X416233626Y-31710965D01*
X416231615Y-31712615D01*
X416229965Y-31714626D01*
X416228738Y-31716921D01*
X416227983Y-31719411D01*
X416227728Y-31722000D01*
X413254335Y-31722000D01*
X412925435Y-31393171D01*
X412920765Y-31393171D01*
X412418794Y-31895142D01*
X412418760Y-31895142D01*
X411987500Y-31463882D01*
X411982830Y-31463882D01*
X411490153Y-31956468D01*
X411488503Y-31958479D01*
X411487276Y-31960774D01*
X411486521Y-31963264D01*
X411486266Y-31965853D01*
X408759457Y-31965853D01*
X408758374Y-31964965D01*
X408756079Y-31963738D01*
X408753589Y-31962983D01*
X408751000Y-31962728D01*
X408054314Y-31962792D01*
X408051012Y-31966094D01*
X408050988Y-31966094D01*
X408047686Y-31962792D01*
X407351000Y-31962728D01*
X407348411Y-31962983D01*
X407345921Y-31963738D01*
X407343626Y-31964965D01*
X407341615Y-31966615D01*
X407339965Y-31968626D01*
X407338738Y-31970921D01*
X407337983Y-31973411D01*
X407337728Y-31976000D01*
X406158700Y-31976000D01*
X406158700Y-31459195D01*
X411987517Y-31459195D01*
X411987517Y-31463865D01*
X412418777Y-31895125D01*
X412920748Y-31393154D01*
X412920748Y-31388484D01*
X412498872Y-30966518D01*
X412496861Y-30964868D01*
X412494567Y-30963641D01*
X412492076Y-30962886D01*
X412489488Y-30962631D01*
X412486899Y-30962886D01*
X412484409Y-30963641D01*
X412482114Y-30964868D01*
X412480103Y-30966518D01*
X411987517Y-31459195D01*
X406158700Y-31459195D01*
X406158700Y-29857700D01*
X419087300Y-29857700D01*
X419087300Y-36817300D01*
X419087300Y-36817300D01*
G37*
X419087300Y-36817300D02*
X415783107Y-36817300D01*
X417169407Y-35431001D01*
X417182366Y-35420366D01*
X417224816Y-35368640D01*
X417256360Y-35309626D01*
X417275784Y-35245593D01*
X417280700Y-35195681D01*
X417280700Y-35195679D01*
X417282343Y-35179001D01*
X417280700Y-35162322D01*
X417280700Y-34785729D01*
X417397250Y-34785729D01*
X417486500Y-34776939D01*
X417572320Y-34750905D01*
X417651412Y-34708630D01*
X417720737Y-34651737D01*
X417777630Y-34582412D01*
X417819905Y-34503320D01*
X417845939Y-34417500D01*
X417854729Y-34328250D01*
X417854729Y-33840750D01*
X417845939Y-33751500D01*
X417819905Y-33665680D01*
X417777630Y-33586588D01*
X417720737Y-33517263D01*
X417651412Y-33460370D01*
X417572320Y-33418095D01*
X417486500Y-33392061D01*
X417397250Y-33383271D01*
X416484750Y-33383271D01*
X416395500Y-33392061D01*
X416309680Y-33418095D01*
X416230588Y-33460370D01*
X416161263Y-33517263D01*
X416104370Y-33586588D01*
X416062095Y-33665680D01*
X416038093Y-33744800D01*
X414748843Y-33744800D01*
X414436455Y-33432412D01*
X414691226Y-33177641D01*
X414717806Y-33145253D01*
X414737557Y-33108303D01*
X414749719Y-33068208D01*
X414753826Y-33026512D01*
X414749719Y-32984816D01*
X414737557Y-32944721D01*
X414717806Y-32907771D01*
X414691226Y-32875383D01*
X414512843Y-32697000D01*
X416227728Y-32697000D01*
X416227983Y-32699589D01*
X416228738Y-32702079D01*
X416229965Y-32704374D01*
X416231615Y-32706385D01*
X416233626Y-32708035D01*
X416235921Y-32709262D01*
X416238411Y-32710017D01*
X416241000Y-32710272D01*
X416937686Y-32710208D01*
X416940988Y-32706906D01*
X416940988Y-32209512D01*
X416941012Y-32209512D01*
X416941012Y-32706906D01*
X416944314Y-32710208D01*
X417641000Y-32710272D01*
X417643589Y-32710017D01*
X417646079Y-32709262D01*
X417648374Y-32708035D01*
X417650385Y-32706385D01*
X417652035Y-32704374D01*
X417653262Y-32702079D01*
X417654017Y-32699589D01*
X417654272Y-32697000D01*
X417654208Y-32212814D01*
X417650906Y-32209512D01*
X416941012Y-32209512D01*
X416940988Y-32209512D01*
X416231094Y-32209512D01*
X416227792Y-32212814D01*
X416227728Y-32697000D01*
X414512843Y-32697000D01*
X413842698Y-32026855D01*
X413810310Y-32000275D01*
X413773360Y-31980524D01*
X413733265Y-31968362D01*
X413691569Y-31964255D01*
X413649873Y-31968362D01*
X413609778Y-31980524D01*
X413572828Y-32000275D01*
X413540440Y-32026855D01*
X412550490Y-33016805D01*
X412523910Y-33049193D01*
X412504159Y-33086143D01*
X412491997Y-33126238D01*
X412487890Y-33167934D01*
X412491997Y-33209630D01*
X412504159Y-33249725D01*
X412523910Y-33286675D01*
X412550490Y-33319063D01*
X413399018Y-34167591D01*
X413431406Y-34194171D01*
X413468356Y-34213922D01*
X413508451Y-34226084D01*
X413550147Y-34230191D01*
X413591843Y-34226084D01*
X413631938Y-34213922D01*
X413668888Y-34194171D01*
X413701276Y-34167591D01*
X413956047Y-33912820D01*
X414356134Y-34312906D01*
X414366769Y-34325866D01*
X414382164Y-34338500D01*
X414418495Y-34368316D01*
X414477508Y-34399860D01*
X414541542Y-34419284D01*
X414608135Y-34425843D01*
X414624816Y-34424200D01*
X416038093Y-34424200D01*
X416062095Y-34503320D01*
X416104370Y-34582412D01*
X416161263Y-34651737D01*
X416230588Y-34708630D01*
X416309680Y-34750905D01*
X416395500Y-34776939D01*
X416484750Y-34785729D01*
X416601301Y-34785729D01*
X416601301Y-35038291D01*
X414822293Y-36817300D01*
X409280708Y-36817300D01*
X408390700Y-35927293D01*
X408390700Y-35154846D01*
X411563252Y-35154846D01*
X411563252Y-35159516D01*
X411985128Y-35581482D01*
X411987139Y-35583132D01*
X411989433Y-35584359D01*
X411991924Y-35585114D01*
X411994512Y-35585369D01*
X411997101Y-35585114D01*
X411999591Y-35584359D01*
X412001886Y-35583132D01*
X412003897Y-35581482D01*
X412496483Y-35088805D01*
X412496483Y-35084135D01*
X412065223Y-34652875D01*
X411563252Y-35154846D01*
X408390700Y-35154846D01*
X408390700Y-35039729D01*
X408507250Y-35039729D01*
X408596500Y-35030939D01*
X408682320Y-35004905D01*
X408761412Y-34962630D01*
X408830737Y-34905737D01*
X408887630Y-34836412D01*
X408929905Y-34757320D01*
X408940143Y-34723569D01*
X411132712Y-34723569D01*
X411132967Y-34726157D01*
X411133722Y-34728648D01*
X411134949Y-34730942D01*
X411136599Y-34732953D01*
X411558565Y-35154829D01*
X411563235Y-35154829D01*
X412065206Y-34652858D01*
X412065240Y-34652858D01*
X412496500Y-35084118D01*
X412501170Y-35084118D01*
X412993847Y-34591532D01*
X412995497Y-34589521D01*
X412996724Y-34587226D01*
X412997479Y-34584736D01*
X412997734Y-34582147D01*
X412997479Y-34579559D01*
X412996724Y-34577068D01*
X412995497Y-34574774D01*
X412993847Y-34572763D01*
X412571881Y-34150887D01*
X412567211Y-34150887D01*
X412065240Y-34652858D01*
X412065206Y-34652858D01*
X411633946Y-34221598D01*
X411629276Y-34221598D01*
X411136599Y-34714184D01*
X411134949Y-34716195D01*
X411133722Y-34718490D01*
X411132967Y-34720980D01*
X411132712Y-34723569D01*
X408940143Y-34723569D01*
X408953907Y-34678200D01*
X409958741Y-34678200D01*
X409975419Y-34679843D01*
X409992097Y-34678200D01*
X409992100Y-34678200D01*
X410042012Y-34673284D01*
X410106045Y-34653860D01*
X410165059Y-34622316D01*
X410216785Y-34579866D01*
X410227425Y-34566901D01*
X410457242Y-34337085D01*
X410641302Y-34521145D01*
X410673690Y-34547725D01*
X410710640Y-34567476D01*
X410750735Y-34579638D01*
X410792431Y-34583745D01*
X410834127Y-34579638D01*
X410874222Y-34567476D01*
X410911172Y-34547725D01*
X410943560Y-34521145D01*
X411247794Y-34216911D01*
X411633963Y-34216911D01*
X411633963Y-34221581D01*
X412065223Y-34652841D01*
X412567194Y-34150870D01*
X412567194Y-34146200D01*
X412145318Y-33724234D01*
X412143307Y-33722584D01*
X412141013Y-33721357D01*
X412138522Y-33720602D01*
X412135934Y-33720347D01*
X412133345Y-33720602D01*
X412130855Y-33721357D01*
X412128560Y-33722584D01*
X412126549Y-33724234D01*
X411633963Y-34216911D01*
X411247794Y-34216911D01*
X411933510Y-33531195D01*
X411960090Y-33498807D01*
X411979841Y-33461857D01*
X411992003Y-33421762D01*
X411996110Y-33380066D01*
X411992003Y-33338370D01*
X411979841Y-33298275D01*
X411960090Y-33261325D01*
X411933510Y-33228937D01*
X411101703Y-32397130D01*
X411916806Y-32397130D01*
X411916806Y-32401800D01*
X412338682Y-32823766D01*
X412340693Y-32825416D01*
X412342987Y-32826643D01*
X412345478Y-32827398D01*
X412348066Y-32827653D01*
X412350655Y-32827398D01*
X412353145Y-32826643D01*
X412355440Y-32825416D01*
X412357451Y-32823766D01*
X412850037Y-32331089D01*
X412850037Y-32326419D01*
X412418777Y-31895159D01*
X411916806Y-32397130D01*
X411101703Y-32397130D01*
X411084982Y-32380409D01*
X411052594Y-32353829D01*
X411015644Y-32334078D01*
X410975549Y-32321916D01*
X410933853Y-32317809D01*
X410892157Y-32321916D01*
X410852062Y-32334078D01*
X410815112Y-32353829D01*
X410782724Y-32380409D01*
X409792774Y-33370359D01*
X409766194Y-33402747D01*
X409746443Y-33439697D01*
X409734281Y-33479792D01*
X409730174Y-33521488D01*
X409734281Y-33563184D01*
X409746443Y-33603279D01*
X409766194Y-33640229D01*
X409792774Y-33672617D01*
X409976834Y-33856677D01*
X409834712Y-33998800D01*
X408953907Y-33998800D01*
X408929905Y-33919680D01*
X408887630Y-33840588D01*
X408830737Y-33771263D01*
X408761412Y-33714370D01*
X408682320Y-33672095D01*
X408596500Y-33646061D01*
X408507250Y-33637271D01*
X407594750Y-33637271D01*
X407505500Y-33646061D01*
X407419680Y-33672095D01*
X407340588Y-33714370D01*
X407271263Y-33771263D01*
X407214370Y-33840588D01*
X407172095Y-33919680D01*
X407146061Y-34005500D01*
X407137271Y-34094750D01*
X407137271Y-34582250D01*
X407146061Y-34671500D01*
X407172095Y-34757320D01*
X407214370Y-34836412D01*
X407271263Y-34905737D01*
X407340588Y-34962630D01*
X407419680Y-35004905D01*
X407505500Y-35030939D01*
X407594750Y-35039729D01*
X407711300Y-35039729D01*
X407711301Y-36051312D01*
X407709657Y-36068000D01*
X407715646Y-36128793D01*
X407716217Y-36134593D01*
X407735641Y-36198626D01*
X407767185Y-36257640D01*
X407809635Y-36309366D01*
X407822594Y-36320001D01*
X408319893Y-36817300D01*
X406158700Y-36817300D01*
X406158700Y-32951000D01*
X407337728Y-32951000D01*
X407337983Y-32953589D01*
X407338738Y-32956079D01*
X407339965Y-32958374D01*
X407341615Y-32960385D01*
X407343626Y-32962035D01*
X407345921Y-32963262D01*
X407348411Y-32964017D01*
X407351000Y-32964272D01*
X408047686Y-32964208D01*
X408050988Y-32960906D01*
X408050988Y-32463512D01*
X408051012Y-32463512D01*
X408051012Y-32960906D01*
X408054314Y-32964208D01*
X408751000Y-32964272D01*
X408753589Y-32964017D01*
X408756079Y-32963262D01*
X408758374Y-32962035D01*
X408760385Y-32960385D01*
X408762035Y-32958374D01*
X408763262Y-32956079D01*
X408764017Y-32953589D01*
X408764272Y-32951000D01*
X408764208Y-32466814D01*
X408760906Y-32463512D01*
X408051012Y-32463512D01*
X408050988Y-32463512D01*
X407341094Y-32463512D01*
X407337792Y-32466814D01*
X407337728Y-32951000D01*
X406158700Y-32951000D01*
X406158700Y-31976000D01*
X407337728Y-31976000D01*
X407337792Y-32460186D01*
X407341094Y-32463488D01*
X408050988Y-32463488D01*
X408050988Y-31966094D01*
X408051012Y-31966094D01*
X408051012Y-32463488D01*
X408760906Y-32463488D01*
X408764208Y-32460186D01*
X408764272Y-31976000D01*
X408764017Y-31973411D01*
X408763262Y-31970921D01*
X408762035Y-31968626D01*
X408760385Y-31966615D01*
X408759457Y-31965853D01*
X411486266Y-31965853D01*
X411486521Y-31968441D01*
X411487276Y-31970932D01*
X411488503Y-31973226D01*
X411490153Y-31975237D01*
X411912119Y-32397113D01*
X411916789Y-32397113D01*
X412418760Y-31895142D01*
X412418794Y-31895142D01*
X412850054Y-32326402D01*
X412854724Y-32326402D01*
X413347401Y-31833816D01*
X413349051Y-31831805D01*
X413350278Y-31829510D01*
X413351033Y-31827020D01*
X413351288Y-31824431D01*
X413351033Y-31821843D01*
X413350278Y-31819352D01*
X413349051Y-31817058D01*
X413347401Y-31815047D01*
X413254335Y-31722000D01*
X416227728Y-31722000D01*
X416227792Y-32206186D01*
X416231094Y-32209488D01*
X416940988Y-32209488D01*
X416940988Y-31712094D01*
X416941012Y-31712094D01*
X416941012Y-32209488D01*
X417650906Y-32209488D01*
X417654208Y-32206186D01*
X417654272Y-31722000D01*
X417654017Y-31719411D01*
X417653262Y-31716921D01*
X417652035Y-31714626D01*
X417650385Y-31712615D01*
X417648374Y-31710965D01*
X417646079Y-31709738D01*
X417643589Y-31708983D01*
X417641000Y-31708728D01*
X416944314Y-31708792D01*
X416941012Y-31712094D01*
X416940988Y-31712094D01*
X416937686Y-31708792D01*
X416241000Y-31708728D01*
X416238411Y-31708983D01*
X416235921Y-31709738D01*
X416233626Y-31710965D01*
X416231615Y-31712615D01*
X416229965Y-31714626D01*
X416228738Y-31716921D01*
X416227983Y-31719411D01*
X416227728Y-31722000D01*
X413254335Y-31722000D01*
X412925435Y-31393171D01*
X412920765Y-31393171D01*
X412418794Y-31895142D01*
X412418760Y-31895142D01*
X411987500Y-31463882D01*
X411982830Y-31463882D01*
X411490153Y-31956468D01*
X411488503Y-31958479D01*
X411487276Y-31960774D01*
X411486521Y-31963264D01*
X411486266Y-31965853D01*
X408759457Y-31965853D01*
X408758374Y-31964965D01*
X408756079Y-31963738D01*
X408753589Y-31962983D01*
X408751000Y-31962728D01*
X408054314Y-31962792D01*
X408051012Y-31966094D01*
X408050988Y-31966094D01*
X408047686Y-31962792D01*
X407351000Y-31962728D01*
X407348411Y-31962983D01*
X407345921Y-31963738D01*
X407343626Y-31964965D01*
X407341615Y-31966615D01*
X407339965Y-31968626D01*
X407338738Y-31970921D01*
X407337983Y-31973411D01*
X407337728Y-31976000D01*
X406158700Y-31976000D01*
X406158700Y-31459195D01*
X411987517Y-31459195D01*
X411987517Y-31463865D01*
X412418777Y-31895125D01*
X412920748Y-31393154D01*
X412920748Y-31388484D01*
X412498872Y-30966518D01*
X412496861Y-30964868D01*
X412494567Y-30963641D01*
X412492076Y-30962886D01*
X412489488Y-30962631D01*
X412486899Y-30962886D01*
X412484409Y-30963641D01*
X412482114Y-30964868D01*
X412480103Y-30966518D01*
X411987517Y-31459195D01*
X406158700Y-31459195D01*
X406158700Y-29857700D01*
X419087300Y-29857700D01*
X419087300Y-36817300D01*
G36*
X409102050Y-37599458D02*
G01*
X409102051Y-41226356D01*
X409084959Y-41231540D01*
X409048009Y-41251291D01*
X409015621Y-41277871D01*
X408989041Y-41310259D01*
X408969290Y-41347209D01*
X408957128Y-41387304D01*
X408953021Y-41429000D01*
X408953021Y-41745649D01*
X408929995Y-41747088D01*
X408930022Y-41429000D01*
X408929767Y-41426411D01*
X408929012Y-41423921D01*
X408927785Y-41421626D01*
X408926135Y-41419615D01*
X408924124Y-41417965D01*
X408921829Y-41416738D01*
X408919339Y-41415983D01*
X408916750Y-41415728D01*
X408645064Y-41415792D01*
X408641762Y-41419094D01*
X408641762Y-41765103D01*
X408641738Y-41765105D01*
X408641738Y-41419094D01*
X408638436Y-41415792D01*
X408571700Y-41415776D01*
X408571700Y-38100000D01*
X408571456Y-38097522D01*
X408570733Y-38095140D01*
X408569560Y-38092944D01*
X408567980Y-38091020D01*
X408566056Y-38089440D01*
X408563860Y-38088267D01*
X408561478Y-38087544D01*
X408559000Y-38087300D01*
X407682700Y-38087300D01*
X407682700Y-36588700D01*
X408091293Y-36588700D01*
X409102050Y-37599458D01*
X409102050Y-37599458D01*
G37*
X409102050Y-37599458D02*
X409102051Y-41226356D01*
X409084959Y-41231540D01*
X409048009Y-41251291D01*
X409015621Y-41277871D01*
X408989041Y-41310259D01*
X408969290Y-41347209D01*
X408957128Y-41387304D01*
X408953021Y-41429000D01*
X408953021Y-41745649D01*
X408929995Y-41747088D01*
X408930022Y-41429000D01*
X408929767Y-41426411D01*
X408929012Y-41423921D01*
X408927785Y-41421626D01*
X408926135Y-41419615D01*
X408924124Y-41417965D01*
X408921829Y-41416738D01*
X408919339Y-41415983D01*
X408916750Y-41415728D01*
X408645064Y-41415792D01*
X408641762Y-41419094D01*
X408641762Y-41765103D01*
X408641738Y-41765105D01*
X408641738Y-41419094D01*
X408638436Y-41415792D01*
X408571700Y-41415776D01*
X408571700Y-38100000D01*
X408571456Y-38097522D01*
X408570733Y-38095140D01*
X408569560Y-38092944D01*
X408567980Y-38091020D01*
X408566056Y-38089440D01*
X408563860Y-38088267D01*
X408561478Y-38087544D01*
X408559000Y-38087300D01*
X407682700Y-38087300D01*
X407682700Y-36588700D01*
X408091293Y-36588700D01*
X409102050Y-37599458D01*
G36*
X414641293Y-36998300D02*
G01*
X411496678Y-36998300D01*
X411480000Y-36996657D01*
X411463321Y-36998300D01*
X411463319Y-36998300D01*
X411413407Y-37003216D01*
X411349374Y-37022640D01*
X411290360Y-37054184D01*
X411238634Y-37096634D01*
X411228000Y-37109592D01*
X410013345Y-38324248D01*
X410000384Y-38334885D01*
X409957934Y-38386611D01*
X409926390Y-38445625D01*
X409906966Y-38509658D01*
X409902050Y-38559569D01*
X409900407Y-38576250D01*
X409902050Y-38592929D01*
X409902051Y-41226356D01*
X409884959Y-41231540D01*
X409848009Y-41251291D01*
X409841750Y-41256428D01*
X409835491Y-41251291D01*
X409798541Y-41231540D01*
X409781450Y-41226356D01*
X409781450Y-37475431D01*
X409783093Y-37458750D01*
X409776534Y-37392157D01*
X409757110Y-37328123D01*
X409725566Y-37269110D01*
X409693749Y-37230341D01*
X409693747Y-37230339D01*
X409683115Y-37217384D01*
X409670161Y-37206753D01*
X409052108Y-36588700D01*
X415050893Y-36588700D01*
X414641293Y-36998300D01*
X414641293Y-36998300D01*
G37*
X414641293Y-36998300D02*
X411496678Y-36998300D01*
X411480000Y-36996657D01*
X411463321Y-36998300D01*
X411463319Y-36998300D01*
X411413407Y-37003216D01*
X411349374Y-37022640D01*
X411290360Y-37054184D01*
X411238634Y-37096634D01*
X411228000Y-37109592D01*
X410013345Y-38324248D01*
X410000384Y-38334885D01*
X409957934Y-38386611D01*
X409926390Y-38445625D01*
X409906966Y-38509658D01*
X409902050Y-38559569D01*
X409900407Y-38576250D01*
X409902050Y-38592929D01*
X409902051Y-41226356D01*
X409884959Y-41231540D01*
X409848009Y-41251291D01*
X409841750Y-41256428D01*
X409835491Y-41251291D01*
X409798541Y-41231540D01*
X409781450Y-41226356D01*
X409781450Y-37475431D01*
X409783093Y-37458750D01*
X409776534Y-37392157D01*
X409757110Y-37328123D01*
X409725566Y-37269110D01*
X409693749Y-37230341D01*
X409693747Y-37230339D01*
X409683115Y-37217384D01*
X409670161Y-37206753D01*
X409052108Y-36588700D01*
X415050893Y-36588700D01*
X414641293Y-36998300D01*
G36*
X419087300Y-37833300D02*
G01*
X411607000Y-37833300D01*
X411604522Y-37833544D01*
X411602140Y-37834267D01*
X411599944Y-37835440D01*
X411598020Y-37837020D01*
X410582020Y-38853020D01*
X410581450Y-38853714D01*
X410581450Y-38716957D01*
X411620708Y-37677700D01*
X414765322Y-37677700D01*
X414782000Y-37679343D01*
X414798678Y-37677700D01*
X414798681Y-37677700D01*
X414848593Y-37672784D01*
X414912626Y-37653360D01*
X414971640Y-37621816D01*
X415023366Y-37579366D01*
X415034006Y-37566401D01*
X416011707Y-36588700D01*
X419087300Y-36588700D01*
X419087300Y-37833300D01*
X419087300Y-37833300D01*
G37*
X419087300Y-37833300D02*
X411607000Y-37833300D01*
X411604522Y-37833544D01*
X411602140Y-37834267D01*
X411599944Y-37835440D01*
X411598020Y-37837020D01*
X410582020Y-38853020D01*
X410581450Y-38853714D01*
X410581450Y-38716957D01*
X411620708Y-37677700D01*
X414765322Y-37677700D01*
X414782000Y-37679343D01*
X414798678Y-37677700D01*
X414798681Y-37677700D01*
X414848593Y-37672784D01*
X414912626Y-37653360D01*
X414971640Y-37621816D01*
X415023366Y-37579366D01*
X415034006Y-37566401D01*
X416011707Y-36588700D01*
X419087300Y-36588700D01*
X419087300Y-37833300D01*
G36*
X409102050Y-37599458D02*
G01*
X409102051Y-41135300D01*
X408244950Y-41135300D01*
X408244950Y-41089459D01*
X408246899Y-41069671D01*
X408244950Y-41049883D01*
X408244950Y-41049874D01*
X408239115Y-40990631D01*
X408216060Y-40914628D01*
X408178620Y-40844583D01*
X408128234Y-40783188D01*
X408112859Y-40770570D01*
X407682700Y-40340411D01*
X407682700Y-36842700D01*
X408345293Y-36842700D01*
X409102050Y-37599458D01*
X409102050Y-37599458D01*
G37*
X409102050Y-37599458D02*
X409102051Y-41135300D01*
X408244950Y-41135300D01*
X408244950Y-41089459D01*
X408246899Y-41069671D01*
X408244950Y-41049883D01*
X408244950Y-41049874D01*
X408239115Y-40990631D01*
X408216060Y-40914628D01*
X408178620Y-40844583D01*
X408128234Y-40783188D01*
X408112859Y-40770570D01*
X407682700Y-40340411D01*
X407682700Y-36842700D01*
X408345293Y-36842700D01*
X409102050Y-37599458D01*
G36*
X414641293Y-36998300D02*
G01*
X411496678Y-36998300D01*
X411480000Y-36996657D01*
X411463321Y-36998300D01*
X411463319Y-36998300D01*
X411413407Y-37003216D01*
X411349374Y-37022640D01*
X411290360Y-37054184D01*
X411238634Y-37096634D01*
X411228000Y-37109592D01*
X410013345Y-38324248D01*
X410000384Y-38334885D01*
X409957934Y-38386611D01*
X409926390Y-38445625D01*
X409906966Y-38509658D01*
X409902050Y-38559569D01*
X409900407Y-38576250D01*
X409902050Y-38592929D01*
X409902051Y-41135300D01*
X409781450Y-41135300D01*
X409781450Y-37475431D01*
X409783093Y-37458750D01*
X409776534Y-37392157D01*
X409757110Y-37328123D01*
X409725566Y-37269110D01*
X409693749Y-37230341D01*
X409693747Y-37230339D01*
X409683115Y-37217384D01*
X409670161Y-37206753D01*
X409306108Y-36842700D01*
X414796893Y-36842700D01*
X414641293Y-36998300D01*
X414641293Y-36998300D01*
G37*
X414641293Y-36998300D02*
X411496678Y-36998300D01*
X411480000Y-36996657D01*
X411463321Y-36998300D01*
X411463319Y-36998300D01*
X411413407Y-37003216D01*
X411349374Y-37022640D01*
X411290360Y-37054184D01*
X411238634Y-37096634D01*
X411228000Y-37109592D01*
X410013345Y-38324248D01*
X410000384Y-38334885D01*
X409957934Y-38386611D01*
X409926390Y-38445625D01*
X409906966Y-38509658D01*
X409902050Y-38559569D01*
X409900407Y-38576250D01*
X409902050Y-38592929D01*
X409902051Y-41135300D01*
X409781450Y-41135300D01*
X409781450Y-37475431D01*
X409783093Y-37458750D01*
X409776534Y-37392157D01*
X409757110Y-37328123D01*
X409725566Y-37269110D01*
X409693749Y-37230341D01*
X409693747Y-37230339D01*
X409683115Y-37217384D01*
X409670161Y-37206753D01*
X409306108Y-36842700D01*
X414796893Y-36842700D01*
X414641293Y-36998300D01*
G36*
X416674300Y-39400269D02*
G01*
X412683860Y-39400269D01*
X412667179Y-39398626D01*
X412650498Y-39400269D01*
X412600586Y-39405185D01*
X412536553Y-39424609D01*
X412477539Y-39456153D01*
X412425813Y-39498603D01*
X412415178Y-39511562D01*
X410813344Y-41113397D01*
X410800385Y-41124032D01*
X410791138Y-41135300D01*
X410581450Y-41135300D01*
X410581450Y-38716957D01*
X411620708Y-37677700D01*
X414765322Y-37677700D01*
X414782000Y-37679343D01*
X414798678Y-37677700D01*
X414798681Y-37677700D01*
X414848593Y-37672784D01*
X414912626Y-37653360D01*
X414971640Y-37621816D01*
X415023366Y-37579366D01*
X415034006Y-37566401D01*
X415757707Y-36842700D01*
X416674300Y-36842700D01*
X416674300Y-39400269D01*
X416674300Y-39400269D01*
G37*
X416674300Y-39400269D02*
X412683860Y-39400269D01*
X412667179Y-39398626D01*
X412650498Y-39400269D01*
X412600586Y-39405185D01*
X412536553Y-39424609D01*
X412477539Y-39456153D01*
X412425813Y-39498603D01*
X412415178Y-39511562D01*
X410813344Y-41113397D01*
X410800385Y-41124032D01*
X410791138Y-41135300D01*
X410581450Y-41135300D01*
X410581450Y-38716957D01*
X411620708Y-37677700D01*
X414765322Y-37677700D01*
X414782000Y-37679343D01*
X414798678Y-37677700D01*
X414798681Y-37677700D01*
X414848593Y-37672784D01*
X414912626Y-37653360D01*
X414971640Y-37621816D01*
X415023366Y-37579366D01*
X415034006Y-37566401D01*
X415757707Y-36842700D01*
X416674300Y-36842700D01*
X416674300Y-39400269D01*
M02*
